G04 #@! TF.FileFunction,Copper,L2,Bot,Signal*
%FSLAX46Y46*%
G04 Gerber Fmt 4.6, Leading zero omitted, Abs format (unit mm)*
G04 Created by KiCad (PCBNEW (2016-04-17 BZR 6697, Git 6120472)-product) date Mon 25 Apr 2016 03:47:36 PM CEST*
%MOMM*%
%LPD*%
G01*
G04 APERTURE LIST*
%ADD10C,0.150000*%
%ADD11C,0.200000*%
%ADD12C,0.850000*%
%ADD13C,2.000000*%
%ADD14R,1.498600X1.297940*%
%ADD15C,0.762000*%
%ADD16C,0.152400*%
%ADD17C,0.203200*%
G04 APERTURE END LIST*
D10*
D11*
X74700000Y-61470000D03*
X75100000Y-61470000D03*
X75500000Y-61470000D03*
X74500000Y-61820000D03*
X74900000Y-61820000D03*
X75300000Y-61820000D03*
X74700000Y-62170000D03*
X75100000Y-62170000D03*
X75500000Y-62170000D03*
X74500000Y-62870000D03*
X74900000Y-62520000D03*
X75300000Y-62520000D03*
X74500000Y-62520000D03*
D12*
X73730000Y-62635000D03*
X76270000Y-62635000D03*
D13*
X77500000Y-64500000D03*
X77500000Y-59500000D03*
X72500000Y-59500000D03*
X72500000Y-64500000D03*
D14*
X79180000Y-61000040D03*
X79180000Y-62899960D03*
D15*
X74600000Y-60399998D03*
X76021119Y-56641039D03*
X78600000Y-56800000D03*
X69550000Y-63100000D03*
X73950000Y-56100000D03*
X69950000Y-58500000D03*
X79729395Y-58558005D03*
X81285810Y-60799998D03*
X72300000Y-62800000D03*
X77950000Y-57800000D03*
X80600000Y-62950000D03*
X80000000Y-65450000D03*
X76800000Y-57800000D03*
X74950000Y-66650000D03*
X71700000Y-67100000D03*
X69900000Y-65750000D03*
X72300000Y-61400000D03*
X75600000Y-63400000D03*
D16*
X73799647Y-62635000D02*
X73730000Y-62635000D01*
X74264647Y-62170000D02*
X73799647Y-62635000D01*
X74700000Y-62170000D02*
X74264647Y-62170000D01*
X75100000Y-62170000D02*
X74700000Y-62170000D01*
D17*
X79079960Y-63000000D02*
X79180000Y-62899960D01*
X77500000Y-64500000D02*
X78499999Y-63500001D01*
X78499999Y-63500001D02*
X78579959Y-63500001D01*
X78579959Y-63500001D02*
X79180000Y-62899960D01*
X72500000Y-64500000D02*
X77500000Y-64500000D01*
X72500000Y-59500000D02*
X77500000Y-59500000D01*
D16*
X75500000Y-62170000D02*
X75805000Y-62170000D01*
X75805000Y-62170000D02*
X76270000Y-62635000D01*
D17*
X77500000Y-59500000D02*
X79000040Y-61000040D01*
X79000040Y-61000040D02*
X79180000Y-61000040D01*
D16*
X75138815Y-60399998D02*
X74600000Y-60399998D01*
X75500000Y-60761183D02*
X75138815Y-60399998D01*
X75500000Y-61470000D02*
X75500000Y-60761183D01*
D17*
X76180080Y-56800000D02*
X76021119Y-56641039D01*
X78600000Y-56800000D02*
X76180080Y-56800000D01*
X69950000Y-58500000D02*
X69950000Y-62700000D01*
X69950000Y-62700000D02*
X69550000Y-63100000D01*
X69950000Y-58500000D02*
X72350000Y-56100000D01*
X72350000Y-56100000D02*
X73950000Y-56100000D01*
X81285810Y-60114420D02*
X79729395Y-58558005D01*
X81285810Y-60799998D02*
X81285810Y-60114420D01*
D16*
X72680999Y-62419001D02*
X72300000Y-62800000D01*
X73014276Y-62419001D02*
X72680999Y-62419001D01*
X73613277Y-61820000D02*
X73014276Y-62419001D01*
X74500000Y-61820000D02*
X73613277Y-61820000D01*
X74900000Y-61820000D02*
X74500000Y-61820000D01*
D17*
X80600000Y-62950000D02*
X80600000Y-60450000D01*
X80600000Y-60450000D02*
X77950000Y-57800000D01*
X80000000Y-65450000D02*
X80600000Y-64850000D01*
X80600000Y-64850000D02*
X80600000Y-62950000D01*
X76261185Y-57800000D02*
X76800000Y-57800000D01*
X70950000Y-62100000D02*
X70950000Y-58800000D01*
X71950000Y-57800000D02*
X76261185Y-57800000D01*
X70950000Y-58800000D02*
X71950000Y-57800000D01*
D16*
X73532210Y-61470000D02*
X72902210Y-62100000D01*
X72902210Y-62100000D02*
X70950000Y-62100000D01*
X74700000Y-61470000D02*
X73532210Y-61470000D01*
D17*
X70950000Y-62100000D02*
X70950000Y-63250000D01*
X70950000Y-63250000D02*
X69900000Y-64300000D01*
X69900000Y-64300000D02*
X69900000Y-65750000D01*
X71700000Y-67100000D02*
X74500000Y-67100000D01*
X74500000Y-67100000D02*
X74950000Y-66650000D01*
D16*
X73169712Y-61069103D02*
X72838815Y-61400000D01*
X75100000Y-61328579D02*
X74840524Y-61069103D01*
X74840524Y-61069103D02*
X73169712Y-61069103D01*
X75100000Y-61470000D02*
X75100000Y-61328579D01*
X72838815Y-61400000D02*
X72300000Y-61400000D01*
X76138815Y-63400000D02*
X75600000Y-63400000D01*
X76923601Y-62915214D02*
X76438815Y-63400000D01*
X76923601Y-62321271D02*
X76923601Y-62915214D01*
X76422330Y-61820000D02*
X76923601Y-62321271D01*
X75300000Y-61820000D02*
X76422330Y-61820000D01*
X76438815Y-63400000D02*
X76138815Y-63400000D01*
M02*
