M48
METRIC,TZ
T1C0.350
T2C0.356
T3C0.381
T4C1.200
%
G90
G05
T1
X73.73Y-62.635
X76.27Y-62.635
T2
X72.3Y-61.4
X72.3Y-62.8
X74.6Y-60.4
X75.6Y-63.4
T3
X69.55Y-63.1
X69.9Y-65.75
X69.95Y-58.5
X71.7Y-67.1
X73.95Y-56.1
X74.95Y-66.65
X76.021Y-56.641
X76.8Y-57.8
X77.95Y-57.8
X78.6Y-56.8
X79.729Y-58.558
X80.Y-65.45
X80.6Y-62.95
X81.286Y-60.8
T4
X72.5Y-59.5
X72.5Y-64.5
X77.5Y-59.5
X77.5Y-64.5
T0
M30
