G04 (created by PCBNEW (2013-09-13 BZR 4316)-product) date Sat 14 Sep 2013 07:06:41 PM CEST*
%MOIN*%
G04 Gerber Fmt 3.4, Leading zero omitted, Abs format*
%FSLAX34Y34*%
G01*
G70*
G90*
G04 APERTURE LIST*
%ADD10C,0.005906*%
%ADD11C,0.007874*%
%ADD12C,0.011811*%
%ADD13C,0.003937*%
%ADD14C,0.000100*%
%ADD15C,0.078740*%
G04 APERTURE END LIST*
G54D10*
G54D11*
X27126Y-23752D02*
X26733Y-23752D01*
X26883Y-23752D02*
X26864Y-23789D01*
X26864Y-23864D01*
X26883Y-23902D01*
X26901Y-23921D01*
X26939Y-23939D01*
X27051Y-23939D01*
X27089Y-23921D01*
X27108Y-23902D01*
X27126Y-23864D01*
X27126Y-23789D01*
X27108Y-23752D01*
X27126Y-24164D02*
X27108Y-24127D01*
X27070Y-24108D01*
X26733Y-24108D01*
X27126Y-24371D02*
X27108Y-24333D01*
X27089Y-24314D01*
X27051Y-24296D01*
X26939Y-24296D01*
X26901Y-24314D01*
X26883Y-24333D01*
X26864Y-24371D01*
X26864Y-24427D01*
X26883Y-24464D01*
X26901Y-24483D01*
X26939Y-24502D01*
X27051Y-24502D01*
X27089Y-24483D01*
X27108Y-24464D01*
X27126Y-24427D01*
X27126Y-24371D01*
X26864Y-24839D02*
X27183Y-24839D01*
X27220Y-24820D01*
X27239Y-24802D01*
X27258Y-24764D01*
X27258Y-24708D01*
X27239Y-24670D01*
X27108Y-24839D02*
X27126Y-24802D01*
X27126Y-24727D01*
X27108Y-24689D01*
X27089Y-24670D01*
X27051Y-24652D01*
X26939Y-24652D01*
X26901Y-24670D01*
X26883Y-24689D01*
X26864Y-24727D01*
X26864Y-24802D01*
X26883Y-24839D01*
X27089Y-25027D02*
X27108Y-25045D01*
X27126Y-25027D01*
X27108Y-25008D01*
X27089Y-25027D01*
X27126Y-25027D01*
X27738Y-22186D02*
X27756Y-22224D01*
X27756Y-22299D01*
X27738Y-22336D01*
X27700Y-22355D01*
X27681Y-22355D01*
X27644Y-22336D01*
X27625Y-22299D01*
X27625Y-22243D01*
X27606Y-22205D01*
X27569Y-22186D01*
X27550Y-22186D01*
X27513Y-22205D01*
X27494Y-22243D01*
X27494Y-22299D01*
X27513Y-22336D01*
X27494Y-22524D02*
X27888Y-22524D01*
X27513Y-22524D02*
X27494Y-22561D01*
X27494Y-22636D01*
X27513Y-22674D01*
X27531Y-22693D01*
X27569Y-22711D01*
X27681Y-22711D01*
X27719Y-22693D01*
X27738Y-22674D01*
X27756Y-22636D01*
X27756Y-22561D01*
X27738Y-22524D01*
X27756Y-22880D02*
X27494Y-22880D01*
X27363Y-22880D02*
X27381Y-22861D01*
X27400Y-22880D01*
X27381Y-22899D01*
X27363Y-22880D01*
X27400Y-22880D01*
X27494Y-23011D02*
X27494Y-23161D01*
X27363Y-23068D02*
X27700Y-23068D01*
X27738Y-23086D01*
X27756Y-23124D01*
X27756Y-23161D01*
X27494Y-23255D02*
X27494Y-23461D01*
X27756Y-23255D01*
X27756Y-23461D01*
X27738Y-23761D02*
X27756Y-23724D01*
X27756Y-23649D01*
X27738Y-23611D01*
X27700Y-23592D01*
X27550Y-23592D01*
X27513Y-23611D01*
X27494Y-23649D01*
X27494Y-23724D01*
X27513Y-23761D01*
X27550Y-23780D01*
X27588Y-23780D01*
X27625Y-23592D01*
X27494Y-23949D02*
X27756Y-23949D01*
X27531Y-23949D02*
X27513Y-23967D01*
X27494Y-24005D01*
X27494Y-24061D01*
X27513Y-24099D01*
X27550Y-24117D01*
X27756Y-24117D01*
X27494Y-24305D02*
X27888Y-24305D01*
X27513Y-24305D02*
X27494Y-24342D01*
X27494Y-24417D01*
X27513Y-24455D01*
X27531Y-24474D01*
X27569Y-24492D01*
X27681Y-24492D01*
X27719Y-24474D01*
X27738Y-24455D01*
X27756Y-24417D01*
X27756Y-24342D01*
X27738Y-24305D01*
X27494Y-24605D02*
X27494Y-24755D01*
X27756Y-24661D02*
X27419Y-24661D01*
X27381Y-24680D01*
X27363Y-24717D01*
X27363Y-24755D01*
X27738Y-25036D02*
X27756Y-24999D01*
X27756Y-24924D01*
X27738Y-24886D01*
X27700Y-24867D01*
X27550Y-24867D01*
X27513Y-24886D01*
X27494Y-24924D01*
X27494Y-24999D01*
X27513Y-25036D01*
X27550Y-25055D01*
X27588Y-25055D01*
X27625Y-24867D01*
X27756Y-25224D02*
X27494Y-25224D01*
X27363Y-25224D02*
X27381Y-25205D01*
X27400Y-25224D01*
X27381Y-25242D01*
X27363Y-25224D01*
X27400Y-25224D01*
X27756Y-25467D02*
X27738Y-25430D01*
X27700Y-25411D01*
X27363Y-25411D01*
X27719Y-25617D02*
X27738Y-25636D01*
X27756Y-25617D01*
X27738Y-25598D01*
X27719Y-25617D01*
X27756Y-25617D01*
X27756Y-25861D02*
X27738Y-25823D01*
X27719Y-25805D01*
X27681Y-25786D01*
X27569Y-25786D01*
X27531Y-25805D01*
X27513Y-25823D01*
X27494Y-25861D01*
X27494Y-25917D01*
X27513Y-25955D01*
X27531Y-25973D01*
X27569Y-25992D01*
X27681Y-25992D01*
X27719Y-25973D01*
X27738Y-25955D01*
X27756Y-25917D01*
X27756Y-25861D01*
X27756Y-26161D02*
X27494Y-26161D01*
X27569Y-26161D02*
X27531Y-26180D01*
X27513Y-26198D01*
X27494Y-26236D01*
X27494Y-26273D01*
X27494Y-26573D02*
X27813Y-26573D01*
X27850Y-26555D01*
X27869Y-26536D01*
X27888Y-26498D01*
X27888Y-26442D01*
X27869Y-26405D01*
X27738Y-26573D02*
X27756Y-26536D01*
X27756Y-26461D01*
X27738Y-26423D01*
X27719Y-26405D01*
X27681Y-26386D01*
X27569Y-26386D01*
X27531Y-26405D01*
X27513Y-26423D01*
X27494Y-26461D01*
X27494Y-26536D01*
X27513Y-26573D01*
G54D12*
X31760Y-23377D02*
X31732Y-23405D01*
X31704Y-23461D01*
X31704Y-23602D01*
X31732Y-23658D01*
X31760Y-23686D01*
X31816Y-23714D01*
X31872Y-23714D01*
X31957Y-23686D01*
X32294Y-23349D01*
X32294Y-23714D01*
X31704Y-24080D02*
X31704Y-24136D01*
X31732Y-24192D01*
X31760Y-24221D01*
X31816Y-24249D01*
X31929Y-24277D01*
X32069Y-24277D01*
X32182Y-24249D01*
X32238Y-24221D01*
X32266Y-24192D01*
X32294Y-24136D01*
X32294Y-24080D01*
X32266Y-24024D01*
X32238Y-23996D01*
X32182Y-23967D01*
X32069Y-23939D01*
X31929Y-23939D01*
X31816Y-23967D01*
X31760Y-23996D01*
X31732Y-24024D01*
X31704Y-24080D01*
X32294Y-24839D02*
X32294Y-24502D01*
X32294Y-24670D02*
X31704Y-24670D01*
X31788Y-24614D01*
X31844Y-24558D01*
X31872Y-24502D01*
X31704Y-25036D02*
X31704Y-25402D01*
X31929Y-25205D01*
X31929Y-25289D01*
X31957Y-25345D01*
X31985Y-25374D01*
X32041Y-25402D01*
X32182Y-25402D01*
X32238Y-25374D01*
X32266Y-25345D01*
X32294Y-25289D01*
X32294Y-25120D01*
X32266Y-25064D01*
X32238Y-25036D01*
G54D13*
X29527Y-23543D02*
X29527Y-25275D01*
G54D11*
X30691Y-24403D02*
X30331Y-24403D01*
X30511Y-24583D02*
X30511Y-24223D01*
X28363Y-24415D02*
X28723Y-24415D01*
G54D14*
G36*
X29878Y-23046D02*
X29903Y-23043D01*
X29926Y-23035D01*
X29936Y-23030D01*
X29957Y-23015D01*
X29974Y-22997D01*
X29986Y-22976D01*
X29995Y-22954D01*
X29999Y-22930D01*
X29998Y-22906D01*
X29992Y-22882D01*
X29981Y-22858D01*
X29974Y-22849D01*
X29963Y-22837D01*
X29952Y-22827D01*
X29942Y-22819D01*
X29938Y-22817D01*
X29917Y-22807D01*
X29895Y-22801D01*
X29870Y-22800D01*
X29862Y-22801D01*
X29849Y-22803D01*
X29837Y-22806D01*
X29824Y-22811D01*
X29810Y-22819D01*
X29790Y-22835D01*
X29773Y-22855D01*
X29761Y-22877D01*
X29758Y-22888D01*
X29754Y-22900D01*
X29753Y-22909D01*
X29753Y-22911D01*
X29753Y-22911D01*
X29752Y-22906D01*
X29752Y-22905D01*
X29748Y-22889D01*
X29742Y-22873D01*
X29735Y-22859D01*
X29721Y-22841D01*
X29702Y-22823D01*
X29680Y-22811D01*
X29656Y-22803D01*
X29630Y-22800D01*
X29624Y-22800D01*
X29604Y-22802D01*
X29586Y-22808D01*
X29582Y-22809D01*
X29561Y-22821D01*
X29543Y-22836D01*
X29527Y-22855D01*
X29516Y-22875D01*
X29509Y-22897D01*
X29509Y-22898D01*
X29508Y-22904D01*
X29507Y-22907D01*
X29507Y-22907D01*
X29506Y-22903D01*
X29505Y-22897D01*
X29504Y-22895D01*
X29497Y-22873D01*
X29485Y-22853D01*
X29469Y-22834D01*
X29455Y-22822D01*
X29433Y-22810D01*
X29410Y-22802D01*
X29384Y-22800D01*
X29365Y-22801D01*
X29341Y-22808D01*
X29318Y-22819D01*
X29299Y-22834D01*
X29283Y-22854D01*
X29281Y-22857D01*
X29275Y-22866D01*
X29271Y-22874D01*
X29269Y-22879D01*
X29266Y-22890D01*
X29263Y-22901D01*
X29262Y-22909D01*
X29262Y-22910D01*
X29261Y-22911D01*
X29260Y-22905D01*
X29258Y-22892D01*
X29252Y-22875D01*
X29244Y-22860D01*
X29230Y-22840D01*
X29211Y-22823D01*
X29189Y-22811D01*
X29165Y-22803D01*
X29139Y-22800D01*
X29116Y-22802D01*
X29092Y-22809D01*
X29070Y-22820D01*
X29050Y-22837D01*
X29041Y-22848D01*
X29031Y-22862D01*
X29024Y-22877D01*
X29020Y-22890D01*
X29015Y-22915D01*
X29016Y-22939D01*
X29022Y-22962D01*
X29031Y-22983D01*
X29045Y-23003D01*
X29062Y-23019D01*
X29081Y-23032D01*
X29104Y-23041D01*
X29129Y-23045D01*
X29131Y-23045D01*
X29156Y-23045D01*
X29180Y-23039D01*
X29202Y-23028D01*
X29210Y-23023D01*
X29227Y-23008D01*
X29241Y-22991D01*
X29251Y-22972D01*
X29254Y-22965D01*
X29257Y-22955D01*
X29260Y-22944D01*
X29261Y-22936D01*
X29261Y-22931D01*
X29262Y-22936D01*
X29262Y-22940D01*
X29265Y-22951D01*
X29268Y-22963D01*
X29272Y-22973D01*
X29278Y-22985D01*
X29293Y-23005D01*
X29312Y-23022D01*
X29334Y-23035D01*
X29358Y-23043D01*
X29362Y-23044D01*
X29379Y-23046D01*
X29397Y-23045D01*
X29413Y-23043D01*
X29429Y-23037D01*
X29452Y-23026D01*
X29473Y-23009D01*
X29474Y-23007D01*
X29488Y-22990D01*
X29499Y-22969D01*
X29505Y-22948D01*
X29505Y-22947D01*
X29507Y-22941D01*
X29507Y-22939D01*
X29507Y-22941D01*
X29508Y-22946D01*
X29509Y-22948D01*
X29512Y-22960D01*
X29518Y-22974D01*
X29525Y-22988D01*
X29536Y-23003D01*
X29554Y-23020D01*
X29576Y-23034D01*
X29600Y-23042D01*
X29605Y-23043D01*
X29621Y-23045D01*
X29639Y-23045D01*
X29655Y-23043D01*
X29669Y-23039D01*
X29692Y-23029D01*
X29712Y-23014D01*
X29729Y-22995D01*
X29742Y-22973D01*
X29745Y-22966D01*
X29748Y-22955D01*
X29751Y-22944D01*
X29752Y-22936D01*
X29752Y-22935D01*
X29753Y-22935D01*
X29753Y-22940D01*
X29754Y-22940D01*
X29757Y-22956D01*
X29763Y-22972D01*
X29770Y-22987D01*
X29774Y-22992D01*
X29790Y-23011D01*
X29809Y-23026D01*
X29830Y-23037D01*
X29854Y-23044D01*
X29878Y-23046D01*
X29878Y-23046D01*
G37*
G36*
X28884Y-22800D02*
X28899Y-22799D01*
X28914Y-22798D01*
X28930Y-22794D01*
X28953Y-22784D01*
X28974Y-22769D01*
X28991Y-22751D01*
X29004Y-22729D01*
X29012Y-22706D01*
X29015Y-22681D01*
X29014Y-22656D01*
X29007Y-22632D01*
X28996Y-22610D01*
X28980Y-22591D01*
X28961Y-22574D01*
X28954Y-22570D01*
X28931Y-22560D01*
X28906Y-22554D01*
X28881Y-22554D01*
X28855Y-22559D01*
X28835Y-22568D01*
X28814Y-22582D01*
X28796Y-22600D01*
X28782Y-22622D01*
X28773Y-22646D01*
X28770Y-22659D01*
X28769Y-22675D01*
X28770Y-22691D01*
X28772Y-22704D01*
X28773Y-22709D01*
X28783Y-22733D01*
X28797Y-22755D01*
X28816Y-22773D01*
X28838Y-22787D01*
X28849Y-22792D01*
X28863Y-22796D01*
X28876Y-22799D01*
X28884Y-22800D01*
X28884Y-22800D01*
G37*
G36*
X30124Y-22800D02*
X30150Y-22797D01*
X30174Y-22788D01*
X30197Y-22774D01*
X30202Y-22770D01*
X30219Y-22752D01*
X30232Y-22731D01*
X30241Y-22707D01*
X30244Y-22694D01*
X30245Y-22678D01*
X30244Y-22663D01*
X30242Y-22650D01*
X30241Y-22644D01*
X30231Y-22619D01*
X30217Y-22598D01*
X30199Y-22581D01*
X30178Y-22567D01*
X30154Y-22558D01*
X30128Y-22554D01*
X30119Y-22554D01*
X30094Y-22557D01*
X30071Y-22564D01*
X30050Y-22576D01*
X30032Y-22592D01*
X30018Y-22611D01*
X30007Y-22633D01*
X30000Y-22657D01*
X29999Y-22682D01*
X30000Y-22697D01*
X30003Y-22711D01*
X30009Y-22725D01*
X30019Y-22744D01*
X30034Y-22763D01*
X30054Y-22779D01*
X30075Y-22791D01*
X30099Y-22798D01*
X30124Y-22800D01*
X30124Y-22800D01*
G37*
G36*
X28639Y-22553D02*
X28657Y-22553D01*
X28672Y-22551D01*
X28690Y-22546D01*
X28712Y-22534D01*
X28733Y-22517D01*
X28746Y-22502D01*
X28758Y-22481D01*
X28767Y-22457D01*
X28768Y-22447D01*
X28769Y-22433D01*
X28769Y-22418D01*
X28767Y-22405D01*
X28765Y-22398D01*
X28755Y-22373D01*
X28741Y-22352D01*
X28723Y-22334D01*
X28701Y-22320D01*
X28692Y-22316D01*
X28676Y-22311D01*
X28660Y-22309D01*
X28642Y-22308D01*
X28630Y-22309D01*
X28617Y-22311D01*
X28605Y-22314D01*
X28591Y-22320D01*
X28583Y-22325D01*
X28563Y-22340D01*
X28546Y-22359D01*
X28533Y-22381D01*
X28525Y-22406D01*
X28524Y-22412D01*
X28523Y-22427D01*
X28524Y-22442D01*
X28525Y-22455D01*
X28527Y-22464D01*
X28537Y-22488D01*
X28551Y-22509D01*
X28569Y-22527D01*
X28591Y-22540D01*
X28616Y-22550D01*
X28623Y-22551D01*
X28639Y-22553D01*
X28639Y-22553D01*
G37*
G36*
X29627Y-22553D02*
X29651Y-22552D01*
X29675Y-22545D01*
X29688Y-22539D01*
X29709Y-22524D01*
X29727Y-22506D01*
X29740Y-22484D01*
X29749Y-22460D01*
X29750Y-22455D01*
X29753Y-22435D01*
X29752Y-22416D01*
X29747Y-22395D01*
X29737Y-22371D01*
X29723Y-22350D01*
X29704Y-22333D01*
X29682Y-22320D01*
X29657Y-22311D01*
X29642Y-22307D01*
X29650Y-22306D01*
X29652Y-22306D01*
X29670Y-22301D01*
X29688Y-22293D01*
X29705Y-22282D01*
X29708Y-22279D01*
X29726Y-22261D01*
X29739Y-22241D01*
X29748Y-22218D01*
X29752Y-22194D01*
X29752Y-22170D01*
X29746Y-22146D01*
X29736Y-22123D01*
X29735Y-22122D01*
X29720Y-22102D01*
X29701Y-22085D01*
X29680Y-22073D01*
X29658Y-22066D01*
X29634Y-22063D01*
X29610Y-22064D01*
X29587Y-22070D01*
X29565Y-22081D01*
X29545Y-22096D01*
X29534Y-22108D01*
X29522Y-22126D01*
X29513Y-22145D01*
X29508Y-22163D01*
X29508Y-22168D01*
X29507Y-22170D01*
X29507Y-22168D01*
X29506Y-22163D01*
X29501Y-22147D01*
X29494Y-22129D01*
X29484Y-22113D01*
X29477Y-22105D01*
X29459Y-22087D01*
X29437Y-22074D01*
X29414Y-22066D01*
X29389Y-22062D01*
X29364Y-22064D01*
X29348Y-22068D01*
X29325Y-22078D01*
X29304Y-22092D01*
X29287Y-22110D01*
X29274Y-22132D01*
X29265Y-22156D01*
X29263Y-22168D01*
X29262Y-22193D01*
X29266Y-22218D01*
X29275Y-22241D01*
X29289Y-22261D01*
X29306Y-22279D01*
X29328Y-22294D01*
X29338Y-22298D01*
X29349Y-22302D01*
X29360Y-22305D01*
X29368Y-22307D01*
X29369Y-22307D01*
X29369Y-22307D01*
X29363Y-22309D01*
X29351Y-22312D01*
X29335Y-22318D01*
X29321Y-22325D01*
X29313Y-22330D01*
X29296Y-22345D01*
X29282Y-22362D01*
X29271Y-22381D01*
X29265Y-22401D01*
X29262Y-22424D01*
X29262Y-22445D01*
X29263Y-22449D01*
X29269Y-22475D01*
X29281Y-22497D01*
X29298Y-22517D01*
X29312Y-22530D01*
X29334Y-22543D01*
X29358Y-22551D01*
X29367Y-22552D01*
X29381Y-22553D01*
X29395Y-22552D01*
X29408Y-22551D01*
X29418Y-22549D01*
X29426Y-22547D01*
X29450Y-22535D01*
X29470Y-22519D01*
X29487Y-22499D01*
X29493Y-22489D01*
X29500Y-22472D01*
X29505Y-22456D01*
X29505Y-22455D01*
X29507Y-22449D01*
X29507Y-22447D01*
X29507Y-22447D01*
X29507Y-22414D01*
X29507Y-22414D01*
X29506Y-22411D01*
X29505Y-22405D01*
X29505Y-22403D01*
X29497Y-22381D01*
X29486Y-22361D01*
X29470Y-22342D01*
X29451Y-22327D01*
X29430Y-22316D01*
X29429Y-22316D01*
X29418Y-22312D01*
X29408Y-22310D01*
X29397Y-22307D01*
X29407Y-22305D01*
X29422Y-22302D01*
X29444Y-22292D01*
X29464Y-22278D01*
X29481Y-22261D01*
X29494Y-22241D01*
X29499Y-22230D01*
X29503Y-22217D01*
X29506Y-22207D01*
X29506Y-22202D01*
X29507Y-22200D01*
X29507Y-22202D01*
X29508Y-22207D01*
X29510Y-22216D01*
X29515Y-22229D01*
X29520Y-22241D01*
X29527Y-22253D01*
X29543Y-22272D01*
X29562Y-22288D01*
X29584Y-22299D01*
X29607Y-22306D01*
X29618Y-22307D01*
X29607Y-22310D01*
X29605Y-22310D01*
X29594Y-22313D01*
X29584Y-22316D01*
X29582Y-22317D01*
X29561Y-22328D01*
X29543Y-22344D01*
X29527Y-22362D01*
X29516Y-22383D01*
X29509Y-22405D01*
X29509Y-22406D01*
X29508Y-22412D01*
X29507Y-22414D01*
X29507Y-22447D01*
X29507Y-22447D01*
X29508Y-22450D01*
X29509Y-22456D01*
X29513Y-22472D01*
X29524Y-22494D01*
X29539Y-22514D01*
X29557Y-22530D01*
X29579Y-22543D01*
X29579Y-22543D01*
X29602Y-22550D01*
X29627Y-22553D01*
X29627Y-22553D01*
G37*
G36*
X30359Y-22553D02*
X30379Y-22553D01*
X30397Y-22550D01*
X30409Y-22547D01*
X30432Y-22536D01*
X30452Y-22521D01*
X30468Y-22502D01*
X30480Y-22480D01*
X30488Y-22456D01*
X30491Y-22431D01*
X30490Y-22420D01*
X30486Y-22395D01*
X30476Y-22371D01*
X30461Y-22349D01*
X30456Y-22345D01*
X30439Y-22330D01*
X30418Y-22318D01*
X30397Y-22311D01*
X30396Y-22311D01*
X30378Y-22308D01*
X30358Y-22308D01*
X30339Y-22311D01*
X30333Y-22313D01*
X30309Y-22322D01*
X30289Y-22336D01*
X30272Y-22354D01*
X30259Y-22374D01*
X30250Y-22396D01*
X30245Y-22420D01*
X30245Y-22445D01*
X30251Y-22470D01*
X30259Y-22488D01*
X30273Y-22509D01*
X30292Y-22527D01*
X30313Y-22541D01*
X30337Y-22550D01*
X30340Y-22550D01*
X30359Y-22553D01*
X30359Y-22553D01*
G37*
G36*
X29142Y-21816D02*
X29166Y-21813D01*
X29190Y-21805D01*
X29201Y-21799D01*
X29212Y-21791D01*
X29224Y-21781D01*
X29237Y-21767D01*
X29249Y-21747D01*
X29258Y-21723D01*
X29259Y-21716D01*
X29261Y-21700D01*
X29261Y-21682D01*
X29259Y-21667D01*
X29252Y-21647D01*
X29241Y-21625D01*
X29226Y-21607D01*
X29224Y-21604D01*
X29212Y-21595D01*
X29199Y-21586D01*
X29186Y-21580D01*
X29182Y-21578D01*
X29172Y-21575D01*
X29162Y-21572D01*
X29155Y-21571D01*
X29151Y-21571D01*
X29155Y-21570D01*
X29161Y-21568D01*
X29169Y-21566D01*
X29178Y-21564D01*
X29196Y-21555D01*
X29214Y-21544D01*
X29229Y-21531D01*
X29231Y-21528D01*
X29246Y-21507D01*
X29256Y-21483D01*
X29261Y-21459D01*
X29261Y-21434D01*
X29260Y-21428D01*
X29253Y-21403D01*
X29242Y-21381D01*
X29225Y-21360D01*
X29210Y-21347D01*
X29189Y-21335D01*
X29165Y-21327D01*
X29160Y-21326D01*
X29143Y-21324D01*
X29126Y-21325D01*
X29110Y-21327D01*
X29096Y-21332D01*
X29074Y-21343D01*
X29054Y-21358D01*
X29038Y-21376D01*
X29025Y-21398D01*
X29018Y-21421D01*
X29017Y-21424D01*
X29016Y-21430D01*
X29014Y-21432D01*
X29014Y-21430D01*
X29013Y-21424D01*
X29011Y-21414D01*
X29007Y-21403D01*
X29003Y-21393D01*
X28999Y-21386D01*
X28984Y-21365D01*
X28965Y-21348D01*
X28943Y-21335D01*
X28919Y-21327D01*
X28893Y-21324D01*
X28873Y-21326D01*
X28850Y-21332D01*
X28828Y-21342D01*
X28815Y-21351D01*
X28797Y-21369D01*
X28784Y-21390D01*
X28774Y-21413D01*
X28769Y-21437D01*
X28770Y-21461D01*
X28775Y-21484D01*
X28785Y-21508D01*
X28800Y-21529D01*
X28819Y-21546D01*
X28841Y-21559D01*
X28866Y-21568D01*
X28880Y-21571D01*
X28872Y-21572D01*
X28867Y-21573D01*
X28847Y-21579D01*
X28828Y-21589D01*
X28810Y-21602D01*
X28796Y-21617D01*
X28787Y-21630D01*
X28778Y-21647D01*
X28773Y-21663D01*
X28770Y-21676D01*
X28769Y-21692D01*
X28770Y-21707D01*
X28772Y-21720D01*
X28776Y-21735D01*
X28788Y-21758D01*
X28803Y-21779D01*
X28823Y-21795D01*
X28846Y-21807D01*
X28871Y-21815D01*
X28878Y-21816D01*
X28893Y-21816D01*
X28909Y-21815D01*
X28923Y-21813D01*
X28933Y-21810D01*
X28956Y-21798D01*
X28976Y-21783D01*
X28993Y-21764D01*
X29005Y-21742D01*
X29013Y-21718D01*
X29013Y-21716D01*
X29015Y-21710D01*
X29016Y-21711D01*
X29016Y-21677D01*
X29015Y-21676D01*
X29013Y-21671D01*
X29013Y-21670D01*
X29009Y-21653D01*
X29001Y-21636D01*
X28991Y-21620D01*
X28984Y-21611D01*
X28964Y-21593D01*
X28942Y-21581D01*
X28917Y-21573D01*
X28905Y-21570D01*
X28914Y-21569D01*
X28921Y-21567D01*
X28929Y-21565D01*
X28934Y-21563D01*
X28956Y-21552D01*
X28976Y-21537D01*
X28993Y-21518D01*
X29005Y-21497D01*
X29013Y-21473D01*
X29014Y-21467D01*
X29015Y-21464D01*
X29016Y-21466D01*
X29018Y-21474D01*
X29018Y-21474D01*
X29022Y-21487D01*
X29028Y-21502D01*
X29036Y-21515D01*
X29042Y-21523D01*
X29053Y-21535D01*
X29065Y-21546D01*
X29077Y-21554D01*
X29078Y-21555D01*
X29097Y-21563D01*
X29117Y-21569D01*
X29125Y-21570D01*
X29116Y-21572D01*
X29094Y-21578D01*
X29072Y-21590D01*
X29052Y-21605D01*
X29037Y-21624D01*
X29033Y-21630D01*
X29027Y-21642D01*
X29022Y-21654D01*
X29018Y-21666D01*
X29017Y-21674D01*
X29017Y-21674D01*
X29016Y-21677D01*
X29016Y-21711D01*
X29016Y-21711D01*
X29017Y-21716D01*
X29019Y-21723D01*
X29021Y-21731D01*
X29026Y-21744D01*
X29038Y-21765D01*
X29055Y-21783D01*
X29074Y-21798D01*
X29095Y-21808D01*
X29118Y-21815D01*
X29142Y-21816D01*
X29142Y-21816D01*
G37*
G36*
X29882Y-21816D02*
X29906Y-21813D01*
X29929Y-21804D01*
X29950Y-21791D01*
X29968Y-21775D01*
X29983Y-21754D01*
X29993Y-21731D01*
X29995Y-21723D01*
X29997Y-21716D01*
X29997Y-21715D01*
X29998Y-21710D01*
X29998Y-21710D01*
X29998Y-21676D01*
X29997Y-21673D01*
X29995Y-21664D01*
X29991Y-21650D01*
X29980Y-21628D01*
X29965Y-21609D01*
X29946Y-21593D01*
X29924Y-21580D01*
X29900Y-21573D01*
X29889Y-21570D01*
X29897Y-21569D01*
X29898Y-21568D01*
X29918Y-21563D01*
X29937Y-21554D01*
X29945Y-21549D01*
X29957Y-21539D01*
X29969Y-21527D01*
X29978Y-21515D01*
X29985Y-21504D01*
X29992Y-21489D01*
X29996Y-21474D01*
X29997Y-21467D01*
X29999Y-21464D01*
X30000Y-21466D01*
X30001Y-21473D01*
X30006Y-21489D01*
X30017Y-21512D01*
X30033Y-21533D01*
X30052Y-21549D01*
X30075Y-21561D01*
X30100Y-21569D01*
X30109Y-21570D01*
X30097Y-21573D01*
X30086Y-21576D01*
X30062Y-21586D01*
X30041Y-21601D01*
X30023Y-21620D01*
X30018Y-21627D01*
X30012Y-21638D01*
X30006Y-21651D01*
X30003Y-21660D01*
X30001Y-21670D01*
X30001Y-21670D01*
X29999Y-21675D01*
X29998Y-21676D01*
X29998Y-21710D01*
X29999Y-21711D01*
X30001Y-21717D01*
X30003Y-21726D01*
X30010Y-21744D01*
X30020Y-21762D01*
X30027Y-21771D01*
X30045Y-21790D01*
X30067Y-21803D01*
X30092Y-21813D01*
X30102Y-21815D01*
X30120Y-21816D01*
X30137Y-21815D01*
X30152Y-21813D01*
X30154Y-21812D01*
X30178Y-21803D01*
X30200Y-21788D01*
X30218Y-21770D01*
X30232Y-21748D01*
X30241Y-21724D01*
X30243Y-21712D01*
X30245Y-21695D01*
X30244Y-21678D01*
X30241Y-21663D01*
X30237Y-21650D01*
X30228Y-21632D01*
X30218Y-21617D01*
X30207Y-21605D01*
X30192Y-21593D01*
X30176Y-21583D01*
X30170Y-21580D01*
X30159Y-21576D01*
X30147Y-21573D01*
X30138Y-21571D01*
X30138Y-21571D01*
X30140Y-21570D01*
X30148Y-21568D01*
X30162Y-21563D01*
X30178Y-21557D01*
X30191Y-21549D01*
X30194Y-21547D01*
X30210Y-21533D01*
X30224Y-21515D01*
X30235Y-21497D01*
X30238Y-21488D01*
X30244Y-21463D01*
X30245Y-21438D01*
X30240Y-21413D01*
X30239Y-21408D01*
X30228Y-21385D01*
X30213Y-21365D01*
X30194Y-21348D01*
X30172Y-21335D01*
X30148Y-21327D01*
X30144Y-21326D01*
X30128Y-21324D01*
X30109Y-21325D01*
X30093Y-21327D01*
X30090Y-21328D01*
X30065Y-21338D01*
X30043Y-21352D01*
X30025Y-21371D01*
X30011Y-21393D01*
X30008Y-21400D01*
X30004Y-21411D01*
X30001Y-21422D01*
X30000Y-21430D01*
X30000Y-21431D01*
X29999Y-21432D01*
X29998Y-21429D01*
X29996Y-21422D01*
X29992Y-21405D01*
X29981Y-21383D01*
X29966Y-21364D01*
X29948Y-21348D01*
X29926Y-21335D01*
X29926Y-21335D01*
X29903Y-21327D01*
X29879Y-21324D01*
X29854Y-21326D01*
X29831Y-21333D01*
X29817Y-21339D01*
X29796Y-21354D01*
X29778Y-21372D01*
X29765Y-21393D01*
X29756Y-21417D01*
X29755Y-21422D01*
X29752Y-21442D01*
X29753Y-21461D01*
X29758Y-21484D01*
X29769Y-21508D01*
X29783Y-21528D01*
X29802Y-21546D01*
X29824Y-21559D01*
X29850Y-21568D01*
X29855Y-21569D01*
X29859Y-21571D01*
X29859Y-21571D01*
X29852Y-21572D01*
X29838Y-21576D01*
X29822Y-21583D01*
X29808Y-21591D01*
X29794Y-21601D01*
X29777Y-21620D01*
X29764Y-21642D01*
X29762Y-21646D01*
X29755Y-21670D01*
X29753Y-21695D01*
X29756Y-21721D01*
X29764Y-21744D01*
X29769Y-21756D01*
X29777Y-21767D01*
X29787Y-21779D01*
X29788Y-21779D01*
X29808Y-21796D01*
X29830Y-21808D01*
X29855Y-21815D01*
X29857Y-21815D01*
X29882Y-21816D01*
X29882Y-21816D01*
G37*
G36*
X28931Y-27695D02*
X28941Y-27689D01*
X28964Y-27675D01*
X28997Y-27653D01*
X29036Y-27627D01*
X29075Y-27601D01*
X29107Y-27580D01*
X29129Y-27565D01*
X29139Y-27560D01*
X29144Y-27562D01*
X29162Y-27571D01*
X29189Y-27585D01*
X29205Y-27593D01*
X29229Y-27603D01*
X29242Y-27606D01*
X29244Y-27602D01*
X29253Y-27583D01*
X29267Y-27551D01*
X29285Y-27508D01*
X29307Y-27458D01*
X29329Y-27405D01*
X29352Y-27350D01*
X29374Y-27297D01*
X29393Y-27250D01*
X29409Y-27212D01*
X29419Y-27185D01*
X29423Y-27174D01*
X29422Y-27171D01*
X29409Y-27159D01*
X29388Y-27143D01*
X29341Y-27105D01*
X29295Y-27048D01*
X29267Y-26983D01*
X29258Y-26910D01*
X29266Y-26843D01*
X29292Y-26779D01*
X29337Y-26721D01*
X29392Y-26678D01*
X29456Y-26651D01*
X29527Y-26642D01*
X29595Y-26650D01*
X29661Y-26676D01*
X29719Y-26720D01*
X29744Y-26748D01*
X29778Y-26807D01*
X29797Y-26869D01*
X29799Y-26885D01*
X29796Y-26954D01*
X29776Y-27021D01*
X29739Y-27080D01*
X29688Y-27129D01*
X29682Y-27133D01*
X29659Y-27151D01*
X29643Y-27163D01*
X29631Y-27173D01*
X29719Y-27385D01*
X29733Y-27418D01*
X29757Y-27476D01*
X29778Y-27526D01*
X29795Y-27566D01*
X29807Y-27592D01*
X29812Y-27603D01*
X29812Y-27604D01*
X29820Y-27605D01*
X29836Y-27599D01*
X29866Y-27585D01*
X29885Y-27575D01*
X29908Y-27564D01*
X29918Y-27560D01*
X29927Y-27565D01*
X29948Y-27579D01*
X29980Y-27600D01*
X30018Y-27625D01*
X30054Y-27650D01*
X30087Y-27672D01*
X30111Y-27687D01*
X30123Y-27694D01*
X30125Y-27694D01*
X30135Y-27688D01*
X30154Y-27672D01*
X30183Y-27645D01*
X30224Y-27604D01*
X30230Y-27598D01*
X30264Y-27564D01*
X30291Y-27535D01*
X30309Y-27515D01*
X30316Y-27506D01*
X30316Y-27506D01*
X30310Y-27494D01*
X30295Y-27470D01*
X30273Y-27436D01*
X30246Y-27397D01*
X30176Y-27295D01*
X30214Y-27199D01*
X30226Y-27169D01*
X30241Y-27134D01*
X30252Y-27108D01*
X30258Y-27097D01*
X30268Y-27093D01*
X30295Y-27087D01*
X30333Y-27079D01*
X30378Y-27071D01*
X30422Y-27063D01*
X30461Y-27055D01*
X30489Y-27050D01*
X30502Y-27047D01*
X30505Y-27045D01*
X30508Y-27039D01*
X30509Y-27026D01*
X30510Y-27002D01*
X30511Y-26965D01*
X30511Y-26910D01*
X30511Y-26904D01*
X30510Y-26853D01*
X30509Y-26811D01*
X30508Y-26785D01*
X30506Y-26774D01*
X30506Y-26774D01*
X30494Y-26771D01*
X30466Y-26765D01*
X30427Y-26758D01*
X30380Y-26749D01*
X30377Y-26748D01*
X30331Y-26739D01*
X30292Y-26731D01*
X30264Y-26725D01*
X30253Y-26721D01*
X30250Y-26718D01*
X30241Y-26700D01*
X30228Y-26671D01*
X30212Y-26636D01*
X30197Y-26599D01*
X30184Y-26566D01*
X30175Y-26542D01*
X30172Y-26531D01*
X30173Y-26530D01*
X30180Y-26519D01*
X30196Y-26495D01*
X30218Y-26462D01*
X30245Y-26422D01*
X30247Y-26419D01*
X30274Y-26380D01*
X30296Y-26346D01*
X30310Y-26323D01*
X30316Y-26312D01*
X30316Y-26311D01*
X30307Y-26299D01*
X30287Y-26277D01*
X30258Y-26247D01*
X30224Y-26212D01*
X30213Y-26202D01*
X30174Y-26164D01*
X30148Y-26140D01*
X30131Y-26127D01*
X30123Y-26124D01*
X30123Y-26124D01*
X30111Y-26131D01*
X30086Y-26147D01*
X30053Y-26170D01*
X30013Y-26197D01*
X30010Y-26199D01*
X29971Y-26226D01*
X29938Y-26248D01*
X29915Y-26264D01*
X29904Y-26270D01*
X29903Y-26270D01*
X29887Y-26265D01*
X29859Y-26255D01*
X29824Y-26242D01*
X29788Y-26227D01*
X29755Y-26213D01*
X29730Y-26202D01*
X29718Y-26195D01*
X29718Y-26195D01*
X29714Y-26181D01*
X29707Y-26151D01*
X29699Y-26111D01*
X29689Y-26063D01*
X29688Y-26055D01*
X29679Y-26008D01*
X29672Y-25969D01*
X29666Y-25942D01*
X29663Y-25931D01*
X29657Y-25930D01*
X29634Y-25928D01*
X29599Y-25927D01*
X29556Y-25927D01*
X29512Y-25927D01*
X29469Y-25928D01*
X29432Y-25929D01*
X29405Y-25931D01*
X29394Y-25933D01*
X29394Y-25934D01*
X29390Y-25949D01*
X29383Y-25978D01*
X29375Y-26019D01*
X29366Y-26067D01*
X29364Y-26076D01*
X29355Y-26122D01*
X29347Y-26161D01*
X29342Y-26187D01*
X29339Y-26198D01*
X29334Y-26200D01*
X29315Y-26208D01*
X29284Y-26221D01*
X29245Y-26237D01*
X29155Y-26273D01*
X29044Y-26198D01*
X29034Y-26191D01*
X28994Y-26164D01*
X28962Y-26142D01*
X28939Y-26127D01*
X28930Y-26122D01*
X28929Y-26122D01*
X28918Y-26132D01*
X28896Y-26153D01*
X28866Y-26182D01*
X28831Y-26216D01*
X28806Y-26242D01*
X28775Y-26273D01*
X28756Y-26294D01*
X28745Y-26307D01*
X28742Y-26315D01*
X28743Y-26321D01*
X28750Y-26332D01*
X28766Y-26356D01*
X28789Y-26390D01*
X28816Y-26429D01*
X28838Y-26462D01*
X28862Y-26499D01*
X28877Y-26525D01*
X28883Y-26538D01*
X28881Y-26543D01*
X28874Y-26565D01*
X28860Y-26598D01*
X28844Y-26637D01*
X28805Y-26724D01*
X28748Y-26735D01*
X28713Y-26742D01*
X28665Y-26751D01*
X28618Y-26760D01*
X28546Y-26774D01*
X28543Y-27040D01*
X28554Y-27045D01*
X28565Y-27048D01*
X28592Y-27054D01*
X28630Y-27062D01*
X28676Y-27070D01*
X28714Y-27077D01*
X28753Y-27085D01*
X28781Y-27090D01*
X28793Y-27093D01*
X28797Y-27097D01*
X28806Y-27116D01*
X28820Y-27146D01*
X28836Y-27182D01*
X28851Y-27219D01*
X28865Y-27254D01*
X28874Y-27280D01*
X28878Y-27293D01*
X28873Y-27304D01*
X28858Y-27327D01*
X28837Y-27359D01*
X28810Y-27398D01*
X28784Y-27436D01*
X28761Y-27469D01*
X28746Y-27493D01*
X28739Y-27504D01*
X28743Y-27511D01*
X28758Y-27530D01*
X28787Y-27560D01*
X28831Y-27603D01*
X28838Y-27610D01*
X28872Y-27643D01*
X28901Y-27670D01*
X28922Y-27688D01*
X28931Y-27695D01*
X28931Y-27695D01*
G37*
%LPC*%
G54D15*
X28937Y-25000D03*
X28937Y-23818D03*
X30118Y-23818D03*
X30118Y-25000D03*
M02*
