G04 (created by PCBNEW (2013-09-13 BZR 4316)-product) date Sat 14 Sep 2013 07:06:41 PM CEST*
%MOIN*%
G04 Gerber Fmt 3.4, Leading zero omitted, Abs format*
%FSLAX34Y34*%
G01*
G70*
G90*
G04 APERTURE LIST*
%ADD10C,0.005906*%
%ADD11C,0.078740*%
%ADD12C,0.035000*%
%ADD13C,0.024000*%
G04 APERTURE END LIST*
G54D10*
G54D11*
X28937Y-25000D03*
X28937Y-23818D03*
X30118Y-23818D03*
X30118Y-25000D03*
G54D12*
X26338Y-24389D03*
X32696Y-24389D03*
G54D13*
X28937Y-23818D02*
X28937Y-25000D01*
X30393Y-22834D02*
X30590Y-22952D01*
X31299Y-24389D02*
X31299Y-24074D01*
X31259Y-23858D02*
X31299Y-24074D01*
X31181Y-23661D02*
X31259Y-23858D01*
X31062Y-23425D02*
X31181Y-23661D01*
X30846Y-23169D02*
X31062Y-23425D01*
X29763Y-22618D02*
X30019Y-22677D01*
X29409Y-22598D02*
X29586Y-22598D01*
X29586Y-22598D02*
X29763Y-22618D01*
X27834Y-23759D02*
X28051Y-23346D01*
X28287Y-23090D02*
X28484Y-22913D01*
X28484Y-22913D02*
X28700Y-22795D01*
X28700Y-22795D02*
X28976Y-22677D01*
X28976Y-22677D02*
X29232Y-22618D01*
X26338Y-24389D02*
X27716Y-24389D01*
X27716Y-24192D02*
X27716Y-24389D01*
X27736Y-24035D02*
X27834Y-23759D01*
X27736Y-24035D02*
X27716Y-24192D01*
X28051Y-23346D02*
X28287Y-23090D01*
X29232Y-22618D02*
X29409Y-22598D01*
X30019Y-22677D02*
X30177Y-22736D01*
X30177Y-22736D02*
X30393Y-22834D01*
X30590Y-22952D02*
X30846Y-23169D01*
X30118Y-24389D02*
X31299Y-24389D01*
X31299Y-24389D02*
X32696Y-24389D01*
X30118Y-23818D02*
X30118Y-24389D01*
X30118Y-24389D02*
X30118Y-25000D01*
M02*
