M48
METRIC,TZ
T1C0.330
T2C0.350
T3C0.406
T4C1.200
%
G90
G05
T1
X068550Y-064050
X068750Y-061500
X069050Y-058950
X070300Y-064500
X070421Y-065907
X070450Y-061300
X071093Y-057421
X071950Y-067950
X072300Y-057050
X072500Y-062550
X072950Y-055600
X073700Y-066800
X074525Y-068000
X075475Y-056000
X075560Y-063290
X076659Y-056562
X076950Y-068350
X077500Y-062190
X077650Y-067000
X078100Y-056050
X078907Y-066579
X079950Y-059350
X080000Y-058200
X080300Y-063600
X080900Y-065100
X081000Y-062475
X081350Y-060000
T2
X075000Y-061365
X075000Y-062635
T3
X074600Y-060400
X083000Y-062000
T4
X072500Y-059500
X072500Y-064500
X077500Y-059500
X077500Y-064500
T0
M30
