G04 (created by PCBNEW (2013-09-24 BZR 4347)-product) date Wed 25 Sep 2013 05:43:51 PM CEST*
%MOIN*%
G04 Gerber Fmt 3.4, Leading zero omitted, Abs format*
%FSLAX34Y34*%
G01*
G70*
G90*
G04 APERTURE LIST*
%ADD10C,0.005906*%
%ADD11R,0.021654X0.025591*%
%ADD12R,0.029528X0.029528*%
%ADD13C,0.029528*%
%ADD14C,0.078740*%
%ADD15R,0.047244X0.023622*%
%ADD16R,0.023622X0.047244*%
G04 APERTURE END LIST*
G54D10*
G54D11*
X28019Y-24720D03*
X28413Y-24720D03*
X28216Y-24129D03*
G54D12*
X29027Y-24659D03*
G54D13*
X29027Y-24159D03*
X29527Y-24659D03*
X29527Y-24159D03*
X30027Y-24659D03*
X30027Y-24159D03*
G54D14*
X28543Y-25393D03*
X28543Y-23425D03*
X30511Y-23425D03*
X30511Y-25393D03*
G54D15*
X32677Y-24222D03*
X31889Y-24222D03*
X32677Y-24596D03*
X31889Y-24596D03*
G54D16*
X29714Y-27559D03*
X29714Y-26771D03*
X29340Y-27559D03*
X29340Y-26771D03*
G54D15*
X26377Y-24596D03*
X27165Y-24596D03*
X26377Y-24222D03*
X27165Y-24222D03*
G54D10*
G36*
X27418Y-22397D02*
X27251Y-22565D01*
X26917Y-22230D01*
X27084Y-22063D01*
X27418Y-22397D01*
X27418Y-22397D01*
G37*
G36*
X27975Y-22954D02*
X27808Y-23121D01*
X27474Y-22787D01*
X27641Y-22620D01*
X27975Y-22954D01*
X27975Y-22954D01*
G37*
G36*
X27683Y-22133D02*
X27516Y-22300D01*
X27182Y-21966D01*
X27349Y-21799D01*
X27683Y-22133D01*
X27683Y-22133D01*
G37*
G36*
X28239Y-22690D02*
X28072Y-22857D01*
X27738Y-22523D01*
X27905Y-22356D01*
X28239Y-22690D01*
X28239Y-22690D01*
G37*
G36*
X31539Y-22300D02*
X31371Y-22133D01*
X31706Y-21799D01*
X31873Y-21966D01*
X31539Y-22300D01*
X31539Y-22300D01*
G37*
G36*
X30982Y-22857D02*
X30815Y-22690D01*
X31149Y-22356D01*
X31316Y-22523D01*
X30982Y-22857D01*
X30982Y-22857D01*
G37*
G36*
X31803Y-22565D02*
X31636Y-22397D01*
X31970Y-22063D01*
X32137Y-22230D01*
X31803Y-22565D01*
X31803Y-22565D01*
G37*
G36*
X31246Y-23121D02*
X31079Y-22954D01*
X31413Y-22620D01*
X31580Y-22787D01*
X31246Y-23121D01*
X31246Y-23121D01*
G37*
G36*
X31636Y-26420D02*
X31803Y-26253D01*
X32137Y-26587D01*
X31970Y-26754D01*
X31636Y-26420D01*
X31636Y-26420D01*
G37*
G36*
X31079Y-25864D02*
X31246Y-25697D01*
X31580Y-26031D01*
X31413Y-26198D01*
X31079Y-25864D01*
X31079Y-25864D01*
G37*
G36*
X31371Y-26685D02*
X31539Y-26518D01*
X31873Y-26852D01*
X31706Y-27019D01*
X31371Y-26685D01*
X31371Y-26685D01*
G37*
G36*
X30815Y-26128D02*
X30982Y-25961D01*
X31316Y-26295D01*
X31149Y-26462D01*
X30815Y-26128D01*
X30815Y-26128D01*
G37*
G36*
X27516Y-26518D02*
X27683Y-26685D01*
X27349Y-27019D01*
X27182Y-26852D01*
X27516Y-26518D01*
X27516Y-26518D01*
G37*
G36*
X28072Y-25961D02*
X28239Y-26128D01*
X27905Y-26462D01*
X27738Y-26295D01*
X28072Y-25961D01*
X28072Y-25961D01*
G37*
G36*
X27251Y-26253D02*
X27418Y-26420D01*
X27084Y-26754D01*
X26917Y-26587D01*
X27251Y-26253D01*
X27251Y-26253D01*
G37*
G36*
X27808Y-25697D02*
X27975Y-25864D01*
X27641Y-26198D01*
X27474Y-26031D01*
X27808Y-25697D01*
X27808Y-25697D01*
G37*
G36*
X30694Y-22615D02*
X30403Y-22494D01*
X30493Y-22276D01*
X30784Y-22396D01*
X30694Y-22615D01*
X30694Y-22615D01*
G37*
G36*
X30844Y-22251D02*
X30553Y-22130D01*
X30644Y-21912D01*
X30935Y-22033D01*
X30844Y-22251D01*
X30844Y-22251D01*
G37*
G36*
X31442Y-23553D02*
X31321Y-23262D01*
X31540Y-23172D01*
X31660Y-23463D01*
X31442Y-23553D01*
X31442Y-23553D01*
G37*
G36*
X31806Y-23402D02*
X31685Y-23111D01*
X31903Y-23021D01*
X32024Y-23312D01*
X31806Y-23402D01*
X31806Y-23402D01*
G37*
G36*
X31499Y-25162D02*
X31619Y-24871D01*
X31837Y-24962D01*
X31717Y-25253D01*
X31499Y-25162D01*
X31499Y-25162D01*
G37*
G36*
X31862Y-25313D02*
X31983Y-25022D01*
X32201Y-25112D01*
X32081Y-25403D01*
X31862Y-25313D01*
X31862Y-25313D01*
G37*
G36*
X30383Y-26324D02*
X30674Y-26203D01*
X30764Y-26422D01*
X30473Y-26542D01*
X30383Y-26324D01*
X30383Y-26324D01*
G37*
G36*
X30534Y-26688D02*
X30825Y-26567D01*
X30915Y-26785D01*
X30624Y-26906D01*
X30534Y-26688D01*
X30534Y-26688D01*
G37*
G36*
X28793Y-26381D02*
X29084Y-26501D01*
X28994Y-26719D01*
X28703Y-26599D01*
X28793Y-26381D01*
X28793Y-26381D01*
G37*
G36*
X28643Y-26744D02*
X28934Y-26865D01*
X28843Y-27083D01*
X28552Y-26963D01*
X28643Y-26744D01*
X28643Y-26744D01*
G37*
G36*
X27612Y-25285D02*
X27733Y-25576D01*
X27514Y-25666D01*
X27394Y-25375D01*
X27612Y-25285D01*
X27612Y-25285D01*
G37*
G36*
X27248Y-25435D02*
X27369Y-25726D01*
X27151Y-25817D01*
X27030Y-25526D01*
X27248Y-25435D01*
X27248Y-25435D01*
G37*
G36*
X27733Y-23262D02*
X27612Y-23553D01*
X27394Y-23463D01*
X27514Y-23172D01*
X27733Y-23262D01*
X27733Y-23262D01*
G37*
G36*
X27369Y-23111D02*
X27248Y-23402D01*
X27030Y-23312D01*
X27151Y-23021D01*
X27369Y-23111D01*
X27369Y-23111D01*
G37*
G36*
X27555Y-23675D02*
X27435Y-23966D01*
X27217Y-23876D01*
X27337Y-23585D01*
X27555Y-23675D01*
X27555Y-23675D01*
G37*
G36*
X27192Y-23525D02*
X27071Y-23816D01*
X26853Y-23725D01*
X26974Y-23434D01*
X27192Y-23525D01*
X27192Y-23525D01*
G37*
G36*
X28651Y-22494D02*
X28360Y-22615D01*
X28270Y-22396D01*
X28561Y-22276D01*
X28651Y-22494D01*
X28651Y-22494D01*
G37*
G36*
X28501Y-22130D02*
X28210Y-22251D01*
X28119Y-22033D01*
X28410Y-21912D01*
X28501Y-22130D01*
X28501Y-22130D01*
G37*
G54D16*
X29340Y-21259D03*
X29340Y-22047D03*
X29714Y-21259D03*
X29714Y-22047D03*
G54D10*
G36*
X30280Y-22437D02*
X29989Y-22317D01*
X30080Y-22099D01*
X30371Y-22219D01*
X30280Y-22437D01*
X30280Y-22437D01*
G37*
G36*
X30431Y-22074D02*
X30140Y-21953D01*
X30230Y-21735D01*
X30521Y-21855D01*
X30431Y-22074D01*
X30431Y-22074D01*
G37*
G36*
X31619Y-23966D02*
X31499Y-23675D01*
X31717Y-23585D01*
X31837Y-23876D01*
X31619Y-23966D01*
X31619Y-23966D01*
G37*
G36*
X31983Y-23816D02*
X31862Y-23525D01*
X32081Y-23434D01*
X32201Y-23725D01*
X31983Y-23816D01*
X31983Y-23816D01*
G37*
G36*
X31321Y-25576D02*
X31442Y-25285D01*
X31660Y-25375D01*
X31540Y-25666D01*
X31321Y-25576D01*
X31321Y-25576D01*
G37*
G36*
X31685Y-25726D02*
X31806Y-25435D01*
X32024Y-25526D01*
X31903Y-25817D01*
X31685Y-25726D01*
X31685Y-25726D01*
G37*
G36*
X29970Y-26501D02*
X30261Y-26381D01*
X30351Y-26599D01*
X30060Y-26719D01*
X29970Y-26501D01*
X29970Y-26501D01*
G37*
G36*
X30120Y-26865D02*
X30411Y-26744D01*
X30502Y-26963D01*
X30211Y-27083D01*
X30120Y-26865D01*
X30120Y-26865D01*
G37*
G36*
X28380Y-26203D02*
X28671Y-26324D01*
X28581Y-26542D01*
X28290Y-26422D01*
X28380Y-26203D01*
X28380Y-26203D01*
G37*
G36*
X28229Y-26567D02*
X28520Y-26688D01*
X28430Y-26906D01*
X28139Y-26785D01*
X28229Y-26567D01*
X28229Y-26567D01*
G37*
G36*
X27435Y-24871D02*
X27555Y-25162D01*
X27337Y-25253D01*
X27217Y-24962D01*
X27435Y-24871D01*
X27435Y-24871D01*
G37*
G36*
X27071Y-25022D02*
X27192Y-25313D01*
X26974Y-25403D01*
X26853Y-25112D01*
X27071Y-25022D01*
X27071Y-25022D01*
G37*
G36*
X29065Y-22317D02*
X28774Y-22437D01*
X28683Y-22219D01*
X28974Y-22099D01*
X29065Y-22317D01*
X29065Y-22317D01*
G37*
G36*
X28914Y-21953D02*
X28623Y-22074D01*
X28533Y-21855D01*
X28824Y-21735D01*
X28914Y-21953D01*
X28914Y-21953D01*
G37*
M02*
