G04 (created by PCBNEW (2013-09-24 BZR 4347)-product) date Wed 25 Sep 2013 02:02:53 PM CEST*
%MOIN*%
G04 Gerber Fmt 3.4, Leading zero omitted, Abs format*
%FSLAX34Y34*%
G01*
G70*
G90*
G04 APERTURE LIST*
%ADD10C,0.005906*%
%ADD11R,0.059000X0.043307*%
%ADD12C,0.029528*%
%ADD13O,0.039370X0.009843*%
%ADD14R,0.039370X0.009843*%
%ADD15C,0.078740*%
%ADD16C,0.025000*%
%ADD17C,0.035000*%
%ADD18C,0.008000*%
%ADD19C,0.012000*%
%ADD20C,0.024000*%
G04 APERTURE END LIST*
G54D10*
G54D11*
X29527Y-25354D03*
X29527Y-26102D03*
G54D12*
X29527Y-24659D03*
X29527Y-24159D03*
G54D13*
X28937Y-24803D03*
G54D14*
X28937Y-24606D03*
X28937Y-24409D03*
X28937Y-24212D03*
X28937Y-24015D03*
X30118Y-24015D03*
X30118Y-24212D03*
X30118Y-24409D03*
X30118Y-24606D03*
X30118Y-24803D03*
G54D15*
X28543Y-25393D03*
X28543Y-23425D03*
X30511Y-23425D03*
X30511Y-25393D03*
G54D16*
X28543Y-24625D03*
X30570Y-26377D03*
X30180Y-22268D03*
X31476Y-23366D03*
X31614Y-25039D03*
X27677Y-25393D03*
X29015Y-26299D03*
X28464Y-22460D03*
X27736Y-24133D03*
G54D17*
X29370Y-23779D03*
G54D16*
X30511Y-24484D03*
X26822Y-25307D03*
X27610Y-26062D03*
X28645Y-21728D03*
X27917Y-22551D03*
X32023Y-25720D03*
X32031Y-24594D03*
X30822Y-21889D03*
X29708Y-21933D03*
X32224Y-23531D03*
X31444Y-22767D03*
X30393Y-27106D03*
X31165Y-26330D03*
X28236Y-26940D03*
X29338Y-26933D03*
X27066Y-24212D03*
X26988Y-23141D03*
X29748Y-24917D03*
G54D17*
X32677Y-24409D03*
G54D18*
X28562Y-24606D02*
X28937Y-24606D01*
X28543Y-24625D02*
X28562Y-24606D01*
X29055Y-26535D02*
X30413Y-26535D01*
X29015Y-26496D02*
X29055Y-26535D01*
X29015Y-26299D02*
X29015Y-26496D01*
X30413Y-26535D02*
X30570Y-26377D01*
X30551Y-26141D02*
X30551Y-26358D01*
X30551Y-26358D02*
X30570Y-26377D01*
X30551Y-26141D02*
X31614Y-25078D01*
X31614Y-25039D02*
X31614Y-25078D01*
X27736Y-24133D02*
X27736Y-25334D01*
X27736Y-25334D02*
X27677Y-25393D01*
X28464Y-22460D02*
X29988Y-22460D01*
X30516Y-22268D02*
X31476Y-23228D01*
X31476Y-23228D02*
X31476Y-23366D01*
X30180Y-22268D02*
X30516Y-22268D01*
X29988Y-22460D02*
X30180Y-22268D01*
X27755Y-25393D02*
X27677Y-25393D01*
X29015Y-26299D02*
X28700Y-25984D01*
X28700Y-25984D02*
X28346Y-25984D01*
X28346Y-25984D02*
X27755Y-25393D01*
X27736Y-24133D02*
X27736Y-23346D01*
X27736Y-23346D02*
X28464Y-22618D01*
X28464Y-22618D02*
X28464Y-22460D01*
X27814Y-24212D02*
X28937Y-24212D01*
X27736Y-24133D02*
X27814Y-24212D01*
G54D19*
X28543Y-25393D02*
X28562Y-25393D01*
G54D20*
X29271Y-26102D02*
X29527Y-26102D01*
X28562Y-25393D02*
X29271Y-26102D01*
X29527Y-26102D02*
X29803Y-26102D01*
X29803Y-26102D02*
X30511Y-25393D01*
G54D19*
X29370Y-23779D02*
X29055Y-23779D01*
G54D18*
X28937Y-23897D02*
X28937Y-24015D01*
G54D19*
X29055Y-23779D02*
X28937Y-23897D01*
G54D18*
X30417Y-24212D02*
X30118Y-24212D01*
X30515Y-24311D02*
X30417Y-24212D01*
X30515Y-24480D02*
X30515Y-24311D01*
X30511Y-24484D02*
X30515Y-24480D01*
X29527Y-24159D02*
X29527Y-24145D01*
X29657Y-24015D02*
X30118Y-24015D01*
X29527Y-24145D02*
X29657Y-24015D01*
X26854Y-25307D02*
X26822Y-25307D01*
X27610Y-26062D02*
X26854Y-25307D01*
X28645Y-21822D02*
X28645Y-21728D01*
X27917Y-22551D02*
X28645Y-21822D01*
X32023Y-24602D02*
X32023Y-25720D01*
X32031Y-24594D02*
X32023Y-24602D01*
X29751Y-21889D02*
X30822Y-21889D01*
X29708Y-21933D02*
X29751Y-21889D01*
X32208Y-23531D02*
X32224Y-23531D01*
X31444Y-22767D02*
X32208Y-23531D01*
X30393Y-27102D02*
X30393Y-27106D01*
X31165Y-26330D02*
X30393Y-27102D01*
X29330Y-26940D02*
X28236Y-26940D01*
X29338Y-26933D02*
X29330Y-26940D01*
X26909Y-23484D02*
X26909Y-23220D01*
X27066Y-23976D02*
X26909Y-23818D01*
X26909Y-23818D02*
X26909Y-23484D01*
X27066Y-24212D02*
X27066Y-23976D01*
X26909Y-23220D02*
X26988Y-23141D01*
X28937Y-24803D02*
X29185Y-24803D01*
X29708Y-24956D02*
X29748Y-24917D01*
X29338Y-24956D02*
X29708Y-24956D01*
X29185Y-24803D02*
X29338Y-24956D01*
X29527Y-24659D02*
X29761Y-24659D01*
X29814Y-24606D02*
X30118Y-24606D01*
X29761Y-24659D02*
X29814Y-24606D01*
G54D20*
X30866Y-24232D02*
X32500Y-24232D01*
X32500Y-24232D02*
X32677Y-24409D01*
G54D19*
X30118Y-24803D02*
X30118Y-24960D01*
X29724Y-25354D02*
X29527Y-25354D01*
X30118Y-24960D02*
X29724Y-25354D01*
X29704Y-25354D02*
X29527Y-25354D01*
G54D20*
X30350Y-23263D02*
X28704Y-23263D01*
X28704Y-23263D02*
X28543Y-23425D01*
X30350Y-23263D02*
X30511Y-23425D01*
G54D19*
X30118Y-24803D02*
X30629Y-24803D01*
G54D20*
X30866Y-23779D02*
X30511Y-23425D01*
G54D19*
X30866Y-24566D02*
X30866Y-24232D01*
G54D20*
X30866Y-24232D02*
X30866Y-23779D01*
G54D19*
X30629Y-24803D02*
X30866Y-24566D01*
M02*
