G04 #@! TF.FileFunction,Soldermask,Top*
%FSLAX46Y46*%
G04 Gerber Fmt 4.6, Leading zero omitted, Abs format (unit mm)*
G04 Created by KiCad (PCBNEW (2016-04-07 BZR 6673, Git 973786d)-product) date Fri 08 Apr 2016 06:49:24 PM CEST*
%MOMM*%
G01*
G04 APERTURE LIST*
%ADD10C,0.150000*%
%ADD11C,2.000000*%
%ADD12C,0.850000*%
%ADD13R,1.500000X1.200000*%
%ADD14R,1.200000X1.500000*%
G04 APERTURE END LIST*
D10*
D11*
X77500000Y-64500000D03*
X77500000Y-59500000D03*
X72500000Y-59500000D03*
X72500000Y-64500000D03*
D12*
X73730000Y-62635000D03*
X73730000Y-61365000D03*
X75000000Y-62635000D03*
X75000000Y-61365000D03*
X76270000Y-62635000D03*
D10*
G36*
X76579997Y-60940614D02*
X76592374Y-60942450D01*
X76604511Y-60945490D01*
X76616292Y-60949705D01*
X76627603Y-60955055D01*
X76638335Y-60961488D01*
X76648385Y-60968941D01*
X76657656Y-60977344D01*
X76666059Y-60986615D01*
X76673512Y-60996665D01*
X76679945Y-61007397D01*
X76685295Y-61018708D01*
X76689510Y-61030489D01*
X76692550Y-61042626D01*
X76694386Y-61055003D01*
X76695000Y-61067500D01*
X76695000Y-61662500D01*
X76694386Y-61674997D01*
X76692550Y-61687374D01*
X76689510Y-61699511D01*
X76685295Y-61711292D01*
X76679945Y-61722603D01*
X76673512Y-61733335D01*
X76666059Y-61743385D01*
X76657656Y-61752656D01*
X76648385Y-61761059D01*
X76638335Y-61768512D01*
X76627603Y-61774945D01*
X76616292Y-61780295D01*
X76604511Y-61784510D01*
X76592374Y-61787550D01*
X76579997Y-61789386D01*
X76567500Y-61790000D01*
X75972500Y-61790000D01*
X75960003Y-61789386D01*
X75947626Y-61787550D01*
X75935489Y-61784510D01*
X75923708Y-61780295D01*
X75912397Y-61774945D01*
X75901665Y-61768512D01*
X75891615Y-61761059D01*
X75882344Y-61752656D01*
X75873941Y-61743385D01*
X75866488Y-61733335D01*
X75860055Y-61722603D01*
X75854705Y-61711292D01*
X75850490Y-61699511D01*
X75847450Y-61687374D01*
X75845614Y-61674997D01*
X75845000Y-61662500D01*
X75845000Y-61067500D01*
X75845614Y-61055003D01*
X75847450Y-61042626D01*
X75850490Y-61030489D01*
X75854705Y-61018708D01*
X75860055Y-61007397D01*
X75866488Y-60996665D01*
X75873941Y-60986615D01*
X75882344Y-60977344D01*
X75891615Y-60968941D01*
X75901665Y-60961488D01*
X75912397Y-60955055D01*
X75923708Y-60949705D01*
X75935489Y-60945490D01*
X75947626Y-60942450D01*
X75960003Y-60940614D01*
X75972500Y-60940000D01*
X76567500Y-60940000D01*
X76579997Y-60940614D01*
X76579997Y-60940614D01*
G37*
G36*
X72678813Y-57542734D02*
X72373600Y-56805885D01*
X73110449Y-56500672D01*
X73415662Y-57237521D01*
X72678813Y-57542734D01*
X72678813Y-57542734D01*
G37*
G36*
X72105323Y-56158208D02*
X71800110Y-55421359D01*
X72536959Y-55116146D01*
X72842172Y-55852995D01*
X72105323Y-56158208D01*
X72105323Y-56158208D01*
G37*
G36*
X70243261Y-60481803D02*
X69506412Y-60176590D01*
X69811625Y-59439741D01*
X70548474Y-59744954D01*
X70243261Y-60481803D01*
X70243261Y-60481803D01*
G37*
G36*
X68858735Y-59908314D02*
X68121886Y-59603101D01*
X68427099Y-58866252D01*
X69163948Y-59171465D01*
X68858735Y-59908314D01*
X68858735Y-59908314D01*
G37*
G36*
X70532734Y-64291187D02*
X69795885Y-64596400D01*
X69490672Y-63859551D01*
X70227521Y-63554338D01*
X70532734Y-64291187D01*
X70532734Y-64291187D01*
G37*
G36*
X69148208Y-64864677D02*
X68411359Y-65169890D01*
X68106146Y-64433041D01*
X68842995Y-64127828D01*
X69148208Y-64864677D01*
X69148208Y-64864677D01*
G37*
G36*
X73461803Y-66786739D02*
X73156590Y-67523588D01*
X72419741Y-67218375D01*
X72724954Y-66481526D01*
X73461803Y-66786739D01*
X73461803Y-66786739D01*
G37*
G36*
X72888314Y-68171265D02*
X72583101Y-68908114D01*
X71846252Y-68602901D01*
X72151465Y-67866052D01*
X72888314Y-68171265D01*
X72888314Y-68171265D01*
G37*
G36*
X77271187Y-66447266D02*
X77576400Y-67184115D01*
X76839551Y-67489328D01*
X76534338Y-66752479D01*
X77271187Y-66447266D01*
X77271187Y-66447266D01*
G37*
G36*
X77844677Y-67831792D02*
X78149890Y-68568641D01*
X77413041Y-68873854D01*
X77107828Y-68137005D01*
X77844677Y-67831792D01*
X77844677Y-67831792D01*
G37*
G36*
X79716739Y-63548197D02*
X80453588Y-63853410D01*
X80148375Y-64590259D01*
X79411526Y-64285046D01*
X79716739Y-63548197D01*
X79716739Y-63548197D01*
G37*
G36*
X81101265Y-64121686D02*
X81838114Y-64426899D01*
X81532901Y-65163748D01*
X80796052Y-64858535D01*
X81101265Y-64121686D01*
X81101265Y-64121686D01*
G37*
G36*
X76568197Y-57263261D02*
X76873410Y-56526412D01*
X77610259Y-56831625D01*
X77305046Y-57568474D01*
X76568197Y-57263261D01*
X76568197Y-57263261D01*
G37*
G36*
X77141686Y-55878735D02*
X77446899Y-55141886D01*
X78183748Y-55447099D01*
X77878535Y-56183948D01*
X77141686Y-55878735D01*
X77141686Y-55878735D01*
G37*
G36*
X79507266Y-59738813D02*
X80244115Y-59433600D01*
X80549328Y-60170449D01*
X79812479Y-60475662D01*
X79507266Y-59738813D01*
X79507266Y-59738813D01*
G37*
G36*
X80891792Y-59165323D02*
X81628641Y-58860110D01*
X81933854Y-59596959D01*
X81197005Y-59902172D01*
X80891792Y-59165323D01*
X80891792Y-59165323D01*
G37*
G36*
X78253637Y-66314297D02*
X79314297Y-65253637D01*
X80162825Y-66102165D01*
X79102165Y-67162825D01*
X78253637Y-66314297D01*
X78253637Y-66314297D01*
G37*
G36*
X79737175Y-67797835D02*
X80797835Y-66737175D01*
X81646363Y-67585703D01*
X80585703Y-68646363D01*
X79737175Y-67797835D01*
X79737175Y-67797835D01*
G37*
D13*
X75000000Y-67950980D03*
X75000000Y-70049020D03*
D10*
G36*
X70685703Y-65253637D02*
X71746363Y-66314297D01*
X70897835Y-67162825D01*
X69837175Y-66102165D01*
X70685703Y-65253637D01*
X70685703Y-65253637D01*
G37*
G36*
X69202165Y-66737175D02*
X70262825Y-67797835D01*
X69414297Y-68646363D01*
X68353637Y-67585703D01*
X69202165Y-66737175D01*
X69202165Y-66737175D01*
G37*
D14*
X69049020Y-62000000D03*
X66950980Y-62000000D03*
D10*
G36*
X71746363Y-57685703D02*
X70685703Y-58746363D01*
X69837175Y-57897835D01*
X70897835Y-56837175D01*
X71746363Y-57685703D01*
X71746363Y-57685703D01*
G37*
G36*
X70262825Y-56202165D02*
X69202165Y-57262825D01*
X68353637Y-56414297D01*
X69414297Y-55353637D01*
X70262825Y-56202165D01*
X70262825Y-56202165D01*
G37*
D14*
X80950980Y-62000000D03*
X83049020Y-62000000D03*
D10*
G36*
X79314297Y-58746363D02*
X78253637Y-57685703D01*
X79102165Y-56837175D01*
X80162825Y-57897835D01*
X79314297Y-58746363D01*
X79314297Y-58746363D01*
G37*
G36*
X80797835Y-57262825D02*
X79737175Y-56202165D01*
X80585703Y-55353637D01*
X81646363Y-56414297D01*
X80797835Y-57262825D01*
X80797835Y-57262825D01*
G37*
D13*
X75000000Y-56049020D03*
X75000000Y-53950980D03*
M02*
