G04 (created by PCBNEW (2013-10-02 BZR 4359)-product) date Thu 03 Oct 2013 08:02:36 PM CEST*
%MOIN*%
G04 Gerber Fmt 3.4, Leading zero omitted, Abs format*
%FSLAX34Y34*%
G01*
G70*
G90*
G04 APERTURE LIST*
%ADD10C,0.005906*%
%ADD11C,0.007874*%
%ADD12C,0.003937*%
%ADD13C,0.006000*%
%ADD14C,0.000100*%
%ADD15O,0.021654X0.029528*%
%ADD16R,0.021654X0.049213*%
%ADD17R,0.041339X0.025591*%
%ADD18R,0.059000X0.043307*%
%ADD19O,0.039370X0.009843*%
%ADD20R,0.039370X0.009843*%
%ADD21C,0.078740*%
G04 APERTURE END LIST*
G54D10*
G54D11*
X30286Y-21119D02*
X30249Y-21119D01*
X30211Y-21137D01*
X30193Y-21156D01*
X30174Y-21194D01*
X30155Y-21269D01*
X30155Y-21362D01*
X30174Y-21437D01*
X30193Y-21475D01*
X30211Y-21494D01*
X30249Y-21512D01*
X30286Y-21512D01*
X30324Y-21494D01*
X30343Y-21475D01*
X30361Y-21437D01*
X30380Y-21362D01*
X30380Y-21269D01*
X30361Y-21194D01*
X30343Y-21156D01*
X30324Y-21137D01*
X30286Y-21119D01*
X29986Y-21475D02*
X29968Y-21494D01*
X29986Y-21512D01*
X30005Y-21494D01*
X29986Y-21475D01*
X29986Y-21512D01*
X29818Y-21156D02*
X29799Y-21137D01*
X29761Y-21119D01*
X29668Y-21119D01*
X29630Y-21137D01*
X29611Y-21156D01*
X29593Y-21194D01*
X29593Y-21231D01*
X29611Y-21287D01*
X29836Y-21512D01*
X29593Y-21512D01*
X29443Y-21156D02*
X29424Y-21137D01*
X29386Y-21119D01*
X29293Y-21119D01*
X29255Y-21137D01*
X29236Y-21156D01*
X29218Y-21194D01*
X29218Y-21231D01*
X29236Y-21287D01*
X29461Y-21512D01*
X29218Y-21512D01*
X29049Y-21475D02*
X29030Y-21494D01*
X29049Y-21512D01*
X29068Y-21494D01*
X29049Y-21475D01*
X29049Y-21512D01*
X28693Y-21512D02*
X28693Y-21306D01*
X28712Y-21269D01*
X28749Y-21250D01*
X28824Y-21250D01*
X28862Y-21269D01*
X28693Y-21494D02*
X28730Y-21512D01*
X28824Y-21512D01*
X28862Y-21494D01*
X28880Y-21456D01*
X28880Y-21419D01*
X28862Y-21381D01*
X28824Y-21362D01*
X28730Y-21362D01*
X28693Y-21344D01*
X31805Y-22844D02*
X31767Y-22863D01*
X31692Y-22863D01*
X31655Y-22844D01*
X31636Y-22806D01*
X31636Y-22788D01*
X31655Y-22750D01*
X31692Y-22731D01*
X31748Y-22731D01*
X31786Y-22713D01*
X31805Y-22675D01*
X31805Y-22656D01*
X31786Y-22619D01*
X31748Y-22600D01*
X31692Y-22600D01*
X31655Y-22619D01*
X31467Y-22600D02*
X31467Y-22994D01*
X31467Y-22619D02*
X31430Y-22600D01*
X31355Y-22600D01*
X31317Y-22619D01*
X31299Y-22638D01*
X31280Y-22675D01*
X31280Y-22788D01*
X31299Y-22825D01*
X31317Y-22844D01*
X31355Y-22863D01*
X31430Y-22863D01*
X31467Y-22844D01*
X31111Y-22863D02*
X31111Y-22600D01*
X31111Y-22469D02*
X31130Y-22488D01*
X31111Y-22506D01*
X31092Y-22488D01*
X31111Y-22469D01*
X31111Y-22506D01*
X30980Y-22600D02*
X30830Y-22600D01*
X30924Y-22469D02*
X30924Y-22806D01*
X30905Y-22844D01*
X30867Y-22863D01*
X30830Y-22863D01*
X30736Y-22600D02*
X30530Y-22600D01*
X30736Y-22863D01*
X30530Y-22863D01*
X30230Y-22844D02*
X30267Y-22863D01*
X30342Y-22863D01*
X30380Y-22844D01*
X30399Y-22806D01*
X30399Y-22656D01*
X30380Y-22619D01*
X30342Y-22600D01*
X30267Y-22600D01*
X30230Y-22619D01*
X30211Y-22656D01*
X30211Y-22694D01*
X30399Y-22731D01*
X30042Y-22600D02*
X30042Y-22863D01*
X30042Y-22638D02*
X30024Y-22619D01*
X29986Y-22600D01*
X29930Y-22600D01*
X29892Y-22619D01*
X29874Y-22656D01*
X29874Y-22863D01*
X29686Y-22600D02*
X29686Y-22994D01*
X29686Y-22619D02*
X29649Y-22600D01*
X29574Y-22600D01*
X29536Y-22619D01*
X29517Y-22638D01*
X29499Y-22675D01*
X29499Y-22788D01*
X29517Y-22825D01*
X29536Y-22844D01*
X29574Y-22863D01*
X29649Y-22863D01*
X29686Y-22844D01*
X29386Y-22600D02*
X29236Y-22600D01*
X29330Y-22863D02*
X29330Y-22525D01*
X29311Y-22488D01*
X29274Y-22469D01*
X29236Y-22469D01*
X28955Y-22844D02*
X28993Y-22863D01*
X29068Y-22863D01*
X29105Y-22844D01*
X29124Y-22806D01*
X29124Y-22656D01*
X29105Y-22619D01*
X29068Y-22600D01*
X28993Y-22600D01*
X28955Y-22619D01*
X28936Y-22656D01*
X28936Y-22694D01*
X29124Y-22731D01*
X28768Y-22863D02*
X28768Y-22600D01*
X28768Y-22469D02*
X28786Y-22488D01*
X28768Y-22506D01*
X28749Y-22488D01*
X28768Y-22469D01*
X28768Y-22506D01*
X28524Y-22863D02*
X28561Y-22844D01*
X28580Y-22806D01*
X28580Y-22469D01*
X28374Y-22825D02*
X28355Y-22844D01*
X28374Y-22863D01*
X28393Y-22844D01*
X28374Y-22825D01*
X28374Y-22863D01*
X28130Y-22863D02*
X28168Y-22844D01*
X28186Y-22825D01*
X28205Y-22788D01*
X28205Y-22675D01*
X28186Y-22638D01*
X28168Y-22619D01*
X28130Y-22600D01*
X28074Y-22600D01*
X28036Y-22619D01*
X28018Y-22638D01*
X27999Y-22675D01*
X27999Y-22788D01*
X28018Y-22825D01*
X28036Y-22844D01*
X28074Y-22863D01*
X28130Y-22863D01*
X27830Y-22863D02*
X27830Y-22600D01*
X27830Y-22675D02*
X27811Y-22638D01*
X27793Y-22619D01*
X27755Y-22600D01*
X27718Y-22600D01*
X27418Y-22600D02*
X27418Y-22919D01*
X27437Y-22956D01*
X27455Y-22975D01*
X27493Y-22994D01*
X27549Y-22994D01*
X27586Y-22975D01*
X27418Y-22844D02*
X27455Y-22863D01*
X27530Y-22863D01*
X27568Y-22844D01*
X27586Y-22825D01*
X27605Y-22788D01*
X27605Y-22675D01*
X27586Y-22638D01*
X27568Y-22619D01*
X27530Y-22600D01*
X27455Y-22600D01*
X27418Y-22619D01*
X30202Y-27314D02*
X30183Y-27295D01*
X30146Y-27276D01*
X30052Y-27276D01*
X30014Y-27295D01*
X29996Y-27314D01*
X29977Y-27351D01*
X29977Y-27389D01*
X29996Y-27445D01*
X30221Y-27670D01*
X29977Y-27670D01*
X29733Y-27276D02*
X29696Y-27276D01*
X29658Y-27295D01*
X29640Y-27314D01*
X29621Y-27351D01*
X29602Y-27426D01*
X29602Y-27520D01*
X29621Y-27595D01*
X29640Y-27632D01*
X29658Y-27651D01*
X29696Y-27670D01*
X29733Y-27670D01*
X29771Y-27651D01*
X29790Y-27632D01*
X29808Y-27595D01*
X29827Y-27520D01*
X29827Y-27426D01*
X29808Y-27351D01*
X29790Y-27314D01*
X29771Y-27295D01*
X29733Y-27276D01*
X29227Y-27670D02*
X29452Y-27670D01*
X29340Y-27670D02*
X29340Y-27276D01*
X29377Y-27332D01*
X29415Y-27370D01*
X29452Y-27389D01*
X29096Y-27276D02*
X28852Y-27276D01*
X28983Y-27426D01*
X28927Y-27426D01*
X28890Y-27445D01*
X28871Y-27464D01*
X28852Y-27501D01*
X28852Y-27595D01*
X28871Y-27632D01*
X28890Y-27651D01*
X28927Y-27670D01*
X29040Y-27670D01*
X29077Y-27651D01*
X29096Y-27632D01*
X31227Y-23947D02*
X30867Y-23947D01*
X31047Y-24127D02*
X31047Y-23767D01*
X30859Y-24808D02*
X31219Y-24808D01*
G54D12*
X28267Y-24263D02*
X28267Y-24106D01*
X28267Y-24106D02*
X28188Y-24106D01*
X28188Y-24106D02*
X28188Y-24263D01*
X28464Y-24578D02*
X28464Y-24736D01*
X28464Y-24736D02*
X28385Y-24736D01*
X28385Y-24736D02*
X28385Y-24578D01*
X28070Y-24578D02*
X28070Y-24736D01*
X28070Y-24736D02*
X27992Y-24736D01*
X27992Y-24736D02*
X27992Y-24578D01*
G54D11*
X28543Y-24263D02*
X28543Y-24578D01*
X28543Y-24578D02*
X27913Y-24578D01*
X27913Y-24578D02*
X27913Y-24263D01*
X27913Y-24263D02*
X28543Y-24263D01*
G54D13*
X29370Y-25807D02*
X29685Y-25807D01*
X29370Y-25649D02*
X29685Y-25649D01*
X29527Y-25649D02*
X29527Y-25492D01*
X29527Y-25807D02*
X29527Y-25964D01*
G54D11*
X28937Y-25000D02*
X30118Y-25000D01*
X30118Y-25000D02*
X30118Y-23818D01*
X30118Y-23818D02*
X28937Y-23818D01*
X28937Y-23818D02*
X28937Y-25000D01*
G54D14*
G36*
X26267Y-24888D02*
X26274Y-24885D01*
X26287Y-24876D01*
X26307Y-24863D01*
X26330Y-24848D01*
X26354Y-24832D01*
X26373Y-24819D01*
X26387Y-24810D01*
X26392Y-24807D01*
X26395Y-24808D01*
X26406Y-24814D01*
X26422Y-24822D01*
X26432Y-24827D01*
X26447Y-24833D01*
X26454Y-24835D01*
X26455Y-24833D01*
X26461Y-24821D01*
X26469Y-24802D01*
X26480Y-24776D01*
X26493Y-24746D01*
X26507Y-24714D01*
X26520Y-24681D01*
X26533Y-24650D01*
X26545Y-24621D01*
X26554Y-24598D01*
X26560Y-24582D01*
X26563Y-24575D01*
X26562Y-24574D01*
X26555Y-24567D01*
X26542Y-24557D01*
X26514Y-24534D01*
X26486Y-24500D01*
X26469Y-24461D01*
X26464Y-24417D01*
X26468Y-24377D01*
X26484Y-24339D01*
X26511Y-24304D01*
X26544Y-24278D01*
X26582Y-24262D01*
X26625Y-24257D01*
X26666Y-24261D01*
X26705Y-24277D01*
X26740Y-24303D01*
X26755Y-24320D01*
X26775Y-24356D01*
X26787Y-24393D01*
X26788Y-24402D01*
X26786Y-24444D01*
X26774Y-24484D01*
X26752Y-24519D01*
X26722Y-24548D01*
X26718Y-24551D01*
X26704Y-24562D01*
X26694Y-24569D01*
X26687Y-24575D01*
X26740Y-24702D01*
X26748Y-24722D01*
X26763Y-24757D01*
X26775Y-24787D01*
X26786Y-24811D01*
X26793Y-24827D01*
X26796Y-24833D01*
X26796Y-24833D01*
X26801Y-24834D01*
X26810Y-24831D01*
X26828Y-24822D01*
X26840Y-24816D01*
X26853Y-24810D01*
X26859Y-24807D01*
X26865Y-24810D01*
X26878Y-24818D01*
X26896Y-24831D01*
X26919Y-24846D01*
X26941Y-24861D01*
X26961Y-24874D01*
X26975Y-24884D01*
X26982Y-24887D01*
X26983Y-24887D01*
X26990Y-24884D01*
X27001Y-24874D01*
X27018Y-24858D01*
X27043Y-24834D01*
X27047Y-24830D01*
X27067Y-24810D01*
X27083Y-24792D01*
X27094Y-24780D01*
X27098Y-24775D01*
X27098Y-24775D01*
X27094Y-24768D01*
X27085Y-24753D01*
X27072Y-24733D01*
X27056Y-24709D01*
X27014Y-24648D01*
X27037Y-24591D01*
X27044Y-24573D01*
X27053Y-24551D01*
X27060Y-24536D01*
X27063Y-24529D01*
X27070Y-24527D01*
X27085Y-24523D01*
X27108Y-24519D01*
X27136Y-24514D01*
X27162Y-24509D01*
X27185Y-24504D01*
X27202Y-24501D01*
X27210Y-24500D01*
X27212Y-24498D01*
X27213Y-24495D01*
X27214Y-24487D01*
X27215Y-24472D01*
X27215Y-24450D01*
X27215Y-24417D01*
X27215Y-24414D01*
X27215Y-24383D01*
X27214Y-24358D01*
X27213Y-24343D01*
X27212Y-24336D01*
X27212Y-24336D01*
X27205Y-24334D01*
X27188Y-24331D01*
X27165Y-24326D01*
X27137Y-24321D01*
X27135Y-24321D01*
X27107Y-24315D01*
X27084Y-24310D01*
X27067Y-24307D01*
X27060Y-24304D01*
X27059Y-24302D01*
X27053Y-24291D01*
X27045Y-24274D01*
X27036Y-24253D01*
X27027Y-24231D01*
X27019Y-24211D01*
X27014Y-24197D01*
X27012Y-24190D01*
X27012Y-24190D01*
X27016Y-24183D01*
X27026Y-24169D01*
X27040Y-24149D01*
X27056Y-24125D01*
X27057Y-24123D01*
X27073Y-24099D01*
X27086Y-24079D01*
X27095Y-24065D01*
X27098Y-24059D01*
X27098Y-24058D01*
X27093Y-24051D01*
X27081Y-24038D01*
X27063Y-24020D01*
X27043Y-23999D01*
X27036Y-23993D01*
X27013Y-23970D01*
X26997Y-23956D01*
X26987Y-23948D01*
X26983Y-23946D01*
X26982Y-23946D01*
X26975Y-23950D01*
X26960Y-23960D01*
X26940Y-23974D01*
X26916Y-23990D01*
X26915Y-23991D01*
X26891Y-24007D01*
X26871Y-24021D01*
X26857Y-24030D01*
X26851Y-24033D01*
X26850Y-24033D01*
X26841Y-24031D01*
X26824Y-24025D01*
X26803Y-24017D01*
X26781Y-24008D01*
X26761Y-24000D01*
X26747Y-23993D01*
X26740Y-23989D01*
X26739Y-23989D01*
X26737Y-23980D01*
X26733Y-23962D01*
X26728Y-23938D01*
X26722Y-23909D01*
X26721Y-23905D01*
X26716Y-23876D01*
X26712Y-23853D01*
X26708Y-23837D01*
X26707Y-23830D01*
X26703Y-23830D01*
X26689Y-23829D01*
X26668Y-23828D01*
X26642Y-23828D01*
X26616Y-23828D01*
X26590Y-23828D01*
X26568Y-23829D01*
X26552Y-23830D01*
X26545Y-23832D01*
X26545Y-23832D01*
X26543Y-23841D01*
X26539Y-23858D01*
X26534Y-23883D01*
X26528Y-23912D01*
X26527Y-23917D01*
X26522Y-23945D01*
X26517Y-23968D01*
X26514Y-23984D01*
X26512Y-23990D01*
X26510Y-23991D01*
X26498Y-23997D01*
X26479Y-24004D01*
X26456Y-24014D01*
X26402Y-24036D01*
X26336Y-23990D01*
X26330Y-23986D01*
X26306Y-23970D01*
X26286Y-23957D01*
X26272Y-23948D01*
X26267Y-23945D01*
X26266Y-23945D01*
X26260Y-23951D01*
X26247Y-23963D01*
X26229Y-23981D01*
X26208Y-24001D01*
X26192Y-24017D01*
X26174Y-24035D01*
X26163Y-24048D01*
X26156Y-24056D01*
X26154Y-24061D01*
X26155Y-24064D01*
X26159Y-24071D01*
X26169Y-24085D01*
X26182Y-24106D01*
X26198Y-24129D01*
X26212Y-24149D01*
X26226Y-24171D01*
X26235Y-24187D01*
X26239Y-24194D01*
X26238Y-24198D01*
X26233Y-24211D01*
X26225Y-24230D01*
X26215Y-24254D01*
X26192Y-24306D01*
X26158Y-24313D01*
X26137Y-24317D01*
X26108Y-24322D01*
X26080Y-24328D01*
X26036Y-24336D01*
X26035Y-24495D01*
X26042Y-24498D01*
X26048Y-24500D01*
X26064Y-24504D01*
X26087Y-24508D01*
X26114Y-24513D01*
X26138Y-24518D01*
X26161Y-24522D01*
X26178Y-24525D01*
X26185Y-24527D01*
X26187Y-24529D01*
X26193Y-24541D01*
X26201Y-24559D01*
X26210Y-24580D01*
X26220Y-24603D01*
X26228Y-24623D01*
X26234Y-24639D01*
X26236Y-24647D01*
X26233Y-24653D01*
X26224Y-24667D01*
X26211Y-24687D01*
X26195Y-24710D01*
X26179Y-24733D01*
X26166Y-24753D01*
X26156Y-24767D01*
X26153Y-24774D01*
X26155Y-24778D01*
X26164Y-24789D01*
X26181Y-24807D01*
X26207Y-24833D01*
X26212Y-24837D01*
X26232Y-24857D01*
X26250Y-24873D01*
X26262Y-24884D01*
X26267Y-24888D01*
X26267Y-24888D01*
G37*
G36*
X32656Y-24968D02*
X32671Y-24966D01*
X32684Y-24962D01*
X32690Y-24959D01*
X32703Y-24950D01*
X32713Y-24939D01*
X32720Y-24927D01*
X32725Y-24913D01*
X32728Y-24899D01*
X32727Y-24884D01*
X32724Y-24870D01*
X32717Y-24856D01*
X32713Y-24850D01*
X32707Y-24843D01*
X32700Y-24837D01*
X32694Y-24832D01*
X32692Y-24831D01*
X32679Y-24825D01*
X32666Y-24822D01*
X32651Y-24821D01*
X32646Y-24821D01*
X32638Y-24822D01*
X32631Y-24824D01*
X32623Y-24828D01*
X32614Y-24832D01*
X32602Y-24842D01*
X32593Y-24854D01*
X32585Y-24867D01*
X32583Y-24873D01*
X32581Y-24881D01*
X32580Y-24886D01*
X32580Y-24887D01*
X32580Y-24887D01*
X32580Y-24884D01*
X32580Y-24884D01*
X32577Y-24874D01*
X32574Y-24865D01*
X32569Y-24856D01*
X32561Y-24845D01*
X32550Y-24835D01*
X32537Y-24827D01*
X32522Y-24822D01*
X32507Y-24821D01*
X32503Y-24821D01*
X32491Y-24822D01*
X32480Y-24825D01*
X32478Y-24826D01*
X32465Y-24833D01*
X32454Y-24842D01*
X32445Y-24854D01*
X32438Y-24866D01*
X32434Y-24879D01*
X32434Y-24880D01*
X32433Y-24883D01*
X32433Y-24885D01*
X32433Y-24885D01*
X32433Y-24883D01*
X32432Y-24879D01*
X32432Y-24878D01*
X32427Y-24865D01*
X32420Y-24852D01*
X32411Y-24841D01*
X32402Y-24834D01*
X32389Y-24827D01*
X32375Y-24822D01*
X32359Y-24821D01*
X32348Y-24822D01*
X32334Y-24825D01*
X32320Y-24832D01*
X32308Y-24841D01*
X32299Y-24853D01*
X32297Y-24855D01*
X32294Y-24860D01*
X32292Y-24865D01*
X32291Y-24868D01*
X32288Y-24875D01*
X32287Y-24881D01*
X32286Y-24886D01*
X32286Y-24887D01*
X32286Y-24887D01*
X32285Y-24884D01*
X32284Y-24876D01*
X32280Y-24866D01*
X32276Y-24857D01*
X32267Y-24845D01*
X32255Y-24835D01*
X32242Y-24827D01*
X32228Y-24822D01*
X32213Y-24821D01*
X32199Y-24822D01*
X32184Y-24826D01*
X32171Y-24833D01*
X32159Y-24843D01*
X32153Y-24850D01*
X32148Y-24858D01*
X32143Y-24867D01*
X32141Y-24875D01*
X32138Y-24890D01*
X32139Y-24904D01*
X32142Y-24918D01*
X32148Y-24931D01*
X32156Y-24942D01*
X32166Y-24952D01*
X32178Y-24960D01*
X32191Y-24965D01*
X32206Y-24968D01*
X32208Y-24968D01*
X32223Y-24968D01*
X32237Y-24964D01*
X32250Y-24958D01*
X32255Y-24954D01*
X32265Y-24946D01*
X32274Y-24935D01*
X32280Y-24924D01*
X32281Y-24920D01*
X32283Y-24914D01*
X32285Y-24907D01*
X32286Y-24902D01*
X32286Y-24899D01*
X32286Y-24902D01*
X32286Y-24905D01*
X32288Y-24911D01*
X32290Y-24919D01*
X32292Y-24925D01*
X32296Y-24932D01*
X32305Y-24944D01*
X32316Y-24954D01*
X32329Y-24962D01*
X32344Y-24967D01*
X32346Y-24967D01*
X32356Y-24968D01*
X32367Y-24968D01*
X32377Y-24966D01*
X32387Y-24963D01*
X32400Y-24956D01*
X32413Y-24946D01*
X32413Y-24945D01*
X32422Y-24935D01*
X32428Y-24922D01*
X32432Y-24910D01*
X32432Y-24909D01*
X32433Y-24906D01*
X32433Y-24904D01*
X32433Y-24905D01*
X32434Y-24908D01*
X32434Y-24909D01*
X32436Y-24917D01*
X32439Y-24925D01*
X32444Y-24933D01*
X32450Y-24942D01*
X32461Y-24953D01*
X32474Y-24961D01*
X32489Y-24966D01*
X32491Y-24967D01*
X32501Y-24968D01*
X32512Y-24968D01*
X32522Y-24967D01*
X32530Y-24964D01*
X32544Y-24958D01*
X32556Y-24949D01*
X32566Y-24938D01*
X32574Y-24925D01*
X32575Y-24921D01*
X32578Y-24914D01*
X32579Y-24907D01*
X32580Y-24902D01*
X32580Y-24902D01*
X32580Y-24902D01*
X32581Y-24905D01*
X32581Y-24905D01*
X32583Y-24914D01*
X32587Y-24924D01*
X32591Y-24933D01*
X32593Y-24936D01*
X32602Y-24947D01*
X32614Y-24956D01*
X32627Y-24963D01*
X32641Y-24967D01*
X32656Y-24968D01*
X32656Y-24968D01*
G37*
G36*
X32060Y-24821D02*
X32069Y-24820D01*
X32077Y-24820D01*
X32087Y-24817D01*
X32101Y-24811D01*
X32113Y-24802D01*
X32123Y-24791D01*
X32131Y-24778D01*
X32136Y-24764D01*
X32138Y-24749D01*
X32137Y-24734D01*
X32133Y-24720D01*
X32127Y-24707D01*
X32117Y-24695D01*
X32105Y-24685D01*
X32102Y-24683D01*
X32087Y-24677D01*
X32073Y-24673D01*
X32057Y-24673D01*
X32042Y-24676D01*
X32030Y-24681D01*
X32017Y-24690D01*
X32007Y-24701D01*
X31998Y-24714D01*
X31993Y-24729D01*
X31991Y-24736D01*
X31991Y-24746D01*
X31991Y-24755D01*
X31992Y-24763D01*
X31993Y-24766D01*
X31999Y-24781D01*
X32007Y-24794D01*
X32019Y-24805D01*
X32032Y-24813D01*
X32038Y-24816D01*
X32047Y-24819D01*
X32055Y-24820D01*
X32060Y-24821D01*
X32060Y-24821D01*
G37*
G36*
X32803Y-24821D02*
X32818Y-24819D01*
X32833Y-24814D01*
X32847Y-24805D01*
X32850Y-24803D01*
X32860Y-24792D01*
X32868Y-24779D01*
X32873Y-24765D01*
X32875Y-24757D01*
X32875Y-24748D01*
X32875Y-24738D01*
X32874Y-24731D01*
X32873Y-24727D01*
X32867Y-24712D01*
X32859Y-24700D01*
X32848Y-24689D01*
X32835Y-24681D01*
X32821Y-24676D01*
X32806Y-24673D01*
X32800Y-24673D01*
X32785Y-24675D01*
X32771Y-24679D01*
X32759Y-24687D01*
X32748Y-24696D01*
X32739Y-24708D01*
X32733Y-24721D01*
X32729Y-24735D01*
X32728Y-24750D01*
X32729Y-24759D01*
X32731Y-24767D01*
X32734Y-24776D01*
X32740Y-24787D01*
X32749Y-24799D01*
X32761Y-24808D01*
X32774Y-24815D01*
X32788Y-24819D01*
X32803Y-24821D01*
X32803Y-24821D01*
G37*
G36*
X31913Y-24673D02*
X31923Y-24673D01*
X31932Y-24671D01*
X31943Y-24668D01*
X31956Y-24661D01*
X31969Y-24651D01*
X31977Y-24642D01*
X31984Y-24629D01*
X31989Y-24615D01*
X31990Y-24609D01*
X31990Y-24600D01*
X31990Y-24591D01*
X31989Y-24584D01*
X31988Y-24579D01*
X31982Y-24565D01*
X31974Y-24552D01*
X31963Y-24541D01*
X31949Y-24533D01*
X31944Y-24531D01*
X31935Y-24527D01*
X31925Y-24526D01*
X31914Y-24526D01*
X31907Y-24526D01*
X31899Y-24527D01*
X31892Y-24529D01*
X31884Y-24533D01*
X31879Y-24536D01*
X31867Y-24545D01*
X31857Y-24556D01*
X31849Y-24570D01*
X31844Y-24585D01*
X31844Y-24588D01*
X31843Y-24597D01*
X31843Y-24606D01*
X31844Y-24614D01*
X31845Y-24619D01*
X31851Y-24633D01*
X31860Y-24646D01*
X31870Y-24657D01*
X31884Y-24665D01*
X31898Y-24671D01*
X31903Y-24672D01*
X31913Y-24673D01*
X31913Y-24673D01*
G37*
G36*
X32505Y-24673D02*
X32519Y-24672D01*
X32533Y-24668D01*
X32542Y-24664D01*
X32554Y-24655D01*
X32565Y-24644D01*
X32573Y-24631D01*
X32578Y-24617D01*
X32579Y-24614D01*
X32580Y-24602D01*
X32580Y-24591D01*
X32577Y-24578D01*
X32571Y-24563D01*
X32562Y-24551D01*
X32551Y-24541D01*
X32538Y-24533D01*
X32523Y-24527D01*
X32514Y-24525D01*
X32519Y-24524D01*
X32520Y-24524D01*
X32530Y-24521D01*
X32541Y-24516D01*
X32552Y-24510D01*
X32553Y-24508D01*
X32564Y-24498D01*
X32572Y-24485D01*
X32577Y-24471D01*
X32580Y-24457D01*
X32580Y-24443D01*
X32576Y-24429D01*
X32570Y-24415D01*
X32570Y-24414D01*
X32560Y-24402D01*
X32549Y-24392D01*
X32537Y-24385D01*
X32523Y-24381D01*
X32509Y-24379D01*
X32495Y-24380D01*
X32481Y-24383D01*
X32468Y-24390D01*
X32455Y-24399D01*
X32449Y-24406D01*
X32442Y-24417D01*
X32436Y-24428D01*
X32434Y-24439D01*
X32433Y-24442D01*
X32433Y-24443D01*
X32433Y-24442D01*
X32432Y-24439D01*
X32430Y-24429D01*
X32425Y-24419D01*
X32419Y-24409D01*
X32415Y-24404D01*
X32404Y-24394D01*
X32391Y-24386D01*
X32377Y-24381D01*
X32362Y-24379D01*
X32347Y-24380D01*
X32338Y-24382D01*
X32324Y-24388D01*
X32312Y-24396D01*
X32301Y-24407D01*
X32293Y-24420D01*
X32288Y-24435D01*
X32287Y-24442D01*
X32286Y-24457D01*
X32289Y-24471D01*
X32294Y-24485D01*
X32302Y-24498D01*
X32313Y-24508D01*
X32326Y-24517D01*
X32332Y-24520D01*
X32339Y-24522D01*
X32345Y-24524D01*
X32350Y-24525D01*
X32350Y-24525D01*
X32350Y-24525D01*
X32347Y-24526D01*
X32340Y-24528D01*
X32330Y-24532D01*
X32321Y-24536D01*
X32317Y-24539D01*
X32307Y-24548D01*
X32298Y-24558D01*
X32292Y-24569D01*
X32288Y-24582D01*
X32286Y-24595D01*
X32286Y-24608D01*
X32287Y-24610D01*
X32291Y-24626D01*
X32298Y-24639D01*
X32308Y-24651D01*
X32316Y-24659D01*
X32329Y-24667D01*
X32344Y-24671D01*
X32349Y-24672D01*
X32357Y-24673D01*
X32366Y-24672D01*
X32374Y-24672D01*
X32380Y-24670D01*
X32385Y-24669D01*
X32399Y-24662D01*
X32411Y-24652D01*
X32421Y-24640D01*
X32425Y-24634D01*
X32429Y-24624D01*
X32432Y-24614D01*
X32432Y-24614D01*
X32433Y-24610D01*
X32433Y-24609D01*
X32433Y-24609D01*
X32433Y-24589D01*
X32433Y-24589D01*
X32433Y-24588D01*
X32432Y-24584D01*
X32432Y-24583D01*
X32427Y-24570D01*
X32420Y-24557D01*
X32411Y-24546D01*
X32400Y-24537D01*
X32387Y-24531D01*
X32386Y-24530D01*
X32380Y-24528D01*
X32374Y-24527D01*
X32367Y-24525D01*
X32373Y-24524D01*
X32382Y-24522D01*
X32395Y-24516D01*
X32407Y-24508D01*
X32418Y-24497D01*
X32426Y-24485D01*
X32428Y-24479D01*
X32431Y-24471D01*
X32432Y-24465D01*
X32433Y-24462D01*
X32433Y-24461D01*
X32433Y-24462D01*
X32434Y-24465D01*
X32435Y-24470D01*
X32437Y-24478D01*
X32440Y-24485D01*
X32445Y-24493D01*
X32455Y-24504D01*
X32466Y-24513D01*
X32479Y-24520D01*
X32493Y-24524D01*
X32499Y-24525D01*
X32493Y-24527D01*
X32492Y-24527D01*
X32485Y-24528D01*
X32479Y-24531D01*
X32478Y-24531D01*
X32465Y-24538D01*
X32454Y-24547D01*
X32445Y-24558D01*
X32438Y-24571D01*
X32434Y-24584D01*
X32434Y-24584D01*
X32433Y-24588D01*
X32433Y-24589D01*
X32433Y-24609D01*
X32433Y-24609D01*
X32433Y-24611D01*
X32434Y-24614D01*
X32437Y-24624D01*
X32443Y-24637D01*
X32452Y-24649D01*
X32463Y-24659D01*
X32476Y-24666D01*
X32476Y-24666D01*
X32490Y-24671D01*
X32505Y-24673D01*
X32505Y-24673D01*
G37*
G36*
X32944Y-24673D02*
X32956Y-24673D01*
X32967Y-24671D01*
X32974Y-24669D01*
X32988Y-24662D01*
X33000Y-24653D01*
X33010Y-24642D01*
X33017Y-24629D01*
X33021Y-24615D01*
X33023Y-24599D01*
X33023Y-24593D01*
X33020Y-24578D01*
X33014Y-24564D01*
X33005Y-24550D01*
X33002Y-24548D01*
X32992Y-24539D01*
X32980Y-24532D01*
X32967Y-24527D01*
X32966Y-24527D01*
X32955Y-24526D01*
X32943Y-24526D01*
X32932Y-24527D01*
X32928Y-24528D01*
X32914Y-24534D01*
X32902Y-24543D01*
X32892Y-24553D01*
X32884Y-24565D01*
X32878Y-24578D01*
X32876Y-24593D01*
X32876Y-24608D01*
X32879Y-24623D01*
X32884Y-24634D01*
X32893Y-24646D01*
X32904Y-24657D01*
X32916Y-24665D01*
X32931Y-24671D01*
X32932Y-24671D01*
X32944Y-24673D01*
X32944Y-24673D01*
G37*
G36*
X32214Y-24231D02*
X32229Y-24229D01*
X32243Y-24224D01*
X32250Y-24221D01*
X32256Y-24216D01*
X32263Y-24210D01*
X32271Y-24202D01*
X32279Y-24189D01*
X32284Y-24175D01*
X32285Y-24171D01*
X32286Y-24161D01*
X32286Y-24151D01*
X32284Y-24142D01*
X32280Y-24129D01*
X32274Y-24116D01*
X32265Y-24105D01*
X32263Y-24104D01*
X32256Y-24098D01*
X32248Y-24093D01*
X32241Y-24089D01*
X32238Y-24088D01*
X32232Y-24086D01*
X32226Y-24085D01*
X32222Y-24084D01*
X32219Y-24084D01*
X32222Y-24083D01*
X32226Y-24082D01*
X32230Y-24081D01*
X32236Y-24080D01*
X32247Y-24074D01*
X32258Y-24068D01*
X32266Y-24060D01*
X32268Y-24058D01*
X32277Y-24045D01*
X32283Y-24031D01*
X32286Y-24017D01*
X32286Y-24002D01*
X32285Y-23998D01*
X32281Y-23983D01*
X32274Y-23970D01*
X32264Y-23957D01*
X32255Y-23950D01*
X32242Y-23942D01*
X32228Y-23937D01*
X32225Y-23937D01*
X32215Y-23936D01*
X32205Y-23936D01*
X32195Y-23938D01*
X32187Y-23940D01*
X32173Y-23947D01*
X32161Y-23956D01*
X32152Y-23967D01*
X32144Y-23980D01*
X32140Y-23994D01*
X32139Y-23996D01*
X32138Y-23999D01*
X32138Y-24001D01*
X32137Y-23999D01*
X32137Y-23996D01*
X32136Y-23990D01*
X32133Y-23983D01*
X32131Y-23977D01*
X32128Y-23973D01*
X32119Y-23960D01*
X32108Y-23950D01*
X32095Y-23942D01*
X32081Y-23938D01*
X32065Y-23936D01*
X32053Y-23937D01*
X32039Y-23940D01*
X32026Y-23947D01*
X32018Y-23952D01*
X32007Y-23963D01*
X31999Y-23975D01*
X31993Y-23989D01*
X31991Y-24003D01*
X31991Y-24018D01*
X31994Y-24032D01*
X32000Y-24046D01*
X32009Y-24058D01*
X32020Y-24069D01*
X32034Y-24077D01*
X32049Y-24082D01*
X32057Y-24084D01*
X32052Y-24084D01*
X32049Y-24085D01*
X32037Y-24088D01*
X32026Y-24094D01*
X32015Y-24102D01*
X32006Y-24111D01*
X32001Y-24119D01*
X31996Y-24129D01*
X31993Y-24139D01*
X31991Y-24147D01*
X31991Y-24156D01*
X31991Y-24166D01*
X31992Y-24173D01*
X31995Y-24182D01*
X32002Y-24196D01*
X32011Y-24208D01*
X32023Y-24218D01*
X32036Y-24226D01*
X32052Y-24230D01*
X32056Y-24231D01*
X32065Y-24231D01*
X32074Y-24230D01*
X32083Y-24229D01*
X32089Y-24227D01*
X32103Y-24220D01*
X32115Y-24211D01*
X32125Y-24200D01*
X32132Y-24187D01*
X32137Y-24172D01*
X32137Y-24171D01*
X32138Y-24167D01*
X32138Y-24168D01*
X32138Y-24147D01*
X32138Y-24147D01*
X32137Y-24144D01*
X32137Y-24143D01*
X32134Y-24133D01*
X32130Y-24123D01*
X32124Y-24113D01*
X32119Y-24108D01*
X32108Y-24097D01*
X32094Y-24090D01*
X32079Y-24085D01*
X32072Y-24083D01*
X32077Y-24082D01*
X32082Y-24081D01*
X32086Y-24080D01*
X32089Y-24079D01*
X32103Y-24073D01*
X32115Y-24063D01*
X32125Y-24052D01*
X32132Y-24039D01*
X32137Y-24025D01*
X32137Y-24022D01*
X32138Y-24020D01*
X32139Y-24021D01*
X32140Y-24025D01*
X32140Y-24026D01*
X32142Y-24034D01*
X32146Y-24042D01*
X32150Y-24050D01*
X32154Y-24055D01*
X32161Y-24062D01*
X32168Y-24069D01*
X32175Y-24074D01*
X32176Y-24074D01*
X32187Y-24079D01*
X32199Y-24082D01*
X32204Y-24083D01*
X32198Y-24085D01*
X32185Y-24088D01*
X32172Y-24095D01*
X32160Y-24104D01*
X32151Y-24115D01*
X32149Y-24119D01*
X32145Y-24126D01*
X32142Y-24134D01*
X32140Y-24141D01*
X32139Y-24146D01*
X32139Y-24146D01*
X32138Y-24147D01*
X32138Y-24168D01*
X32139Y-24168D01*
X32139Y-24171D01*
X32140Y-24175D01*
X32142Y-24180D01*
X32145Y-24187D01*
X32152Y-24200D01*
X32162Y-24211D01*
X32173Y-24220D01*
X32186Y-24226D01*
X32200Y-24230D01*
X32214Y-24231D01*
X32214Y-24231D01*
G37*
G36*
X32658Y-24231D02*
X32672Y-24229D01*
X32686Y-24224D01*
X32699Y-24216D01*
X32709Y-24206D01*
X32718Y-24194D01*
X32724Y-24180D01*
X32726Y-24175D01*
X32727Y-24171D01*
X32727Y-24170D01*
X32728Y-24167D01*
X32728Y-24167D01*
X32728Y-24147D01*
X32727Y-24145D01*
X32726Y-24140D01*
X32723Y-24131D01*
X32717Y-24118D01*
X32708Y-24106D01*
X32696Y-24097D01*
X32683Y-24089D01*
X32669Y-24085D01*
X32662Y-24083D01*
X32667Y-24082D01*
X32667Y-24082D01*
X32679Y-24079D01*
X32691Y-24074D01*
X32695Y-24071D01*
X32703Y-24064D01*
X32710Y-24057D01*
X32716Y-24050D01*
X32719Y-24044D01*
X32724Y-24034D01*
X32726Y-24026D01*
X32727Y-24022D01*
X32728Y-24020D01*
X32728Y-24021D01*
X32729Y-24025D01*
X32732Y-24035D01*
X32739Y-24049D01*
X32749Y-24061D01*
X32760Y-24070D01*
X32773Y-24078D01*
X32789Y-24082D01*
X32794Y-24083D01*
X32787Y-24085D01*
X32780Y-24087D01*
X32766Y-24093D01*
X32753Y-24102D01*
X32743Y-24113D01*
X32739Y-24117D01*
X32736Y-24124D01*
X32732Y-24132D01*
X32730Y-24137D01*
X32729Y-24143D01*
X32729Y-24143D01*
X32728Y-24146D01*
X32728Y-24147D01*
X32728Y-24167D01*
X32728Y-24168D01*
X32729Y-24172D01*
X32730Y-24177D01*
X32735Y-24188D01*
X32740Y-24198D01*
X32745Y-24204D01*
X32756Y-24215D01*
X32769Y-24223D01*
X32784Y-24229D01*
X32790Y-24230D01*
X32800Y-24231D01*
X32811Y-24230D01*
X32820Y-24229D01*
X32821Y-24229D01*
X32836Y-24223D01*
X32849Y-24214D01*
X32859Y-24203D01*
X32868Y-24190D01*
X32873Y-24175D01*
X32875Y-24169D01*
X32875Y-24158D01*
X32875Y-24148D01*
X32873Y-24139D01*
X32871Y-24131D01*
X32866Y-24121D01*
X32860Y-24111D01*
X32853Y-24104D01*
X32844Y-24097D01*
X32834Y-24091D01*
X32831Y-24089D01*
X32824Y-24087D01*
X32817Y-24085D01*
X32812Y-24084D01*
X32811Y-24084D01*
X32813Y-24083D01*
X32817Y-24082D01*
X32826Y-24079D01*
X32835Y-24075D01*
X32843Y-24071D01*
X32845Y-24069D01*
X32855Y-24061D01*
X32863Y-24050D01*
X32869Y-24039D01*
X32872Y-24034D01*
X32875Y-24019D01*
X32875Y-24004D01*
X32873Y-23989D01*
X32872Y-23986D01*
X32865Y-23972D01*
X32856Y-23960D01*
X32845Y-23950D01*
X32832Y-23942D01*
X32817Y-23937D01*
X32815Y-23937D01*
X32805Y-23936D01*
X32794Y-23936D01*
X32785Y-23938D01*
X32782Y-23938D01*
X32768Y-23944D01*
X32755Y-23952D01*
X32744Y-23964D01*
X32735Y-23977D01*
X32733Y-23981D01*
X32731Y-23988D01*
X32729Y-23994D01*
X32729Y-23999D01*
X32729Y-24000D01*
X32728Y-24000D01*
X32727Y-23998D01*
X32726Y-23994D01*
X32724Y-23984D01*
X32717Y-23971D01*
X32708Y-23960D01*
X32697Y-23950D01*
X32684Y-23942D01*
X32684Y-23942D01*
X32671Y-23938D01*
X32656Y-23936D01*
X32641Y-23937D01*
X32627Y-23941D01*
X32619Y-23945D01*
X32606Y-23953D01*
X32596Y-23964D01*
X32588Y-23977D01*
X32582Y-23992D01*
X32582Y-23995D01*
X32580Y-24007D01*
X32581Y-24018D01*
X32584Y-24032D01*
X32590Y-24046D01*
X32599Y-24058D01*
X32610Y-24069D01*
X32623Y-24077D01*
X32638Y-24082D01*
X32641Y-24083D01*
X32644Y-24084D01*
X32644Y-24084D01*
X32640Y-24084D01*
X32631Y-24087D01*
X32622Y-24091D01*
X32613Y-24096D01*
X32605Y-24102D01*
X32595Y-24113D01*
X32587Y-24127D01*
X32586Y-24129D01*
X32581Y-24143D01*
X32580Y-24158D01*
X32582Y-24174D01*
X32587Y-24188D01*
X32590Y-24195D01*
X32595Y-24201D01*
X32601Y-24208D01*
X32601Y-24209D01*
X32613Y-24219D01*
X32627Y-24226D01*
X32641Y-24230D01*
X32643Y-24230D01*
X32658Y-24231D01*
X32658Y-24231D01*
G37*
G54D11*
X30125Y-22211D02*
X30680Y-22441D01*
X30680Y-22441D02*
X30794Y-22164D01*
X30794Y-22164D02*
X30240Y-21934D01*
X30240Y-21934D02*
X30125Y-22211D01*
X31523Y-23270D02*
X31753Y-23824D01*
X31753Y-23824D02*
X32030Y-23709D01*
X32030Y-23709D02*
X31800Y-23155D01*
X31800Y-23155D02*
X31523Y-23270D01*
X31717Y-24999D02*
X31487Y-25554D01*
X31487Y-25554D02*
X31764Y-25668D01*
X31764Y-25668D02*
X31994Y-25114D01*
X31994Y-25114D02*
X31717Y-24999D01*
X30670Y-26382D02*
X30116Y-26611D01*
X30116Y-26611D02*
X30230Y-26888D01*
X30230Y-26888D02*
X30785Y-26659D01*
X30785Y-26659D02*
X30670Y-26382D01*
X28941Y-26626D02*
X28386Y-26397D01*
X28386Y-26397D02*
X28271Y-26674D01*
X28271Y-26674D02*
X28826Y-26903D01*
X28826Y-26903D02*
X28941Y-26626D01*
X27547Y-25560D02*
X27317Y-25005D01*
X27317Y-25005D02*
X27040Y-25120D01*
X27040Y-25120D02*
X27269Y-25675D01*
X27269Y-25675D02*
X27547Y-25560D01*
X27322Y-23830D02*
X27551Y-23276D01*
X27551Y-23276D02*
X27274Y-23161D01*
X27274Y-23161D02*
X27044Y-23716D01*
X27044Y-23716D02*
X27322Y-23830D01*
X28364Y-22432D02*
X28919Y-22203D01*
X28919Y-22203D02*
X28804Y-21926D01*
X28804Y-21926D02*
X28250Y-22155D01*
X28250Y-22155D02*
X28364Y-22432D01*
%LPC*%
G54D15*
X28425Y-24696D03*
G54D16*
X28031Y-24598D03*
G54D17*
X28129Y-24125D03*
G54D18*
X29527Y-25354D03*
X29527Y-26102D03*
G54D19*
X28937Y-24803D03*
G54D20*
X28937Y-24606D03*
X28937Y-24409D03*
X28937Y-24212D03*
X28937Y-24015D03*
X30118Y-24015D03*
X30118Y-24212D03*
X30118Y-24409D03*
X30118Y-24606D03*
X30118Y-24803D03*
G54D21*
X28543Y-25393D03*
X28543Y-23425D03*
X30511Y-23425D03*
X30511Y-25393D03*
G54D10*
G36*
X30647Y-22095D02*
X30938Y-22216D01*
X30817Y-22506D01*
X30527Y-22386D01*
X30647Y-22095D01*
X30647Y-22095D01*
G37*
G36*
X30102Y-21870D02*
X30392Y-21990D01*
X30272Y-22280D01*
X29982Y-22160D01*
X30102Y-21870D01*
X30102Y-21870D01*
G37*
G36*
X31975Y-23557D02*
X32095Y-23847D01*
X31805Y-23967D01*
X31684Y-23677D01*
X31975Y-23557D01*
X31975Y-23557D01*
G37*
G36*
X31749Y-23012D02*
X31869Y-23302D01*
X31579Y-23422D01*
X31459Y-23132D01*
X31749Y-23012D01*
X31749Y-23012D01*
G37*
G36*
X31833Y-25522D02*
X31713Y-25812D01*
X31422Y-25691D01*
X31543Y-25401D01*
X31833Y-25522D01*
X31833Y-25522D01*
G37*
G36*
X32059Y-24976D02*
X31938Y-25267D01*
X31648Y-25146D01*
X31768Y-24856D01*
X32059Y-24976D01*
X32059Y-24976D01*
G37*
G36*
X30383Y-26833D02*
X30093Y-26953D01*
X29973Y-26663D01*
X30263Y-26543D01*
X30383Y-26833D01*
X30383Y-26833D01*
G37*
G36*
X30928Y-26607D02*
X30638Y-26727D01*
X30518Y-26437D01*
X30808Y-26317D01*
X30928Y-26607D01*
X30928Y-26607D01*
G37*
G36*
X28418Y-26742D02*
X28128Y-26622D01*
X28249Y-26332D01*
X28539Y-26452D01*
X28418Y-26742D01*
X28418Y-26742D01*
G37*
G36*
X28964Y-26968D02*
X28673Y-26848D01*
X28794Y-26558D01*
X29084Y-26678D01*
X28964Y-26968D01*
X28964Y-26968D01*
G37*
G36*
X27095Y-25273D02*
X26975Y-24982D01*
X27265Y-24862D01*
X27385Y-25152D01*
X27095Y-25273D01*
X27095Y-25273D01*
G37*
G36*
X27321Y-25818D02*
X27201Y-25528D01*
X27491Y-25407D01*
X27611Y-25697D01*
X27321Y-25818D01*
X27321Y-25818D01*
G37*
G36*
X27206Y-23308D02*
X27326Y-23018D01*
X27616Y-23138D01*
X27496Y-23428D01*
X27206Y-23308D01*
X27206Y-23308D01*
G37*
G36*
X26980Y-23853D02*
X27100Y-23563D01*
X27390Y-23683D01*
X27270Y-23973D01*
X26980Y-23853D01*
X26980Y-23853D01*
G37*
G36*
X28652Y-21981D02*
X28942Y-21861D01*
X29062Y-22151D01*
X28772Y-22271D01*
X28652Y-21981D01*
X28652Y-21981D01*
G37*
G36*
X28107Y-22207D02*
X28397Y-22087D01*
X28517Y-22377D01*
X28227Y-22497D01*
X28107Y-22207D01*
X28107Y-22207D01*
G37*
M02*
