%FSLAX34Y34*%
G04 Gerber Fmt 3.4, Leading zero omitted, Abs format*
G04 (created by PCBNEW (2013-10-13 BZR 4383)-product) date Mon 14 Oct 2013 01:25:58 PM CEST*
%MOIN*%
G01*
G70*
G90*
G04 APERTURE LIST*
%ADD10C,0.005906*%
%ADD11C,0.007874*%
%ADD12C,0.003937*%
%ADD13C,0.000100*%
%ADD14R,0.021654X0.051181*%
%ADD15R,0.031496X0.025591*%
%ADD16R,0.045276X0.025591*%
%ADD17R,0.047244X0.061024*%
%ADD18R,0.047244X0.023622*%
%ADD19R,0.061024X0.047244*%
%ADD20R,0.023622X0.047244*%
%ADD21R,0.029528X0.029528*%
%ADD22C,0.029528*%
%ADD23C,0.078740*%
G04 APERTURE END LIST*
G54D10*
G54D11*
X29803Y-25866D02*
X29685Y-25866D01*
X29803Y-25866D02*
X29842Y-25748D01*
X29769Y-25818D02*
G75*
G03X29803Y-26181I-242J-205D01*
G74*
G01*
G54D10*
X32185Y-24409D02*
X31978Y-24409D01*
X32381Y-24409D02*
X32588Y-24409D01*
X32185Y-24409D02*
X32381Y-24251D01*
X32381Y-24251D02*
X32381Y-24566D01*
X32381Y-24566D02*
X32185Y-24409D01*
X32185Y-24251D02*
X32185Y-24566D01*
X31406Y-26288D02*
X31260Y-26142D01*
X31545Y-26427D02*
X31692Y-26574D01*
X31406Y-26288D02*
X31657Y-26316D01*
X31657Y-26316D02*
X31434Y-26539D01*
X31434Y-26539D02*
X31406Y-26288D01*
X31518Y-26177D02*
X31295Y-26400D01*
X29527Y-27066D02*
X29527Y-26860D01*
X29527Y-27263D02*
X29527Y-27470D01*
X29527Y-27066D02*
X29685Y-27263D01*
X29685Y-27263D02*
X29370Y-27263D01*
X29370Y-27263D02*
X29527Y-27066D01*
X29685Y-27066D02*
X29370Y-27066D01*
X27648Y-26288D02*
X27794Y-26142D01*
X27509Y-26427D02*
X27362Y-26574D01*
X27648Y-26288D02*
X27620Y-26539D01*
X27620Y-26539D02*
X27397Y-26316D01*
X27397Y-26316D02*
X27648Y-26288D01*
X27759Y-26400D02*
X27536Y-26177D01*
X26870Y-24409D02*
X27076Y-24409D01*
X26673Y-24409D02*
X26466Y-24409D01*
X26870Y-24409D02*
X26673Y-24566D01*
X26673Y-24566D02*
X26673Y-24251D01*
X26673Y-24251D02*
X26870Y-24409D01*
X26870Y-24566D02*
X26870Y-24251D01*
X31406Y-22530D02*
X31260Y-22676D01*
X31545Y-22391D02*
X31692Y-22244D01*
X31406Y-22530D02*
X31434Y-22279D01*
X31434Y-22279D02*
X31657Y-22502D01*
X31657Y-22502D02*
X31406Y-22530D01*
X31295Y-22418D02*
X31518Y-22641D01*
X27648Y-22530D02*
X27794Y-22676D01*
X27509Y-22391D02*
X27362Y-22244D01*
X27648Y-22530D02*
X27397Y-22502D01*
X27397Y-22502D02*
X27620Y-22279D01*
X27620Y-22279D02*
X27648Y-22530D01*
X27536Y-22641D02*
X27759Y-22418D01*
X29527Y-21751D02*
X29527Y-21958D01*
X29527Y-21555D02*
X29527Y-21348D01*
X29527Y-21751D02*
X29370Y-21555D01*
X29370Y-21555D02*
X29685Y-21555D01*
X29685Y-21555D02*
X29527Y-21751D01*
X29370Y-21751D02*
X29685Y-21751D01*
G54D11*
X29777Y-24159D02*
G75*
G03X29527Y-23909I-250J0D01*
G74*
G01*
X29527Y-23909D02*
G75*
G03X29277Y-24159I0J-250D01*
G74*
G01*
X29277Y-24659D02*
G75*
G03X29527Y-24909I250J0D01*
G74*
G01*
X29527Y-24909D02*
G75*
G03X29777Y-24659I0J250D01*
G74*
G01*
X29777Y-24659D02*
X29777Y-24159D01*
X29277Y-24159D02*
X29277Y-24659D01*
G54D12*
X30696Y-22511D02*
X30741Y-22402D01*
X30741Y-22402D02*
X30523Y-22311D01*
X30478Y-22420D02*
X30523Y-22311D01*
X30696Y-22511D02*
X30478Y-22420D01*
X30818Y-22216D02*
X30864Y-22106D01*
X30864Y-22106D02*
X30646Y-22016D01*
X30600Y-22126D02*
X30646Y-22016D01*
X30818Y-22216D02*
X30600Y-22126D01*
X30551Y-22318D02*
X30624Y-22141D01*
X30787Y-22208D02*
X30713Y-22386D01*
X31517Y-23481D02*
X31626Y-23436D01*
X31626Y-23436D02*
X31536Y-23218D01*
X31427Y-23263D02*
X31536Y-23218D01*
X31517Y-23481D02*
X31427Y-23263D01*
X31812Y-23359D02*
X31922Y-23314D01*
X31922Y-23314D02*
X31832Y-23096D01*
X31722Y-23141D02*
X31832Y-23096D01*
X31812Y-23359D02*
X31722Y-23141D01*
X31550Y-23242D02*
X31728Y-23169D01*
X31795Y-23331D02*
X31618Y-23405D01*
X31603Y-25165D02*
X31712Y-25210D01*
X31712Y-25210D02*
X31802Y-24992D01*
X31693Y-24947D02*
X31802Y-24992D01*
X31603Y-25165D02*
X31693Y-24947D01*
X31897Y-25287D02*
X32007Y-25332D01*
X32007Y-25332D02*
X32098Y-25114D01*
X31988Y-25069D02*
X32098Y-25114D01*
X31897Y-25287D02*
X31988Y-25069D01*
X31795Y-25019D02*
X31972Y-25093D01*
X31905Y-25255D02*
X31728Y-25182D01*
X30455Y-26399D02*
X30500Y-26508D01*
X30500Y-26508D02*
X30718Y-26418D01*
X30673Y-26309D02*
X30718Y-26418D01*
X30455Y-26399D02*
X30673Y-26309D01*
X30577Y-26694D02*
X30622Y-26804D01*
X30622Y-26804D02*
X30840Y-26713D01*
X30795Y-26604D02*
X30840Y-26713D01*
X30577Y-26694D02*
X30795Y-26604D01*
X30694Y-26432D02*
X30767Y-26610D01*
X30605Y-26677D02*
X30531Y-26500D01*
X28791Y-26484D02*
X28746Y-26593D01*
X28746Y-26593D02*
X28964Y-26684D01*
X29009Y-26575D02*
X28964Y-26684D01*
X28791Y-26484D02*
X29009Y-26575D01*
X28669Y-26779D02*
X28623Y-26889D01*
X28623Y-26889D02*
X28841Y-26979D01*
X28887Y-26869D02*
X28841Y-26979D01*
X28669Y-26779D02*
X28887Y-26869D01*
X28936Y-26677D02*
X28863Y-26854D01*
X28700Y-26787D02*
X28774Y-26609D01*
X27537Y-25356D02*
X27428Y-25402D01*
X27428Y-25402D02*
X27518Y-25620D01*
X27627Y-25574D02*
X27518Y-25620D01*
X27537Y-25356D02*
X27627Y-25574D01*
X27242Y-25478D02*
X27132Y-25524D01*
X27132Y-25524D02*
X27223Y-25742D01*
X27332Y-25697D02*
X27223Y-25742D01*
X27242Y-25478D02*
X27332Y-25697D01*
X27504Y-25595D02*
X27326Y-25669D01*
X27259Y-25506D02*
X27436Y-25433D01*
X27629Y-23259D02*
X27520Y-23214D01*
X27520Y-23214D02*
X27429Y-23432D01*
X27538Y-23477D02*
X27429Y-23432D01*
X27629Y-23259D02*
X27538Y-23477D01*
X27334Y-23137D02*
X27224Y-23092D01*
X27224Y-23092D02*
X27134Y-23310D01*
X27244Y-23355D02*
X27134Y-23310D01*
X27334Y-23137D02*
X27244Y-23355D01*
X27436Y-23405D02*
X27259Y-23331D01*
X27326Y-23169D02*
X27504Y-23242D01*
X27452Y-23673D02*
X27343Y-23628D01*
X27343Y-23628D02*
X27252Y-23846D01*
X27361Y-23891D02*
X27252Y-23846D01*
X27452Y-23673D02*
X27361Y-23891D01*
X27157Y-23551D02*
X27047Y-23505D01*
X27047Y-23505D02*
X26957Y-23723D01*
X27067Y-23769D02*
X26957Y-23723D01*
X27157Y-23551D02*
X27067Y-23769D01*
X27259Y-23818D02*
X27082Y-23745D01*
X27149Y-23582D02*
X27327Y-23656D01*
X28580Y-22419D02*
X28534Y-22310D01*
X28534Y-22310D02*
X28316Y-22400D01*
X28362Y-22509D02*
X28316Y-22400D01*
X28580Y-22419D02*
X28362Y-22509D01*
X28458Y-22124D02*
X28412Y-22014D01*
X28412Y-22014D02*
X28194Y-22104D01*
X28240Y-22214D02*
X28194Y-22104D01*
X28458Y-22124D02*
X28240Y-22214D01*
X28341Y-22386D02*
X28267Y-22208D01*
X28430Y-22141D02*
X28503Y-22318D01*
X30283Y-22333D02*
X30328Y-22224D01*
X30328Y-22224D02*
X30110Y-22134D01*
X30065Y-22243D02*
X30110Y-22134D01*
X30283Y-22333D02*
X30065Y-22243D01*
X30405Y-22039D02*
X30450Y-21929D01*
X30450Y-21929D02*
X30232Y-21838D01*
X30187Y-21948D02*
X30232Y-21838D01*
X30405Y-22039D02*
X30187Y-21948D01*
X30137Y-22141D02*
X30211Y-21964D01*
X30373Y-22031D02*
X30300Y-22208D01*
X31694Y-23895D02*
X31803Y-23849D01*
X31803Y-23849D02*
X31713Y-23631D01*
X31604Y-23677D02*
X31713Y-23631D01*
X31694Y-23895D02*
X31604Y-23677D01*
X31989Y-23773D02*
X32099Y-23727D01*
X32099Y-23727D02*
X32009Y-23509D01*
X31899Y-23554D02*
X32009Y-23509D01*
X31989Y-23773D02*
X31899Y-23554D01*
X31728Y-23656D02*
X31905Y-23582D01*
X31972Y-23745D02*
X31795Y-23818D01*
X31425Y-25578D02*
X31534Y-25623D01*
X31534Y-25623D02*
X31625Y-25405D01*
X31516Y-25360D02*
X31625Y-25405D01*
X31425Y-25578D02*
X31516Y-25360D01*
X31720Y-25700D02*
X31830Y-25746D01*
X31830Y-25746D02*
X31920Y-25528D01*
X31810Y-25482D02*
X31920Y-25528D01*
X31720Y-25700D02*
X31810Y-25482D01*
X31618Y-25433D02*
X31795Y-25506D01*
X31728Y-25669D02*
X31550Y-25595D01*
X30041Y-26576D02*
X30087Y-26685D01*
X30087Y-26685D02*
X30305Y-26595D01*
X30259Y-26486D02*
X30305Y-26595D01*
X30041Y-26576D02*
X30259Y-26486D01*
X30164Y-26871D02*
X30209Y-26981D01*
X30209Y-26981D02*
X30427Y-26891D01*
X30382Y-26781D02*
X30427Y-26891D01*
X30164Y-26871D02*
X30382Y-26781D01*
X30280Y-26609D02*
X30354Y-26787D01*
X30191Y-26854D02*
X30118Y-26677D01*
X28378Y-26307D02*
X28332Y-26416D01*
X28332Y-26416D02*
X28550Y-26507D01*
X28596Y-26398D02*
X28550Y-26507D01*
X28378Y-26307D02*
X28596Y-26398D01*
X28255Y-26602D02*
X28210Y-26712D01*
X28210Y-26712D02*
X28428Y-26802D01*
X28474Y-26692D02*
X28428Y-26802D01*
X28255Y-26602D02*
X28474Y-26692D01*
X28523Y-26500D02*
X28450Y-26677D01*
X28287Y-26610D02*
X28360Y-26432D01*
X27360Y-24943D02*
X27251Y-24988D01*
X27251Y-24988D02*
X27341Y-25206D01*
X27450Y-25161D02*
X27341Y-25206D01*
X27360Y-24943D02*
X27450Y-25161D01*
X27065Y-25065D02*
X26955Y-25111D01*
X26955Y-25111D02*
X27045Y-25329D01*
X27155Y-25283D02*
X27045Y-25329D01*
X27065Y-25065D02*
X27155Y-25283D01*
X27327Y-25182D02*
X27149Y-25255D01*
X27082Y-25093D02*
X27259Y-25019D01*
X28993Y-22242D02*
X28948Y-22133D01*
X28948Y-22133D02*
X28730Y-22223D01*
X28775Y-22332D02*
X28730Y-22223D01*
X28993Y-22242D02*
X28775Y-22332D01*
X28871Y-21947D02*
X28825Y-21837D01*
X28825Y-21837D02*
X28607Y-21927D01*
X28653Y-22037D02*
X28607Y-21927D01*
X28871Y-21947D02*
X28653Y-22037D01*
X28754Y-22208D02*
X28681Y-22031D01*
X28843Y-21964D02*
X28917Y-22141D01*
G54D13*
G36*
X29825Y-22529D02*
X29832Y-22536D01*
X29837Y-22544D01*
X29842Y-22554D01*
X29845Y-22564D01*
X29847Y-22574D01*
X29849Y-22581D01*
X29849Y-22593D01*
X29847Y-22605D01*
X29845Y-22617D01*
X29842Y-22631D01*
X29837Y-22645D01*
X29832Y-22659D01*
X29825Y-22674D01*
X29817Y-22688D01*
X29815Y-22691D01*
X29814Y-22694D01*
X29813Y-22696D01*
X29812Y-22699D01*
X29812Y-22699D01*
X29812Y-22699D01*
X29815Y-22700D01*
X29819Y-22701D01*
X29823Y-22703D01*
X29828Y-22705D01*
X29834Y-22706D01*
X29839Y-22709D01*
X29843Y-22710D01*
X29846Y-22712D01*
X29846Y-22712D01*
X29860Y-22718D01*
X29872Y-22726D01*
X29883Y-22734D01*
X29893Y-22743D01*
X29902Y-22752D01*
X29909Y-22761D01*
X29916Y-22771D01*
X29922Y-22781D01*
X29926Y-22791D01*
X29928Y-22801D01*
X29929Y-22805D01*
X29930Y-22815D01*
X29928Y-22825D01*
X29927Y-22835D01*
X29924Y-22844D01*
X29918Y-22854D01*
X29912Y-22862D01*
X29904Y-22871D01*
X29895Y-22879D01*
X29884Y-22887D01*
X29875Y-22892D01*
X29866Y-22898D01*
X29853Y-22904D01*
X29840Y-22909D01*
X29829Y-22914D01*
X29624Y-22709D01*
X29619Y-22704D01*
X29614Y-22700D01*
X29611Y-22697D01*
X29600Y-22690D01*
X29588Y-22684D01*
X29575Y-22680D01*
X29563Y-22676D01*
X29549Y-22674D01*
X29537Y-22673D01*
X29524Y-22674D01*
X29511Y-22676D01*
X29499Y-22680D01*
X29486Y-22684D01*
X29477Y-22689D01*
X29465Y-22696D01*
X29455Y-22704D01*
X29446Y-22712D01*
X29438Y-22721D01*
X29431Y-22733D01*
X29425Y-22743D01*
X29420Y-22755D01*
X29417Y-22767D01*
X29414Y-22779D01*
X29413Y-22792D01*
X29413Y-22805D01*
X29414Y-22817D01*
X29417Y-22830D01*
X29421Y-22843D01*
X29424Y-22848D01*
X29429Y-22858D01*
X29435Y-22868D01*
X29443Y-22877D01*
X29449Y-22885D01*
X29458Y-22892D01*
X29467Y-22899D01*
X29476Y-22904D01*
X29486Y-22910D01*
X29497Y-22914D01*
X29499Y-22914D01*
X29511Y-22919D01*
X29524Y-22920D01*
X29537Y-22921D01*
X29551Y-22920D01*
X29563Y-22918D01*
X29576Y-22914D01*
X29588Y-22909D01*
X29600Y-22904D01*
X29611Y-22897D01*
X29618Y-22891D01*
X29620Y-22889D01*
X29622Y-22887D01*
X29622Y-22887D01*
X29623Y-22886D01*
X29623Y-22886D01*
X29624Y-22885D01*
X29627Y-22882D01*
X29629Y-22880D01*
X29629Y-22880D01*
X29638Y-22868D01*
X29644Y-22858D01*
X29650Y-22846D01*
X29654Y-22836D01*
X29658Y-22823D01*
X29660Y-22810D01*
X29660Y-22796D01*
X29660Y-22784D01*
X29658Y-22771D01*
X29654Y-22757D01*
X29649Y-22745D01*
X29643Y-22733D01*
X29636Y-22723D01*
X29632Y-22718D01*
X29629Y-22713D01*
X29624Y-22709D01*
X29829Y-22914D01*
X29827Y-22914D01*
X29813Y-22919D01*
X29810Y-22919D01*
X29807Y-22920D01*
X29804Y-22921D01*
X29802Y-22922D01*
X29800Y-22922D01*
X29800Y-22922D01*
X29801Y-22923D01*
X29802Y-22925D01*
X29803Y-22927D01*
X29804Y-22930D01*
X29811Y-22945D01*
X29817Y-22961D01*
X29822Y-22976D01*
X29825Y-22992D01*
X29827Y-23007D01*
X29827Y-23018D01*
X29827Y-23032D01*
X29825Y-23044D01*
X29822Y-23055D01*
X29817Y-23065D01*
X29814Y-23073D01*
X29811Y-23077D01*
X29808Y-23082D01*
X29803Y-23086D01*
X29799Y-23090D01*
X29796Y-23094D01*
X29793Y-23095D01*
X29785Y-23100D01*
X29775Y-23104D01*
X29764Y-23107D01*
X29753Y-23108D01*
X29741Y-23109D01*
X29729Y-23108D01*
X29716Y-23105D01*
X29703Y-23102D01*
X29689Y-23097D01*
X29680Y-23095D01*
X29675Y-23092D01*
X29668Y-23089D01*
X29660Y-23085D01*
X29653Y-23082D01*
X29647Y-23078D01*
X29641Y-23075D01*
X29634Y-23071D01*
X29631Y-23082D01*
X29625Y-23099D01*
X29618Y-23114D01*
X29610Y-23129D01*
X29600Y-23142D01*
X29597Y-23147D01*
X29593Y-23150D01*
X29590Y-23155D01*
X29584Y-23160D01*
X29580Y-23164D01*
X29576Y-23168D01*
X29571Y-23172D01*
X29569Y-23173D01*
X29559Y-23179D01*
X29548Y-23184D01*
X29538Y-23187D01*
X29528Y-23189D01*
X29518Y-23189D01*
X29508Y-23189D01*
X29498Y-23187D01*
X29488Y-23182D01*
X29479Y-23177D01*
X29474Y-23174D01*
X29467Y-23169D01*
X29462Y-23163D01*
X29455Y-23155D01*
X29449Y-23148D01*
X29443Y-23139D01*
X29441Y-23135D01*
X29436Y-23126D01*
X29431Y-23116D01*
X29426Y-23105D01*
X29422Y-23094D01*
X29419Y-23083D01*
X29414Y-23072D01*
X29414Y-23070D01*
X29413Y-23066D01*
X29413Y-23063D01*
X29412Y-23061D01*
X29412Y-23061D01*
X29412Y-23061D01*
X29410Y-23061D01*
X29409Y-23062D01*
X29407Y-23063D01*
X29405Y-23063D01*
X29397Y-23068D01*
X29390Y-23071D01*
X29380Y-23075D01*
X29372Y-23078D01*
X29358Y-23082D01*
X29344Y-23085D01*
X29331Y-23086D01*
X29318Y-23088D01*
X29306Y-23088D01*
X29294Y-23085D01*
X29283Y-23083D01*
X29272Y-23080D01*
X29263Y-23075D01*
X29254Y-23070D01*
X29247Y-23063D01*
X29244Y-23060D01*
X29238Y-23052D01*
X29233Y-23043D01*
X29229Y-23034D01*
X29227Y-23023D01*
X29226Y-23012D01*
X29226Y-23001D01*
X29226Y-22989D01*
X29228Y-22975D01*
X29232Y-22962D01*
X29236Y-22948D01*
X29243Y-22933D01*
X29250Y-22919D01*
X29257Y-22906D01*
X29262Y-22895D01*
X29251Y-22892D01*
X29235Y-22885D01*
X29220Y-22879D01*
X29207Y-22871D01*
X29195Y-22863D01*
X29183Y-22853D01*
X29173Y-22843D01*
X29172Y-22842D01*
X29164Y-22833D01*
X29157Y-22823D01*
X29151Y-22813D01*
X29147Y-22803D01*
X29145Y-22793D01*
X29144Y-22783D01*
X29144Y-22781D01*
X29144Y-22771D01*
X29146Y-22761D01*
X29150Y-22751D01*
X29155Y-22742D01*
X29161Y-22733D01*
X29168Y-22724D01*
X29178Y-22716D01*
X29187Y-22708D01*
X29191Y-22706D01*
X29201Y-22700D01*
X29211Y-22694D01*
X29224Y-22689D01*
X29236Y-22683D01*
X29250Y-22679D01*
X29262Y-22675D01*
X29265Y-22674D01*
X29269Y-22673D01*
X29272Y-22672D01*
X29273Y-22672D01*
X29273Y-22672D01*
X29273Y-22670D01*
X29272Y-22669D01*
X29271Y-22667D01*
X29270Y-22665D01*
X29263Y-22652D01*
X29258Y-22639D01*
X29254Y-22624D01*
X29250Y-22611D01*
X29248Y-22597D01*
X29246Y-22584D01*
X29246Y-22571D01*
X29247Y-22566D01*
X29248Y-22554D01*
X29250Y-22543D01*
X29254Y-22532D01*
X29259Y-22523D01*
X29264Y-22515D01*
X29270Y-22508D01*
X29277Y-22501D01*
X29286Y-22496D01*
X29296Y-22491D01*
X29306Y-22488D01*
X29309Y-22487D01*
X29320Y-22485D01*
X29332Y-22486D01*
X29344Y-22486D01*
X29357Y-22489D01*
X29371Y-22492D01*
X29385Y-22497D01*
X29400Y-22503D01*
X29415Y-22510D01*
X29426Y-22515D01*
X29439Y-22523D01*
X29443Y-22512D01*
X29448Y-22497D01*
X29453Y-22484D01*
X29460Y-22472D01*
X29467Y-22460D01*
X29475Y-22449D01*
X29483Y-22439D01*
X29491Y-22431D01*
X29501Y-22424D01*
X29511Y-22417D01*
X29520Y-22412D01*
X29530Y-22408D01*
X29540Y-22405D01*
X29549Y-22404D01*
X29559Y-22404D01*
X29569Y-22406D01*
X29578Y-22409D01*
X29588Y-22412D01*
X29598Y-22418D01*
X29606Y-22425D01*
X29615Y-22433D01*
X29622Y-22443D01*
X29629Y-22454D01*
X29637Y-22466D01*
X29644Y-22479D01*
X29649Y-22494D01*
X29655Y-22509D01*
X29658Y-22521D01*
X29660Y-22525D01*
X29660Y-22529D01*
X29661Y-22531D01*
X29662Y-22533D01*
X29662Y-22533D01*
X29663Y-22533D01*
X29665Y-22532D01*
X29667Y-22531D01*
X29673Y-22527D01*
X29680Y-22525D01*
X29688Y-22521D01*
X29697Y-22518D01*
X29706Y-22515D01*
X29714Y-22513D01*
X29718Y-22511D01*
X29732Y-22508D01*
X29746Y-22507D01*
X29759Y-22507D01*
X29772Y-22507D01*
X29784Y-22509D01*
X29784Y-22509D01*
X29791Y-22511D01*
X29797Y-22513D01*
X29804Y-22515D01*
X29808Y-22518D01*
X29817Y-22523D01*
X29825Y-22529D01*
X29825Y-22529D01*
X29825Y-22529D01*
G37*
%LPC*%
G54D14*
X28019Y-24592D03*
G54D15*
X28374Y-24720D03*
G54D16*
X28137Y-24129D03*
G54D17*
X32677Y-24409D03*
G54D18*
X31889Y-24222D03*
X32677Y-24596D03*
X31889Y-24596D03*
G54D10*
G36*
X31371Y-26685D02*
X31803Y-26253D01*
X32137Y-26587D01*
X31706Y-27019D01*
X31371Y-26685D01*
X31371Y-26685D01*
G37*
G36*
X31079Y-25864D02*
X31246Y-25697D01*
X31580Y-26031D01*
X31413Y-26198D01*
X31079Y-25864D01*
X31079Y-25864D01*
G37*
G36*
X31371Y-26685D02*
X31539Y-26518D01*
X31873Y-26852D01*
X31706Y-27019D01*
X31371Y-26685D01*
X31371Y-26685D01*
G37*
G36*
X30815Y-26128D02*
X30982Y-25961D01*
X31316Y-26295D01*
X31149Y-26462D01*
X30815Y-26128D01*
X30815Y-26128D01*
G37*
G54D19*
X29527Y-27559D03*
G54D20*
X29714Y-26771D03*
X29340Y-27559D03*
X29340Y-26771D03*
G54D10*
G36*
X27251Y-26253D02*
X27683Y-26685D01*
X27349Y-27019D01*
X26917Y-26587D01*
X27251Y-26253D01*
X27251Y-26253D01*
G37*
G36*
X28072Y-25961D02*
X28239Y-26128D01*
X27905Y-26462D01*
X27738Y-26295D01*
X28072Y-25961D01*
X28072Y-25961D01*
G37*
G36*
X27251Y-26253D02*
X27418Y-26420D01*
X27084Y-26754D01*
X26917Y-26587D01*
X27251Y-26253D01*
X27251Y-26253D01*
G37*
G36*
X27808Y-25697D02*
X27975Y-25864D01*
X27641Y-26198D01*
X27474Y-26031D01*
X27808Y-25697D01*
X27808Y-25697D01*
G37*
G54D17*
X26377Y-24409D03*
G54D18*
X27165Y-24596D03*
X26377Y-24222D03*
X27165Y-24222D03*
G54D10*
G36*
X31803Y-22565D02*
X31371Y-22133D01*
X31706Y-21799D01*
X32137Y-22230D01*
X31803Y-22565D01*
X31803Y-22565D01*
G37*
G36*
X30982Y-22857D02*
X30815Y-22690D01*
X31149Y-22356D01*
X31316Y-22523D01*
X30982Y-22857D01*
X30982Y-22857D01*
G37*
G36*
X31803Y-22565D02*
X31636Y-22397D01*
X31970Y-22063D01*
X32137Y-22230D01*
X31803Y-22565D01*
X31803Y-22565D01*
G37*
G36*
X31246Y-23121D02*
X31079Y-22954D01*
X31413Y-22620D01*
X31580Y-22787D01*
X31246Y-23121D01*
X31246Y-23121D01*
G37*
G36*
X27683Y-22133D02*
X27251Y-22565D01*
X26917Y-22230D01*
X27349Y-21799D01*
X27683Y-22133D01*
X27683Y-22133D01*
G37*
G36*
X27975Y-22954D02*
X27808Y-23121D01*
X27474Y-22787D01*
X27641Y-22620D01*
X27975Y-22954D01*
X27975Y-22954D01*
G37*
G36*
X27683Y-22133D02*
X27516Y-22300D01*
X27182Y-21966D01*
X27349Y-21799D01*
X27683Y-22133D01*
X27683Y-22133D01*
G37*
G36*
X28239Y-22690D02*
X28072Y-22857D01*
X27738Y-22523D01*
X27905Y-22356D01*
X28239Y-22690D01*
X28239Y-22690D01*
G37*
G54D19*
X29527Y-21259D03*
G54D20*
X29340Y-22047D03*
X29714Y-21259D03*
X29714Y-22047D03*
G54D21*
X29027Y-24659D03*
G54D22*
X29027Y-24159D03*
X29527Y-24659D03*
X29527Y-24159D03*
X30027Y-24659D03*
X30027Y-24159D03*
G54D23*
X28543Y-25393D03*
X28543Y-23425D03*
X30511Y-23425D03*
X30511Y-25393D03*
G54D10*
G36*
X30694Y-22615D02*
X30403Y-22494D01*
X30493Y-22276D01*
X30784Y-22396D01*
X30694Y-22615D01*
X30694Y-22615D01*
G37*
G36*
X30844Y-22251D02*
X30553Y-22130D01*
X30644Y-21912D01*
X30935Y-22033D01*
X30844Y-22251D01*
X30844Y-22251D01*
G37*
G36*
X31442Y-23553D02*
X31321Y-23262D01*
X31540Y-23172D01*
X31660Y-23463D01*
X31442Y-23553D01*
X31442Y-23553D01*
G37*
G36*
X31806Y-23402D02*
X31685Y-23111D01*
X31903Y-23021D01*
X32024Y-23312D01*
X31806Y-23402D01*
X31806Y-23402D01*
G37*
G36*
X31499Y-25162D02*
X31619Y-24871D01*
X31837Y-24962D01*
X31717Y-25253D01*
X31499Y-25162D01*
X31499Y-25162D01*
G37*
G36*
X31862Y-25313D02*
X31983Y-25022D01*
X32201Y-25112D01*
X32081Y-25403D01*
X31862Y-25313D01*
X31862Y-25313D01*
G37*
G36*
X30383Y-26324D02*
X30674Y-26203D01*
X30764Y-26422D01*
X30473Y-26542D01*
X30383Y-26324D01*
X30383Y-26324D01*
G37*
G36*
X30534Y-26688D02*
X30825Y-26567D01*
X30915Y-26785D01*
X30624Y-26906D01*
X30534Y-26688D01*
X30534Y-26688D01*
G37*
G36*
X28793Y-26381D02*
X29084Y-26501D01*
X28994Y-26719D01*
X28703Y-26599D01*
X28793Y-26381D01*
X28793Y-26381D01*
G37*
G36*
X28643Y-26744D02*
X28934Y-26865D01*
X28843Y-27083D01*
X28552Y-26963D01*
X28643Y-26744D01*
X28643Y-26744D01*
G37*
G36*
X27612Y-25285D02*
X27733Y-25576D01*
X27514Y-25666D01*
X27394Y-25375D01*
X27612Y-25285D01*
X27612Y-25285D01*
G37*
G36*
X27248Y-25435D02*
X27369Y-25726D01*
X27151Y-25817D01*
X27030Y-25526D01*
X27248Y-25435D01*
X27248Y-25435D01*
G37*
G36*
X27733Y-23262D02*
X27612Y-23553D01*
X27394Y-23463D01*
X27514Y-23172D01*
X27733Y-23262D01*
X27733Y-23262D01*
G37*
G36*
X27369Y-23111D02*
X27248Y-23402D01*
X27030Y-23312D01*
X27151Y-23021D01*
X27369Y-23111D01*
X27369Y-23111D01*
G37*
G36*
X27555Y-23675D02*
X27435Y-23966D01*
X27217Y-23876D01*
X27337Y-23585D01*
X27555Y-23675D01*
X27555Y-23675D01*
G37*
G36*
X27192Y-23525D02*
X27071Y-23816D01*
X26853Y-23725D01*
X26974Y-23434D01*
X27192Y-23525D01*
X27192Y-23525D01*
G37*
G36*
X28651Y-22494D02*
X28360Y-22615D01*
X28270Y-22396D01*
X28561Y-22276D01*
X28651Y-22494D01*
X28651Y-22494D01*
G37*
G36*
X28501Y-22130D02*
X28210Y-22251D01*
X28119Y-22033D01*
X28410Y-21912D01*
X28501Y-22130D01*
X28501Y-22130D01*
G37*
G36*
X30280Y-22437D02*
X29989Y-22317D01*
X30080Y-22099D01*
X30371Y-22219D01*
X30280Y-22437D01*
X30280Y-22437D01*
G37*
G36*
X30431Y-22074D02*
X30140Y-21953D01*
X30230Y-21735D01*
X30521Y-21855D01*
X30431Y-22074D01*
X30431Y-22074D01*
G37*
G36*
X31619Y-23966D02*
X31499Y-23675D01*
X31717Y-23585D01*
X31837Y-23876D01*
X31619Y-23966D01*
X31619Y-23966D01*
G37*
G36*
X31983Y-23816D02*
X31862Y-23525D01*
X32081Y-23434D01*
X32201Y-23725D01*
X31983Y-23816D01*
X31983Y-23816D01*
G37*
G36*
X31321Y-25576D02*
X31442Y-25285D01*
X31660Y-25375D01*
X31540Y-25666D01*
X31321Y-25576D01*
X31321Y-25576D01*
G37*
G36*
X31685Y-25726D02*
X31806Y-25435D01*
X32024Y-25526D01*
X31903Y-25817D01*
X31685Y-25726D01*
X31685Y-25726D01*
G37*
G36*
X29970Y-26501D02*
X30261Y-26381D01*
X30351Y-26599D01*
X30060Y-26719D01*
X29970Y-26501D01*
X29970Y-26501D01*
G37*
G36*
X30120Y-26865D02*
X30411Y-26744D01*
X30502Y-26963D01*
X30211Y-27083D01*
X30120Y-26865D01*
X30120Y-26865D01*
G37*
G36*
X28380Y-26203D02*
X28671Y-26324D01*
X28581Y-26542D01*
X28290Y-26422D01*
X28380Y-26203D01*
X28380Y-26203D01*
G37*
G36*
X28229Y-26567D02*
X28520Y-26688D01*
X28430Y-26906D01*
X28139Y-26785D01*
X28229Y-26567D01*
X28229Y-26567D01*
G37*
G36*
X27435Y-24871D02*
X27555Y-25162D01*
X27337Y-25253D01*
X27217Y-24962D01*
X27435Y-24871D01*
X27435Y-24871D01*
G37*
G36*
X27071Y-25022D02*
X27192Y-25313D01*
X26974Y-25403D01*
X26853Y-25112D01*
X27071Y-25022D01*
X27071Y-25022D01*
G37*
G36*
X29065Y-22317D02*
X28774Y-22437D01*
X28683Y-22219D01*
X28974Y-22099D01*
X29065Y-22317D01*
X29065Y-22317D01*
G37*
G36*
X28914Y-21953D02*
X28623Y-22074D01*
X28533Y-21855D01*
X28824Y-21735D01*
X28914Y-21953D01*
X28914Y-21953D01*
G37*
M02*
