G04 #@! TF.FileFunction,Legend,Top*
%FSLAX46Y46*%
G04 Gerber Fmt 4.6, Leading zero omitted, Abs format (unit mm)*
G04 Created by KiCad (PCBNEW (2016-04-07 BZR 6673, Git 973786d)-product) date Fri 08 Apr 2016 06:49:24 PM CEST*
%MOMM*%
G01*
G04 APERTURE LIST*
%ADD10C,0.150000*%
%ADD11C,0.200000*%
%ADD12C,0.100000*%
%ADD13C,0.002540*%
%ADD14C,2.000000*%
%ADD15C,0.850000*%
%ADD16R,1.500000X1.200000*%
%ADD17R,1.200000X1.500000*%
G04 APERTURE END LIST*
D10*
D11*
X75700000Y-65700000D02*
X75700000Y-65400000D01*
X75700000Y-65700000D02*
X75400000Y-65700000D01*
X75615291Y-65579023D02*
G75*
G03X75700000Y-66500000I-615291J-520977D01*
G01*
X72668279Y-55479641D02*
X73251489Y-56887633D01*
X73251489Y-56887633D02*
X72547492Y-57179238D01*
X72547492Y-57179238D02*
X71964283Y-55771246D01*
X71964283Y-55771246D02*
X72668279Y-55479641D01*
X68776986Y-59030425D02*
X70184978Y-59613634D01*
X70184978Y-59613634D02*
X69893374Y-60317630D01*
X69893374Y-60317630D02*
X68485381Y-59734421D01*
X68485381Y-59734421D02*
X68776986Y-59030425D01*
X68469641Y-64301721D02*
X69877633Y-63718511D01*
X69877633Y-63718511D02*
X70169238Y-64422508D01*
X70169238Y-64422508D02*
X68761246Y-65005717D01*
X68761246Y-65005717D02*
X68469641Y-64301721D01*
X72010425Y-68253014D02*
X72593634Y-66845022D01*
X72593634Y-66845022D02*
X73297630Y-67136626D01*
X73297630Y-67136626D02*
X72714421Y-68544619D01*
X72714421Y-68544619D02*
X72010425Y-68253014D01*
X77281721Y-68510359D02*
X76698511Y-67102367D01*
X76698511Y-67102367D02*
X77402508Y-66810762D01*
X77402508Y-66810762D02*
X77985717Y-68218754D01*
X77985717Y-68218754D02*
X77281721Y-68510359D01*
X81183014Y-64999575D02*
X79775022Y-64416366D01*
X79775022Y-64416366D02*
X80066626Y-63712370D01*
X80066626Y-63712370D02*
X81474619Y-64295579D01*
X81474619Y-64295579D02*
X81183014Y-64999575D01*
X78019575Y-55796986D02*
X77436366Y-57204978D01*
X77436366Y-57204978D02*
X76732370Y-56913374D01*
X76732370Y-56913374D02*
X77315579Y-55505381D01*
X77315579Y-55505381D02*
X78019575Y-55796986D01*
X81570359Y-59728279D02*
X80162367Y-60311489D01*
X80162367Y-60311489D02*
X79870762Y-59607492D01*
X79870762Y-59607492D02*
X81278754Y-59024283D01*
X81278754Y-59024283D02*
X81570359Y-59728279D01*
D12*
X79154505Y-67038388D02*
X79861612Y-67745495D01*
X80038388Y-66154505D02*
X80745495Y-66861612D01*
X80745495Y-66861612D02*
X81099049Y-67215165D01*
X80215165Y-68099049D02*
X79861612Y-67745495D01*
X79684835Y-65800951D02*
X80038388Y-66154505D01*
X78800951Y-66684835D02*
X79154505Y-67038388D01*
X80038388Y-66154505D02*
X79154505Y-67038388D01*
X79861612Y-67745495D02*
X80745495Y-66861612D01*
X81099049Y-67215165D02*
X80904594Y-67409619D01*
X80409619Y-67904594D02*
X80215165Y-68099049D01*
X78800951Y-66684835D02*
X78995406Y-66490381D01*
X79684835Y-65800951D02*
X79490381Y-65995406D01*
X80090757Y-66950665D02*
X79950665Y-67090757D01*
X79950665Y-67090757D02*
X80090757Y-67230849D01*
X80230849Y-67090757D02*
X80090757Y-67230849D01*
X80090757Y-66950665D02*
X80230849Y-67090757D01*
X80901907Y-67409789D02*
G75*
G03X80409789Y-67901907I-246059J-246059D01*
G01*
X78998093Y-66490211D02*
G75*
G03X79490211Y-65998093I246059J246059D01*
G01*
X74375000Y-68500000D02*
X74375000Y-69500000D01*
X75625000Y-68500000D02*
X75625000Y-69500000D01*
X75625000Y-69500000D02*
X75625000Y-70000000D01*
X74375000Y-70000000D02*
X74375000Y-69500000D01*
X75625000Y-68000000D02*
X75625000Y-68500000D01*
X74375000Y-68000000D02*
X74375000Y-68500000D01*
X75625000Y-68500000D02*
X74375000Y-68500000D01*
X74375000Y-69500000D02*
X75625000Y-69500000D01*
X75625000Y-70000000D02*
X75350000Y-70000000D01*
X74650000Y-70000000D02*
X74375000Y-70000000D01*
X74375000Y-68000000D02*
X74650000Y-68000000D01*
X75625000Y-68000000D02*
X75350000Y-68000000D01*
X75099060Y-69100000D02*
X74900940Y-69100000D01*
X74900940Y-69100000D02*
X74900940Y-69298120D01*
X75099060Y-69298120D02*
X74900940Y-69298120D01*
X75099060Y-69100000D02*
X75099060Y-69298120D01*
X75347980Y-69998220D02*
G75*
G03X74652020Y-69998220I-347980J0D01*
G01*
X74652020Y-68001780D02*
G75*
G03X75347980Y-68001780I347980J0D01*
G01*
X69961612Y-66154505D02*
X69254505Y-66861612D01*
X70845495Y-67038388D02*
X70138388Y-67745495D01*
X70138388Y-67745495D02*
X69784835Y-68099049D01*
X68900951Y-67215165D02*
X69254505Y-66861612D01*
X71199049Y-66684835D02*
X70845495Y-67038388D01*
X70315165Y-65800951D02*
X69961612Y-66154505D01*
X70845495Y-67038388D02*
X69961612Y-66154505D01*
X69254505Y-66861612D02*
X70138388Y-67745495D01*
X69784835Y-68099049D02*
X69590381Y-67904594D01*
X69095406Y-67409619D02*
X68900951Y-67215165D01*
X70315165Y-65800951D02*
X70509619Y-65995406D01*
X71199049Y-66684835D02*
X71004594Y-66490381D01*
X70049335Y-67090757D02*
X69909243Y-66950665D01*
X69909243Y-66950665D02*
X69769151Y-67090757D01*
X69909243Y-67230849D02*
X69769151Y-67090757D01*
X70049335Y-67090757D02*
X69909243Y-67230849D01*
X69590211Y-67901907D02*
G75*
G03X69098093Y-67409789I-246059J246059D01*
G01*
X70509789Y-65998093D02*
G75*
G03X71001907Y-66490211I246059J-246059D01*
G01*
X68500000Y-61375000D02*
X67500000Y-61375000D01*
X68500000Y-62625000D02*
X67500000Y-62625000D01*
X67500000Y-62625000D02*
X67000000Y-62625000D01*
X67000000Y-61375000D02*
X67500000Y-61375000D01*
X69000000Y-62625000D02*
X68500000Y-62625000D01*
X69000000Y-61375000D02*
X68500000Y-61375000D01*
X68500000Y-62625000D02*
X68500000Y-61375000D01*
X67500000Y-61375000D02*
X67500000Y-62625000D01*
X67000000Y-62625000D02*
X67000000Y-62350000D01*
X67000000Y-61650000D02*
X67000000Y-61375000D01*
X69000000Y-61375000D02*
X69000000Y-61650000D01*
X69000000Y-62625000D02*
X69000000Y-62350000D01*
X67900000Y-62099060D02*
X67900000Y-61900940D01*
X67900000Y-61900940D02*
X67701880Y-61900940D01*
X67701880Y-62099060D02*
X67701880Y-61900940D01*
X67900000Y-62099060D02*
X67701880Y-62099060D01*
X67001780Y-62347980D02*
G75*
G03X67001780Y-61652020I0J347980D01*
G01*
X68998220Y-61652020D02*
G75*
G03X68998220Y-62347980I0J-347980D01*
G01*
X70845495Y-56961612D02*
X70138388Y-56254505D01*
X69961612Y-57845495D02*
X69254505Y-57138388D01*
X69254505Y-57138388D02*
X68900951Y-56784835D01*
X69784835Y-55900951D02*
X70138388Y-56254505D01*
X70315165Y-58199049D02*
X69961612Y-57845495D01*
X71199049Y-57315165D02*
X70845495Y-56961612D01*
X69961612Y-57845495D02*
X70845495Y-56961612D01*
X70138388Y-56254505D02*
X69254505Y-57138388D01*
X68900951Y-56784835D02*
X69095406Y-56590381D01*
X69590381Y-56095406D02*
X69784835Y-55900951D01*
X71199049Y-57315165D02*
X71004594Y-57509619D01*
X70315165Y-58199049D02*
X70509619Y-58004594D01*
X69909243Y-57049335D02*
X70049335Y-56909243D01*
X70049335Y-56909243D02*
X69909243Y-56769151D01*
X69769151Y-56909243D02*
X69909243Y-56769151D01*
X69909243Y-57049335D02*
X69769151Y-56909243D01*
X69098093Y-56590211D02*
G75*
G03X69590211Y-56098093I246059J246059D01*
G01*
X71001907Y-57509789D02*
G75*
G03X70509789Y-58001907I-246059J-246059D01*
G01*
X81500000Y-62625000D02*
X82500000Y-62625000D01*
X81500000Y-61375000D02*
X82500000Y-61375000D01*
X82500000Y-61375000D02*
X83000000Y-61375000D01*
X83000000Y-62625000D02*
X82500000Y-62625000D01*
X81000000Y-61375000D02*
X81500000Y-61375000D01*
X81000000Y-62625000D02*
X81500000Y-62625000D01*
X81500000Y-61375000D02*
X81500000Y-62625000D01*
X82500000Y-62625000D02*
X82500000Y-61375000D01*
X83000000Y-61375000D02*
X83000000Y-61650000D01*
X83000000Y-62350000D02*
X83000000Y-62625000D01*
X81000000Y-62625000D02*
X81000000Y-62350000D01*
X81000000Y-61375000D02*
X81000000Y-61650000D01*
X82100000Y-61900940D02*
X82100000Y-62099060D01*
X82100000Y-62099060D02*
X82298120Y-62099060D01*
X82298120Y-61900940D02*
X82298120Y-62099060D01*
X82100000Y-61900940D02*
X82298120Y-61900940D01*
X82998220Y-61652020D02*
G75*
G03X82998220Y-62347980I0J-347980D01*
G01*
X81001780Y-62347980D02*
G75*
G03X81001780Y-61652020I0J347980D01*
G01*
X80038388Y-57845495D02*
X80745495Y-57138388D01*
X79154505Y-56961612D02*
X79861612Y-56254505D01*
X79861612Y-56254505D02*
X80215165Y-55900951D01*
X81099049Y-56784835D02*
X80745495Y-57138388D01*
X78800951Y-57315165D02*
X79154505Y-56961612D01*
X79684835Y-58199049D02*
X80038388Y-57845495D01*
X79154505Y-56961612D02*
X80038388Y-57845495D01*
X80745495Y-57138388D02*
X79861612Y-56254505D01*
X80215165Y-55900951D02*
X80409619Y-56095406D01*
X80904594Y-56590381D02*
X81099049Y-56784835D01*
X79684835Y-58199049D02*
X79490381Y-58004594D01*
X78800951Y-57315165D02*
X78995406Y-57509619D01*
X79950665Y-56909243D02*
X80090757Y-57049335D01*
X80090757Y-57049335D02*
X80230849Y-56909243D01*
X80090757Y-56769151D02*
X80230849Y-56909243D01*
X79950665Y-56909243D02*
X80090757Y-56769151D01*
X80409789Y-56098093D02*
G75*
G03X80901907Y-56590211I246059J-246059D01*
G01*
X79490211Y-58001907D02*
G75*
G03X78998093Y-57509789I-246059J246059D01*
G01*
X75625000Y-55500000D02*
X75625000Y-54500000D01*
X74375000Y-55500000D02*
X74375000Y-54500000D01*
X74375000Y-54500000D02*
X74375000Y-54000000D01*
X75625000Y-54000000D02*
X75625000Y-54500000D01*
X74375000Y-56000000D02*
X74375000Y-55500000D01*
X75625000Y-56000000D02*
X75625000Y-55500000D01*
X74375000Y-55500000D02*
X75625000Y-55500000D01*
X75625000Y-54500000D02*
X74375000Y-54500000D01*
X74375000Y-54000000D02*
X74650000Y-54000000D01*
X75350000Y-54000000D02*
X75625000Y-54000000D01*
X75625000Y-56000000D02*
X75350000Y-56000000D01*
X74375000Y-56000000D02*
X74650000Y-56000000D01*
X74900940Y-54900000D02*
X75099060Y-54900000D01*
X75099060Y-54900000D02*
X75099060Y-54701880D01*
X74900940Y-54701880D02*
X75099060Y-54701880D01*
X74900940Y-54900000D02*
X74900940Y-54701880D01*
X74652020Y-54001780D02*
G75*
G03X75347980Y-54001780I347980J0D01*
G01*
X75347980Y-55998220D02*
G75*
G03X74652020Y-55998220I-347980J0D01*
G01*
D13*
G36*
X75755605Y-57224685D02*
X75773565Y-57242645D01*
X75787934Y-57264198D01*
X75800506Y-57287547D01*
X75807690Y-57312691D01*
X75813078Y-57339632D01*
X75816670Y-57357593D01*
X75816670Y-57386329D01*
X75813078Y-57418658D01*
X75807690Y-57449191D01*
X75798710Y-57483316D01*
X75787934Y-57519237D01*
X75773565Y-57555158D01*
X75757401Y-57592875D01*
X75735848Y-57628796D01*
X75732256Y-57635980D01*
X75728664Y-57643165D01*
X75725072Y-57650349D01*
X75723276Y-57655737D01*
X75723276Y-57655737D01*
X75723276Y-57655737D01*
X75730460Y-57659329D01*
X75741236Y-57662921D01*
X75752013Y-57666513D01*
X75764585Y-57671901D01*
X75778953Y-57675494D01*
X75791526Y-57680882D01*
X75802302Y-57684474D01*
X75811282Y-57689862D01*
X75811282Y-57689862D01*
X75845407Y-57706026D01*
X75875940Y-57725783D01*
X75902881Y-57745540D01*
X75929822Y-57768888D01*
X75951374Y-57790441D01*
X75971131Y-57813790D01*
X75989091Y-57838934D01*
X76003460Y-57864079D01*
X76014236Y-57889224D01*
X76019624Y-57916164D01*
X76021420Y-57925145D01*
X76023216Y-57952085D01*
X76019624Y-57977230D01*
X76016032Y-58002375D01*
X76007052Y-58025724D01*
X75992683Y-58050868D01*
X75976519Y-58070625D01*
X75956762Y-58093974D01*
X75933414Y-58113730D01*
X75906473Y-58133487D01*
X75884920Y-58147855D01*
X75859776Y-58162223D01*
X75827447Y-58176592D01*
X75795118Y-58190960D01*
X75766381Y-58201737D01*
X75245526Y-57680882D01*
X75232954Y-57668309D01*
X75220381Y-57659329D01*
X75213197Y-57652145D01*
X75184460Y-57634184D01*
X75153928Y-57618020D01*
X75121599Y-57607244D01*
X75091066Y-57598263D01*
X75056941Y-57592875D01*
X75026408Y-57591079D01*
X74992283Y-57592875D01*
X74958158Y-57598263D01*
X74927625Y-57607244D01*
X74895296Y-57618020D01*
X74871947Y-57630592D01*
X74843211Y-57648553D01*
X74816270Y-57668309D01*
X74794717Y-57689862D01*
X74774961Y-57713211D01*
X74757000Y-57741947D01*
X74740836Y-57768888D01*
X74728263Y-57799421D01*
X74719283Y-57829954D01*
X74713895Y-57860487D01*
X74710303Y-57892816D01*
X74710303Y-57925145D01*
X74713895Y-57957474D01*
X74721079Y-57989803D01*
X74731855Y-58022131D01*
X74737244Y-58034704D01*
X74751612Y-58059849D01*
X74765980Y-58084993D01*
X74785737Y-58108342D01*
X74801901Y-58128099D01*
X74823454Y-58146059D01*
X74846803Y-58165816D01*
X74870151Y-58178388D01*
X74895296Y-58192756D01*
X74924033Y-58203533D01*
X74927625Y-58203533D01*
X74959954Y-58214309D01*
X74992283Y-58217901D01*
X75026408Y-58219697D01*
X75060533Y-58217901D01*
X75091066Y-58212513D01*
X75125191Y-58203533D01*
X75155724Y-58190960D01*
X75184460Y-58176592D01*
X75213197Y-58158631D01*
X75231158Y-58144263D01*
X75236546Y-58138875D01*
X75240138Y-58135283D01*
X75241934Y-58133487D01*
X75243730Y-58131691D01*
X75243730Y-58131691D01*
X75247322Y-58128099D01*
X75252710Y-58122710D01*
X75258099Y-58117322D01*
X75259895Y-58115526D01*
X75281447Y-58086789D01*
X75297612Y-58059849D01*
X75311980Y-58031112D01*
X75322756Y-58005967D01*
X75331737Y-57971842D01*
X75337125Y-57937717D01*
X75338921Y-57903592D01*
X75337125Y-57873059D01*
X75331737Y-57838934D01*
X75322756Y-57804809D01*
X75310184Y-57774276D01*
X75294020Y-57743744D01*
X75277855Y-57716803D01*
X75267079Y-57706026D01*
X75258099Y-57693454D01*
X75245526Y-57680882D01*
X75766381Y-58201737D01*
X75760993Y-58203533D01*
X75725072Y-58214309D01*
X75719684Y-58216105D01*
X75710703Y-58217901D01*
X75703519Y-58221493D01*
X75698131Y-58223289D01*
X75694539Y-58223289D01*
X75694539Y-58223289D01*
X75696335Y-58225085D01*
X75698131Y-58230473D01*
X75699927Y-58235862D01*
X75703519Y-58243046D01*
X75721480Y-58282559D01*
X75735848Y-58322072D01*
X75748420Y-58359789D01*
X75757401Y-58401098D01*
X75762789Y-58438815D01*
X75762789Y-58467552D01*
X75760993Y-58501677D01*
X75755605Y-58532210D01*
X75748420Y-58560947D01*
X75737644Y-58586092D01*
X75728664Y-58605848D01*
X75721480Y-58616624D01*
X75712499Y-58629197D01*
X75701723Y-58639973D01*
X75690947Y-58650749D01*
X75681967Y-58659730D01*
X75676578Y-58661526D01*
X75655026Y-58675894D01*
X75629881Y-58686670D01*
X75602940Y-58692059D01*
X75574204Y-58695651D01*
X75543671Y-58697447D01*
X75513138Y-58695651D01*
X75480809Y-58688466D01*
X75446684Y-58679486D01*
X75410763Y-58668710D01*
X75389210Y-58661526D01*
X75374842Y-58654342D01*
X75356881Y-58647157D01*
X75338921Y-58636381D01*
X75320960Y-58629197D01*
X75304796Y-58620217D01*
X75290427Y-58613032D01*
X75272467Y-58602256D01*
X75263487Y-58629197D01*
X75249118Y-58672302D01*
X75231158Y-58711815D01*
X75209605Y-58747736D01*
X75186256Y-58781861D01*
X75177276Y-58794434D01*
X75168296Y-58803414D01*
X75159316Y-58815986D01*
X75144947Y-58826762D01*
X75134171Y-58837539D01*
X75123395Y-58848315D01*
X75110822Y-58857295D01*
X75107230Y-58860887D01*
X75080289Y-58877052D01*
X75053349Y-58889624D01*
X75028204Y-58896808D01*
X75001263Y-58902197D01*
X74976118Y-58902197D01*
X74950974Y-58902197D01*
X74925829Y-58895012D01*
X74900684Y-58884236D01*
X74877336Y-58871664D01*
X74864763Y-58862683D01*
X74848599Y-58850111D01*
X74834230Y-58835743D01*
X74818066Y-58815986D01*
X74801901Y-58796230D01*
X74787533Y-58774677D01*
X74780349Y-58763901D01*
X74767777Y-58740552D01*
X74757000Y-58715407D01*
X74744428Y-58688466D01*
X74733652Y-58659730D01*
X74724671Y-58632789D01*
X74713895Y-58604052D01*
X74712099Y-58598664D01*
X74710303Y-58589684D01*
X74710303Y-58582499D01*
X74708507Y-58577111D01*
X74706711Y-58575315D01*
X74706711Y-58575315D01*
X74703119Y-58575315D01*
X74699527Y-58578907D01*
X74694138Y-58580703D01*
X74688750Y-58582499D01*
X74670790Y-58593276D01*
X74651033Y-58602256D01*
X74627685Y-58611236D01*
X74606132Y-58618420D01*
X74570211Y-58629197D01*
X74534290Y-58636381D01*
X74501961Y-58639973D01*
X74469632Y-58643565D01*
X74437303Y-58643565D01*
X74406770Y-58638177D01*
X74379829Y-58632789D01*
X74352889Y-58623809D01*
X74329540Y-58611236D01*
X74306191Y-58598664D01*
X74288231Y-58580703D01*
X74281047Y-58573519D01*
X74264882Y-58553763D01*
X74252310Y-58530414D01*
X74243330Y-58507065D01*
X74237941Y-58480125D01*
X74234349Y-58451388D01*
X74234349Y-58422651D01*
X74236145Y-58392118D01*
X74241534Y-58357993D01*
X74250514Y-58323868D01*
X74261290Y-58287947D01*
X74277455Y-58250230D01*
X74295415Y-58214309D01*
X74313376Y-58181980D01*
X74325948Y-58155039D01*
X74299007Y-58146059D01*
X74257698Y-58129895D01*
X74219981Y-58113730D01*
X74185856Y-58093974D01*
X74155323Y-58074217D01*
X74126586Y-58049072D01*
X74099645Y-58022131D01*
X74097849Y-58020335D01*
X74078093Y-57996987D01*
X74060132Y-57971842D01*
X74045764Y-57946697D01*
X74034988Y-57921553D01*
X74029599Y-57894612D01*
X74026007Y-57869467D01*
X74026007Y-57865875D01*
X74027803Y-57838934D01*
X74031396Y-57813790D01*
X74042172Y-57788645D01*
X74054744Y-57765296D01*
X74070909Y-57741947D01*
X74088869Y-57720395D01*
X74112218Y-57700638D01*
X74137363Y-57679086D01*
X74146343Y-57673698D01*
X74171488Y-57659329D01*
X74198428Y-57643165D01*
X74228961Y-57630592D01*
X74261290Y-57616224D01*
X74297211Y-57605448D01*
X74327744Y-57596467D01*
X74334928Y-57592875D01*
X74343908Y-57591079D01*
X74351093Y-57587487D01*
X74354685Y-57587487D01*
X74354685Y-57587487D01*
X74354685Y-57583895D01*
X74351093Y-57580303D01*
X74349297Y-57574915D01*
X74347501Y-57569527D01*
X74329540Y-57537198D01*
X74316968Y-57503073D01*
X74306191Y-57467152D01*
X74297211Y-57433027D01*
X74291823Y-57398902D01*
X74286435Y-57364777D01*
X74286435Y-57332448D01*
X74288231Y-57319875D01*
X74290027Y-57289343D01*
X74297211Y-57260606D01*
X74306191Y-57233665D01*
X74318764Y-57210316D01*
X74331336Y-57190560D01*
X74347501Y-57170803D01*
X74365461Y-57152843D01*
X74388810Y-57140270D01*
X74412158Y-57127698D01*
X74437303Y-57120514D01*
X74446283Y-57118718D01*
X74473224Y-57113330D01*
X74503757Y-57115126D01*
X74536086Y-57115126D01*
X74568415Y-57122310D01*
X74602540Y-57131290D01*
X74640257Y-57143862D01*
X74676178Y-57158231D01*
X74715691Y-57176191D01*
X74744428Y-57190560D01*
X74776757Y-57208520D01*
X74785737Y-57181580D01*
X74798309Y-57143862D01*
X74812678Y-57111534D01*
X74830638Y-57079205D01*
X74848599Y-57050468D01*
X74866559Y-57021731D01*
X74888112Y-56996586D01*
X74909665Y-56975034D01*
X74934809Y-56957073D01*
X74958158Y-56940909D01*
X74981507Y-56928336D01*
X75006651Y-56917560D01*
X75031796Y-56910376D01*
X75056941Y-56906784D01*
X75082085Y-56906784D01*
X75105434Y-56912172D01*
X75130579Y-56919356D01*
X75153928Y-56928336D01*
X75179072Y-56942705D01*
X75200625Y-56960665D01*
X75222177Y-56982218D01*
X75241934Y-57005566D01*
X75259895Y-57034303D01*
X75279651Y-57064836D01*
X75295816Y-57098961D01*
X75310184Y-57134882D01*
X75324552Y-57174395D01*
X75333533Y-57204928D01*
X75337125Y-57215704D01*
X75338921Y-57224685D01*
X75340717Y-57230073D01*
X75342513Y-57235461D01*
X75342513Y-57235461D01*
X75346105Y-57235461D01*
X75349697Y-57231869D01*
X75355085Y-57230073D01*
X75371250Y-57221093D01*
X75389210Y-57213908D01*
X75408967Y-57204928D01*
X75432315Y-57195948D01*
X75453868Y-57188764D01*
X75473625Y-57183376D01*
X75484401Y-57179783D01*
X75520322Y-57172599D01*
X75556243Y-57169007D01*
X75588572Y-57169007D01*
X75620901Y-57169007D01*
X75651434Y-57174395D01*
X75651434Y-57174395D01*
X75671190Y-57179783D01*
X75685559Y-57183376D01*
X75703519Y-57190560D01*
X75712499Y-57195948D01*
X75735848Y-57208520D01*
X75755605Y-57224685D01*
X75755605Y-57224685D01*
X75755605Y-57224685D01*
G37*
X75755605Y-57224685D02*
X75773565Y-57242645D01*
X75787934Y-57264198D01*
X75800506Y-57287547D01*
X75807690Y-57312691D01*
X75813078Y-57339632D01*
X75816670Y-57357593D01*
X75816670Y-57386329D01*
X75813078Y-57418658D01*
X75807690Y-57449191D01*
X75798710Y-57483316D01*
X75787934Y-57519237D01*
X75773565Y-57555158D01*
X75757401Y-57592875D01*
X75735848Y-57628796D01*
X75732256Y-57635980D01*
X75728664Y-57643165D01*
X75725072Y-57650349D01*
X75723276Y-57655737D01*
X75723276Y-57655737D01*
X75723276Y-57655737D01*
X75730460Y-57659329D01*
X75741236Y-57662921D01*
X75752013Y-57666513D01*
X75764585Y-57671901D01*
X75778953Y-57675494D01*
X75791526Y-57680882D01*
X75802302Y-57684474D01*
X75811282Y-57689862D01*
X75811282Y-57689862D01*
X75845407Y-57706026D01*
X75875940Y-57725783D01*
X75902881Y-57745540D01*
X75929822Y-57768888D01*
X75951374Y-57790441D01*
X75971131Y-57813790D01*
X75989091Y-57838934D01*
X76003460Y-57864079D01*
X76014236Y-57889224D01*
X76019624Y-57916164D01*
X76021420Y-57925145D01*
X76023216Y-57952085D01*
X76019624Y-57977230D01*
X76016032Y-58002375D01*
X76007052Y-58025724D01*
X75992683Y-58050868D01*
X75976519Y-58070625D01*
X75956762Y-58093974D01*
X75933414Y-58113730D01*
X75906473Y-58133487D01*
X75884920Y-58147855D01*
X75859776Y-58162223D01*
X75827447Y-58176592D01*
X75795118Y-58190960D01*
X75766381Y-58201737D01*
X75245526Y-57680882D01*
X75232954Y-57668309D01*
X75220381Y-57659329D01*
X75213197Y-57652145D01*
X75184460Y-57634184D01*
X75153928Y-57618020D01*
X75121599Y-57607244D01*
X75091066Y-57598263D01*
X75056941Y-57592875D01*
X75026408Y-57591079D01*
X74992283Y-57592875D01*
X74958158Y-57598263D01*
X74927625Y-57607244D01*
X74895296Y-57618020D01*
X74871947Y-57630592D01*
X74843211Y-57648553D01*
X74816270Y-57668309D01*
X74794717Y-57689862D01*
X74774961Y-57713211D01*
X74757000Y-57741947D01*
X74740836Y-57768888D01*
X74728263Y-57799421D01*
X74719283Y-57829954D01*
X74713895Y-57860487D01*
X74710303Y-57892816D01*
X74710303Y-57925145D01*
X74713895Y-57957474D01*
X74721079Y-57989803D01*
X74731855Y-58022131D01*
X74737244Y-58034704D01*
X74751612Y-58059849D01*
X74765980Y-58084993D01*
X74785737Y-58108342D01*
X74801901Y-58128099D01*
X74823454Y-58146059D01*
X74846803Y-58165816D01*
X74870151Y-58178388D01*
X74895296Y-58192756D01*
X74924033Y-58203533D01*
X74927625Y-58203533D01*
X74959954Y-58214309D01*
X74992283Y-58217901D01*
X75026408Y-58219697D01*
X75060533Y-58217901D01*
X75091066Y-58212513D01*
X75125191Y-58203533D01*
X75155724Y-58190960D01*
X75184460Y-58176592D01*
X75213197Y-58158631D01*
X75231158Y-58144263D01*
X75236546Y-58138875D01*
X75240138Y-58135283D01*
X75241934Y-58133487D01*
X75243730Y-58131691D01*
X75243730Y-58131691D01*
X75247322Y-58128099D01*
X75252710Y-58122710D01*
X75258099Y-58117322D01*
X75259895Y-58115526D01*
X75281447Y-58086789D01*
X75297612Y-58059849D01*
X75311980Y-58031112D01*
X75322756Y-58005967D01*
X75331737Y-57971842D01*
X75337125Y-57937717D01*
X75338921Y-57903592D01*
X75337125Y-57873059D01*
X75331737Y-57838934D01*
X75322756Y-57804809D01*
X75310184Y-57774276D01*
X75294020Y-57743744D01*
X75277855Y-57716803D01*
X75267079Y-57706026D01*
X75258099Y-57693454D01*
X75245526Y-57680882D01*
X75766381Y-58201737D01*
X75760993Y-58203533D01*
X75725072Y-58214309D01*
X75719684Y-58216105D01*
X75710703Y-58217901D01*
X75703519Y-58221493D01*
X75698131Y-58223289D01*
X75694539Y-58223289D01*
X75694539Y-58223289D01*
X75696335Y-58225085D01*
X75698131Y-58230473D01*
X75699927Y-58235862D01*
X75703519Y-58243046D01*
X75721480Y-58282559D01*
X75735848Y-58322072D01*
X75748420Y-58359789D01*
X75757401Y-58401098D01*
X75762789Y-58438815D01*
X75762789Y-58467552D01*
X75760993Y-58501677D01*
X75755605Y-58532210D01*
X75748420Y-58560947D01*
X75737644Y-58586092D01*
X75728664Y-58605848D01*
X75721480Y-58616624D01*
X75712499Y-58629197D01*
X75701723Y-58639973D01*
X75690947Y-58650749D01*
X75681967Y-58659730D01*
X75676578Y-58661526D01*
X75655026Y-58675894D01*
X75629881Y-58686670D01*
X75602940Y-58692059D01*
X75574204Y-58695651D01*
X75543671Y-58697447D01*
X75513138Y-58695651D01*
X75480809Y-58688466D01*
X75446684Y-58679486D01*
X75410763Y-58668710D01*
X75389210Y-58661526D01*
X75374842Y-58654342D01*
X75356881Y-58647157D01*
X75338921Y-58636381D01*
X75320960Y-58629197D01*
X75304796Y-58620217D01*
X75290427Y-58613032D01*
X75272467Y-58602256D01*
X75263487Y-58629197D01*
X75249118Y-58672302D01*
X75231158Y-58711815D01*
X75209605Y-58747736D01*
X75186256Y-58781861D01*
X75177276Y-58794434D01*
X75168296Y-58803414D01*
X75159316Y-58815986D01*
X75144947Y-58826762D01*
X75134171Y-58837539D01*
X75123395Y-58848315D01*
X75110822Y-58857295D01*
X75107230Y-58860887D01*
X75080289Y-58877052D01*
X75053349Y-58889624D01*
X75028204Y-58896808D01*
X75001263Y-58902197D01*
X74976118Y-58902197D01*
X74950974Y-58902197D01*
X74925829Y-58895012D01*
X74900684Y-58884236D01*
X74877336Y-58871664D01*
X74864763Y-58862683D01*
X74848599Y-58850111D01*
X74834230Y-58835743D01*
X74818066Y-58815986D01*
X74801901Y-58796230D01*
X74787533Y-58774677D01*
X74780349Y-58763901D01*
X74767777Y-58740552D01*
X74757000Y-58715407D01*
X74744428Y-58688466D01*
X74733652Y-58659730D01*
X74724671Y-58632789D01*
X74713895Y-58604052D01*
X74712099Y-58598664D01*
X74710303Y-58589684D01*
X74710303Y-58582499D01*
X74708507Y-58577111D01*
X74706711Y-58575315D01*
X74706711Y-58575315D01*
X74703119Y-58575315D01*
X74699527Y-58578907D01*
X74694138Y-58580703D01*
X74688750Y-58582499D01*
X74670790Y-58593276D01*
X74651033Y-58602256D01*
X74627685Y-58611236D01*
X74606132Y-58618420D01*
X74570211Y-58629197D01*
X74534290Y-58636381D01*
X74501961Y-58639973D01*
X74469632Y-58643565D01*
X74437303Y-58643565D01*
X74406770Y-58638177D01*
X74379829Y-58632789D01*
X74352889Y-58623809D01*
X74329540Y-58611236D01*
X74306191Y-58598664D01*
X74288231Y-58580703D01*
X74281047Y-58573519D01*
X74264882Y-58553763D01*
X74252310Y-58530414D01*
X74243330Y-58507065D01*
X74237941Y-58480125D01*
X74234349Y-58451388D01*
X74234349Y-58422651D01*
X74236145Y-58392118D01*
X74241534Y-58357993D01*
X74250514Y-58323868D01*
X74261290Y-58287947D01*
X74277455Y-58250230D01*
X74295415Y-58214309D01*
X74313376Y-58181980D01*
X74325948Y-58155039D01*
X74299007Y-58146059D01*
X74257698Y-58129895D01*
X74219981Y-58113730D01*
X74185856Y-58093974D01*
X74155323Y-58074217D01*
X74126586Y-58049072D01*
X74099645Y-58022131D01*
X74097849Y-58020335D01*
X74078093Y-57996987D01*
X74060132Y-57971842D01*
X74045764Y-57946697D01*
X74034988Y-57921553D01*
X74029599Y-57894612D01*
X74026007Y-57869467D01*
X74026007Y-57865875D01*
X74027803Y-57838934D01*
X74031396Y-57813790D01*
X74042172Y-57788645D01*
X74054744Y-57765296D01*
X74070909Y-57741947D01*
X74088869Y-57720395D01*
X74112218Y-57700638D01*
X74137363Y-57679086D01*
X74146343Y-57673698D01*
X74171488Y-57659329D01*
X74198428Y-57643165D01*
X74228961Y-57630592D01*
X74261290Y-57616224D01*
X74297211Y-57605448D01*
X74327744Y-57596467D01*
X74334928Y-57592875D01*
X74343908Y-57591079D01*
X74351093Y-57587487D01*
X74354685Y-57587487D01*
X74354685Y-57587487D01*
X74354685Y-57583895D01*
X74351093Y-57580303D01*
X74349297Y-57574915D01*
X74347501Y-57569527D01*
X74329540Y-57537198D01*
X74316968Y-57503073D01*
X74306191Y-57467152D01*
X74297211Y-57433027D01*
X74291823Y-57398902D01*
X74286435Y-57364777D01*
X74286435Y-57332448D01*
X74288231Y-57319875D01*
X74290027Y-57289343D01*
X74297211Y-57260606D01*
X74306191Y-57233665D01*
X74318764Y-57210316D01*
X74331336Y-57190560D01*
X74347501Y-57170803D01*
X74365461Y-57152843D01*
X74388810Y-57140270D01*
X74412158Y-57127698D01*
X74437303Y-57120514D01*
X74446283Y-57118718D01*
X74473224Y-57113330D01*
X74503757Y-57115126D01*
X74536086Y-57115126D01*
X74568415Y-57122310D01*
X74602540Y-57131290D01*
X74640257Y-57143862D01*
X74676178Y-57158231D01*
X74715691Y-57176191D01*
X74744428Y-57190560D01*
X74776757Y-57208520D01*
X74785737Y-57181580D01*
X74798309Y-57143862D01*
X74812678Y-57111534D01*
X74830638Y-57079205D01*
X74848599Y-57050468D01*
X74866559Y-57021731D01*
X74888112Y-56996586D01*
X74909665Y-56975034D01*
X74934809Y-56957073D01*
X74958158Y-56940909D01*
X74981507Y-56928336D01*
X75006651Y-56917560D01*
X75031796Y-56910376D01*
X75056941Y-56906784D01*
X75082085Y-56906784D01*
X75105434Y-56912172D01*
X75130579Y-56919356D01*
X75153928Y-56928336D01*
X75179072Y-56942705D01*
X75200625Y-56960665D01*
X75222177Y-56982218D01*
X75241934Y-57005566D01*
X75259895Y-57034303D01*
X75279651Y-57064836D01*
X75295816Y-57098961D01*
X75310184Y-57134882D01*
X75324552Y-57174395D01*
X75333533Y-57204928D01*
X75337125Y-57215704D01*
X75338921Y-57224685D01*
X75340717Y-57230073D01*
X75342513Y-57235461D01*
X75342513Y-57235461D01*
X75346105Y-57235461D01*
X75349697Y-57231869D01*
X75355085Y-57230073D01*
X75371250Y-57221093D01*
X75389210Y-57213908D01*
X75408967Y-57204928D01*
X75432315Y-57195948D01*
X75453868Y-57188764D01*
X75473625Y-57183376D01*
X75484401Y-57179783D01*
X75520322Y-57172599D01*
X75556243Y-57169007D01*
X75588572Y-57169007D01*
X75620901Y-57169007D01*
X75651434Y-57174395D01*
X75651434Y-57174395D01*
X75671190Y-57179783D01*
X75685559Y-57183376D01*
X75703519Y-57190560D01*
X75712499Y-57195948D01*
X75735848Y-57208520D01*
X75755605Y-57224685D01*
X75755605Y-57224685D01*
%LPC*%
D14*
X77500000Y-64500000D03*
X77500000Y-59500000D03*
X72500000Y-59500000D03*
X72500000Y-64500000D03*
D15*
X73730000Y-62635000D03*
X73730000Y-61365000D03*
X75000000Y-62635000D03*
X75000000Y-61365000D03*
X76270000Y-62635000D03*
D10*
G36*
X76579997Y-60940614D02*
X76592374Y-60942450D01*
X76604511Y-60945490D01*
X76616292Y-60949705D01*
X76627603Y-60955055D01*
X76638335Y-60961488D01*
X76648385Y-60968941D01*
X76657656Y-60977344D01*
X76666059Y-60986615D01*
X76673512Y-60996665D01*
X76679945Y-61007397D01*
X76685295Y-61018708D01*
X76689510Y-61030489D01*
X76692550Y-61042626D01*
X76694386Y-61055003D01*
X76695000Y-61067500D01*
X76695000Y-61662500D01*
X76694386Y-61674997D01*
X76692550Y-61687374D01*
X76689510Y-61699511D01*
X76685295Y-61711292D01*
X76679945Y-61722603D01*
X76673512Y-61733335D01*
X76666059Y-61743385D01*
X76657656Y-61752656D01*
X76648385Y-61761059D01*
X76638335Y-61768512D01*
X76627603Y-61774945D01*
X76616292Y-61780295D01*
X76604511Y-61784510D01*
X76592374Y-61787550D01*
X76579997Y-61789386D01*
X76567500Y-61790000D01*
X75972500Y-61790000D01*
X75960003Y-61789386D01*
X75947626Y-61787550D01*
X75935489Y-61784510D01*
X75923708Y-61780295D01*
X75912397Y-61774945D01*
X75901665Y-61768512D01*
X75891615Y-61761059D01*
X75882344Y-61752656D01*
X75873941Y-61743385D01*
X75866488Y-61733335D01*
X75860055Y-61722603D01*
X75854705Y-61711292D01*
X75850490Y-61699511D01*
X75847450Y-61687374D01*
X75845614Y-61674997D01*
X75845000Y-61662500D01*
X75845000Y-61067500D01*
X75845614Y-61055003D01*
X75847450Y-61042626D01*
X75850490Y-61030489D01*
X75854705Y-61018708D01*
X75860055Y-61007397D01*
X75866488Y-60996665D01*
X75873941Y-60986615D01*
X75882344Y-60977344D01*
X75891615Y-60968941D01*
X75901665Y-60961488D01*
X75912397Y-60955055D01*
X75923708Y-60949705D01*
X75935489Y-60945490D01*
X75947626Y-60942450D01*
X75960003Y-60940614D01*
X75972500Y-60940000D01*
X76567500Y-60940000D01*
X76579997Y-60940614D01*
X76579997Y-60940614D01*
G37*
G36*
X72678813Y-57542734D02*
X72373600Y-56805885D01*
X73110449Y-56500672D01*
X73415662Y-57237521D01*
X72678813Y-57542734D01*
X72678813Y-57542734D01*
G37*
G36*
X72105323Y-56158208D02*
X71800110Y-55421359D01*
X72536959Y-55116146D01*
X72842172Y-55852995D01*
X72105323Y-56158208D01*
X72105323Y-56158208D01*
G37*
G36*
X70243261Y-60481803D02*
X69506412Y-60176590D01*
X69811625Y-59439741D01*
X70548474Y-59744954D01*
X70243261Y-60481803D01*
X70243261Y-60481803D01*
G37*
G36*
X68858735Y-59908314D02*
X68121886Y-59603101D01*
X68427099Y-58866252D01*
X69163948Y-59171465D01*
X68858735Y-59908314D01*
X68858735Y-59908314D01*
G37*
G36*
X70532734Y-64291187D02*
X69795885Y-64596400D01*
X69490672Y-63859551D01*
X70227521Y-63554338D01*
X70532734Y-64291187D01*
X70532734Y-64291187D01*
G37*
G36*
X69148208Y-64864677D02*
X68411359Y-65169890D01*
X68106146Y-64433041D01*
X68842995Y-64127828D01*
X69148208Y-64864677D01*
X69148208Y-64864677D01*
G37*
G36*
X73461803Y-66786739D02*
X73156590Y-67523588D01*
X72419741Y-67218375D01*
X72724954Y-66481526D01*
X73461803Y-66786739D01*
X73461803Y-66786739D01*
G37*
G36*
X72888314Y-68171265D02*
X72583101Y-68908114D01*
X71846252Y-68602901D01*
X72151465Y-67866052D01*
X72888314Y-68171265D01*
X72888314Y-68171265D01*
G37*
G36*
X77271187Y-66447266D02*
X77576400Y-67184115D01*
X76839551Y-67489328D01*
X76534338Y-66752479D01*
X77271187Y-66447266D01*
X77271187Y-66447266D01*
G37*
G36*
X77844677Y-67831792D02*
X78149890Y-68568641D01*
X77413041Y-68873854D01*
X77107828Y-68137005D01*
X77844677Y-67831792D01*
X77844677Y-67831792D01*
G37*
G36*
X79716739Y-63548197D02*
X80453588Y-63853410D01*
X80148375Y-64590259D01*
X79411526Y-64285046D01*
X79716739Y-63548197D01*
X79716739Y-63548197D01*
G37*
G36*
X81101265Y-64121686D02*
X81838114Y-64426899D01*
X81532901Y-65163748D01*
X80796052Y-64858535D01*
X81101265Y-64121686D01*
X81101265Y-64121686D01*
G37*
G36*
X76568197Y-57263261D02*
X76873410Y-56526412D01*
X77610259Y-56831625D01*
X77305046Y-57568474D01*
X76568197Y-57263261D01*
X76568197Y-57263261D01*
G37*
G36*
X77141686Y-55878735D02*
X77446899Y-55141886D01*
X78183748Y-55447099D01*
X77878535Y-56183948D01*
X77141686Y-55878735D01*
X77141686Y-55878735D01*
G37*
G36*
X79507266Y-59738813D02*
X80244115Y-59433600D01*
X80549328Y-60170449D01*
X79812479Y-60475662D01*
X79507266Y-59738813D01*
X79507266Y-59738813D01*
G37*
G36*
X80891792Y-59165323D02*
X81628641Y-58860110D01*
X81933854Y-59596959D01*
X81197005Y-59902172D01*
X80891792Y-59165323D01*
X80891792Y-59165323D01*
G37*
G36*
X78253637Y-66314297D02*
X79314297Y-65253637D01*
X80162825Y-66102165D01*
X79102165Y-67162825D01*
X78253637Y-66314297D01*
X78253637Y-66314297D01*
G37*
G36*
X79737175Y-67797835D02*
X80797835Y-66737175D01*
X81646363Y-67585703D01*
X80585703Y-68646363D01*
X79737175Y-67797835D01*
X79737175Y-67797835D01*
G37*
D16*
X75000000Y-67950980D03*
X75000000Y-70049020D03*
D10*
G36*
X70685703Y-65253637D02*
X71746363Y-66314297D01*
X70897835Y-67162825D01*
X69837175Y-66102165D01*
X70685703Y-65253637D01*
X70685703Y-65253637D01*
G37*
G36*
X69202165Y-66737175D02*
X70262825Y-67797835D01*
X69414297Y-68646363D01*
X68353637Y-67585703D01*
X69202165Y-66737175D01*
X69202165Y-66737175D01*
G37*
D17*
X69049020Y-62000000D03*
X66950980Y-62000000D03*
D10*
G36*
X71746363Y-57685703D02*
X70685703Y-58746363D01*
X69837175Y-57897835D01*
X70897835Y-56837175D01*
X71746363Y-57685703D01*
X71746363Y-57685703D01*
G37*
G36*
X70262825Y-56202165D02*
X69202165Y-57262825D01*
X68353637Y-56414297D01*
X69414297Y-55353637D01*
X70262825Y-56202165D01*
X70262825Y-56202165D01*
G37*
D17*
X80950980Y-62000000D03*
X83049020Y-62000000D03*
D10*
G36*
X79314297Y-58746363D02*
X78253637Y-57685703D01*
X79102165Y-56837175D01*
X80162825Y-57897835D01*
X79314297Y-58746363D01*
X79314297Y-58746363D01*
G37*
G36*
X80797835Y-57262825D02*
X79737175Y-56202165D01*
X80585703Y-55353637D01*
X81646363Y-56414297D01*
X80797835Y-57262825D01*
X80797835Y-57262825D01*
G37*
D16*
X75000000Y-56049020D03*
X75000000Y-53950980D03*
M02*
