M48
METRIC,TZ
T1C0.330
T2C0.350
T3C0.406
T4C1.200
%
G90
G05
T1
X068130Y-064280
X068150Y-059610
X068470Y-065180
X068550Y-058780
X068750Y-061500
X070130Y-066200
X070190Y-060650
X070500Y-064440
X070910Y-057280
X071650Y-055600
X071720Y-068430
X072540Y-061370
X072620Y-057460
X072760Y-055190
X072820Y-068930
X073400Y-066790
X074520Y-068410
X075460Y-055710
X075560Y-063320
X076360Y-057170
X077200Y-068850
X077240Y-055120
X077490Y-061780
X077500Y-066580
X078290Y-055600
X078290Y-068440
X079160Y-066880
X079250Y-064080
X079620Y-059500
X079870Y-057830
X081360Y-062470
X081430Y-065330
X081460Y-058700
X081850Y-059770
X081880Y-064180
T2
X075000Y-061365
X075000Y-062635
T3
X074371Y-060528
X083000Y-062000
T4
X072500Y-059500
X072500Y-064500
X077500Y-059500
X077500Y-064500
T0
M30
