G04 (created by PCBNEW (2013-10-02 BZR 4359)-product) date Thu 03 Oct 2013 03:21:19 PM CEST*
%MOIN*%
G04 Gerber Fmt 3.4, Leading zero omitted, Abs format*
%FSLAX34Y34*%
G01*
G70*
G90*
G04 APERTURE LIST*
%ADD10C,0.005906*%
%ADD11O,0.021654X0.029528*%
%ADD12R,0.021654X0.049213*%
%ADD13R,0.041339X0.025591*%
%ADD14R,0.059000X0.043307*%
%ADD15C,0.029528*%
%ADD16O,0.039370X0.009843*%
%ADD17R,0.039370X0.009843*%
%ADD18C,0.078740*%
%ADD19C,0.025000*%
%ADD20C,0.035000*%
%ADD21C,0.008000*%
%ADD22C,0.012000*%
%ADD23C,0.024000*%
G04 APERTURE END LIST*
G54D10*
G54D11*
X28425Y-24696D03*
G54D12*
X28031Y-24598D03*
G54D13*
X28129Y-24125D03*
G54D14*
X29527Y-25354D03*
X29527Y-26102D03*
G54D15*
X29527Y-24659D03*
X29527Y-24159D03*
G54D16*
X28937Y-24803D03*
G54D17*
X28937Y-24606D03*
X28937Y-24409D03*
X28937Y-24212D03*
X28937Y-24015D03*
X30118Y-24015D03*
X30118Y-24212D03*
X30118Y-24409D03*
X30118Y-24606D03*
X30118Y-24803D03*
G54D18*
X28543Y-25393D03*
X28543Y-23425D03*
X30511Y-23425D03*
X30511Y-25393D03*
G54D19*
X28594Y-24240D03*
G54D20*
X29370Y-23779D03*
G54D19*
X30511Y-24484D03*
X31342Y-24917D03*
X30511Y-26212D03*
X28897Y-26295D03*
X27755Y-25370D03*
X31346Y-23425D03*
X30062Y-22507D03*
X28590Y-22622D03*
X27736Y-24043D03*
X32224Y-23531D03*
X31444Y-22767D03*
X26822Y-25307D03*
X27610Y-26062D03*
X27066Y-24212D03*
X26988Y-23141D03*
X28645Y-21728D03*
X27917Y-22551D03*
X30822Y-21889D03*
X29708Y-21933D03*
X32023Y-25720D03*
X32031Y-24594D03*
X30393Y-27106D03*
X31165Y-26330D03*
X28236Y-26940D03*
X29338Y-26933D03*
X29748Y-24917D03*
G54D20*
X32677Y-24409D03*
G54D21*
X28425Y-24716D02*
X28562Y-24716D01*
X28673Y-24606D02*
X28937Y-24606D01*
X28562Y-24716D02*
X28673Y-24606D01*
X28622Y-24212D02*
X28937Y-24212D01*
X28594Y-24240D02*
X28622Y-24212D01*
G54D22*
X28031Y-24716D02*
X28031Y-24881D01*
X28031Y-24881D02*
X28543Y-25393D01*
X28543Y-25393D02*
X28562Y-25393D01*
G54D23*
X29271Y-26102D02*
X29527Y-26102D01*
X28562Y-25393D02*
X29271Y-26102D01*
X29527Y-26102D02*
X29803Y-26102D01*
X29803Y-26102D02*
X30511Y-25393D01*
G54D22*
X29370Y-23779D02*
X29055Y-23779D01*
G54D21*
X28937Y-23897D02*
X28937Y-24015D01*
G54D22*
X29055Y-23779D02*
X28937Y-23897D01*
G54D21*
X30417Y-24212D02*
X30118Y-24212D01*
X30515Y-24311D02*
X30417Y-24212D01*
X30515Y-24480D02*
X30515Y-24311D01*
X30511Y-24484D02*
X30515Y-24480D01*
X29527Y-24159D02*
X29527Y-24145D01*
X29657Y-24015D02*
X30118Y-24015D01*
X29527Y-24145D02*
X29657Y-24015D01*
X30511Y-26212D02*
X31342Y-25381D01*
X31342Y-25381D02*
X31342Y-24917D01*
X28897Y-26295D02*
X29165Y-26562D01*
X30161Y-26562D02*
X30511Y-26212D01*
X29165Y-26562D02*
X30161Y-26562D01*
X27755Y-25370D02*
X27755Y-25500D01*
X28551Y-26295D02*
X28897Y-26295D01*
X27755Y-25500D02*
X28551Y-26295D01*
X27736Y-24043D02*
X27736Y-25350D01*
X27736Y-25350D02*
X27755Y-25370D01*
X28590Y-22622D02*
X28299Y-22622D01*
X27736Y-23185D02*
X27736Y-24043D01*
X28299Y-22622D02*
X27736Y-23185D01*
X30062Y-22507D02*
X30429Y-22507D01*
X30429Y-22507D02*
X31346Y-23425D01*
X28704Y-22507D02*
X30062Y-22507D01*
X28590Y-22622D02*
X28704Y-22507D01*
X27736Y-24043D02*
X28145Y-24043D01*
X28145Y-24043D02*
X28228Y-24125D01*
X32208Y-23531D02*
X32224Y-23531D01*
X31444Y-22767D02*
X32208Y-23531D01*
X26854Y-25307D02*
X26822Y-25307D01*
X27610Y-26062D02*
X26854Y-25307D01*
X26909Y-23818D02*
X26909Y-23220D01*
X27066Y-23976D02*
X26909Y-23818D01*
X27066Y-24212D02*
X27066Y-23976D01*
X26909Y-23220D02*
X26988Y-23141D01*
X28645Y-21822D02*
X28645Y-21728D01*
X27917Y-22551D02*
X28645Y-21822D01*
X29751Y-21889D02*
X30822Y-21889D01*
X29708Y-21933D02*
X29751Y-21889D01*
X32023Y-24602D02*
X32023Y-25720D01*
X32031Y-24594D02*
X32023Y-24602D01*
X30393Y-27102D02*
X30393Y-27106D01*
X31165Y-26330D02*
X30393Y-27102D01*
X29330Y-26940D02*
X28236Y-26940D01*
X29338Y-26933D02*
X29330Y-26940D01*
X28937Y-24803D02*
X29185Y-24803D01*
X29708Y-24956D02*
X29748Y-24917D01*
X29338Y-24956D02*
X29708Y-24956D01*
X29185Y-24803D02*
X29338Y-24956D01*
X29527Y-24659D02*
X29761Y-24659D01*
X29814Y-24606D02*
X30118Y-24606D01*
X29761Y-24659D02*
X29814Y-24606D01*
G54D23*
X30866Y-24232D02*
X32500Y-24232D01*
X32500Y-24232D02*
X32677Y-24409D01*
G54D22*
X30118Y-24803D02*
X30118Y-24960D01*
X29724Y-25354D02*
X29527Y-25354D01*
X30118Y-24960D02*
X29724Y-25354D01*
X29704Y-25354D02*
X29527Y-25354D01*
G54D23*
X30350Y-23263D02*
X28704Y-23263D01*
X28704Y-23263D02*
X28543Y-23425D01*
X30350Y-23263D02*
X30511Y-23425D01*
G54D22*
X30118Y-24803D02*
X30629Y-24803D01*
G54D23*
X30866Y-23779D02*
X30511Y-23425D01*
G54D22*
X30866Y-24566D02*
X30866Y-24232D01*
G54D23*
X30866Y-24232D02*
X30866Y-23779D01*
G54D22*
X30629Y-24803D02*
X30866Y-24566D01*
M02*
