%FSLAX34Y34*%
G04 Gerber Fmt 3.4, Leading zero omitted, Abs format*
G04 (created by PCBNEW (2013-10-14 BZR 4386)-product) date Tue 15 Oct 2013 01:07:32 AM CEST*
%MOIN*%
G01*
G70*
G90*
G04 APERTURE LIST*
%ADD10C,0.005906*%
%ADD11C,0.007874*%
G04 APERTURE END LIST*
G54D10*
G54D11*
X27418Y-30641D02*
X27080Y-30641D01*
X27249Y-30641D02*
X27249Y-30050D01*
X27193Y-30134D01*
X27137Y-30191D01*
X27080Y-30219D01*
X27755Y-30303D02*
X27699Y-30275D01*
X27671Y-30247D01*
X27643Y-30191D01*
X27643Y-30163D01*
X27671Y-30106D01*
X27699Y-30078D01*
X27755Y-30050D01*
X27868Y-30050D01*
X27924Y-30078D01*
X27952Y-30106D01*
X27980Y-30163D01*
X27980Y-30191D01*
X27952Y-30247D01*
X27924Y-30275D01*
X27868Y-30303D01*
X27755Y-30303D01*
X27699Y-30331D01*
X27671Y-30359D01*
X27643Y-30416D01*
X27643Y-30528D01*
X27671Y-30584D01*
X27699Y-30613D01*
X27755Y-30641D01*
X27868Y-30641D01*
X27924Y-30613D01*
X27952Y-30584D01*
X27980Y-30528D01*
X27980Y-30416D01*
X27952Y-30359D01*
X27924Y-30331D01*
X27868Y-30303D01*
X28233Y-30584D02*
X28262Y-30613D01*
X28233Y-30641D01*
X28205Y-30613D01*
X28233Y-30584D01*
X28233Y-30641D01*
X28627Y-30050D02*
X28683Y-30050D01*
X28740Y-30078D01*
X28768Y-30106D01*
X28796Y-30163D01*
X28824Y-30275D01*
X28824Y-30416D01*
X28796Y-30528D01*
X28768Y-30584D01*
X28740Y-30613D01*
X28683Y-30641D01*
X28627Y-30641D01*
X28571Y-30613D01*
X28543Y-30584D01*
X28515Y-30528D01*
X28487Y-30416D01*
X28487Y-30275D01*
X28515Y-30163D01*
X28543Y-30106D01*
X28571Y-30078D01*
X28627Y-30050D01*
X29190Y-30050D02*
X29246Y-30050D01*
X29302Y-30078D01*
X29330Y-30106D01*
X29358Y-30163D01*
X29386Y-30275D01*
X29386Y-30416D01*
X29358Y-30528D01*
X29330Y-30584D01*
X29302Y-30613D01*
X29246Y-30641D01*
X29190Y-30641D01*
X29133Y-30613D01*
X29105Y-30584D01*
X29077Y-30528D01*
X29049Y-30416D01*
X29049Y-30275D01*
X29077Y-30163D01*
X29105Y-30106D01*
X29133Y-30078D01*
X29190Y-30050D01*
X29752Y-30050D02*
X29808Y-30050D01*
X29865Y-30078D01*
X29893Y-30106D01*
X29921Y-30163D01*
X29949Y-30275D01*
X29949Y-30416D01*
X29921Y-30528D01*
X29893Y-30584D01*
X29865Y-30613D01*
X29808Y-30641D01*
X29752Y-30641D01*
X29696Y-30613D01*
X29668Y-30584D01*
X29640Y-30528D01*
X29611Y-30416D01*
X29611Y-30275D01*
X29640Y-30163D01*
X29668Y-30106D01*
X29696Y-30078D01*
X29752Y-30050D01*
X30652Y-30641D02*
X30652Y-30247D01*
X30652Y-30303D02*
X30680Y-30275D01*
X30736Y-30247D01*
X30821Y-30247D01*
X30877Y-30275D01*
X30905Y-30331D01*
X30905Y-30641D01*
X30905Y-30331D02*
X30933Y-30275D01*
X30989Y-30247D01*
X31074Y-30247D01*
X31130Y-30275D01*
X31158Y-30331D01*
X31158Y-30641D01*
X31439Y-30641D02*
X31439Y-30247D01*
X31439Y-30303D02*
X31467Y-30275D01*
X31524Y-30247D01*
X31608Y-30247D01*
X31664Y-30275D01*
X31692Y-30331D01*
X31692Y-30641D01*
X31692Y-30331D02*
X31721Y-30275D01*
X31777Y-30247D01*
X31861Y-30247D01*
X31917Y-30275D01*
X31946Y-30331D01*
X31946Y-30641D01*
X25984Y-29842D02*
X33070Y-29842D01*
X25984Y-24409D02*
X25984Y-30905D01*
X33070Y-24409D02*
X33070Y-30905D01*
X33070Y-29842D02*
X32627Y-30073D01*
X33070Y-29842D02*
X32627Y-29611D01*
X25984Y-29842D02*
X26427Y-30073D01*
X25984Y-29842D02*
X26427Y-29611D01*
X29096Y-29036D02*
X28908Y-29036D01*
X28890Y-29223D01*
X28908Y-29205D01*
X28946Y-29186D01*
X29040Y-29186D01*
X29077Y-29205D01*
X29096Y-29223D01*
X29115Y-29261D01*
X29115Y-29355D01*
X29096Y-29392D01*
X29077Y-29411D01*
X29040Y-29430D01*
X28946Y-29430D01*
X28908Y-29411D01*
X28890Y-29392D01*
X29283Y-29430D02*
X29283Y-29167D01*
X29283Y-29205D02*
X29302Y-29186D01*
X29340Y-29167D01*
X29396Y-29167D01*
X29433Y-29186D01*
X29452Y-29223D01*
X29452Y-29430D01*
X29452Y-29223D02*
X29471Y-29186D01*
X29508Y-29167D01*
X29565Y-29167D01*
X29602Y-29186D01*
X29621Y-29223D01*
X29621Y-29430D01*
X29808Y-29430D02*
X29808Y-29167D01*
X29808Y-29205D02*
X29827Y-29186D01*
X29865Y-29167D01*
X29921Y-29167D01*
X29958Y-29186D01*
X29977Y-29223D01*
X29977Y-29430D01*
X29977Y-29223D02*
X29996Y-29186D01*
X30033Y-29167D01*
X30089Y-29167D01*
X30127Y-29186D01*
X30146Y-29223D01*
X30146Y-29430D01*
X28543Y-28503D02*
X30511Y-28503D01*
X28543Y-25393D02*
X28543Y-29566D01*
X30511Y-25393D02*
X30511Y-29566D01*
X30511Y-28503D02*
X30068Y-28734D01*
X30511Y-28503D02*
X30068Y-28273D01*
X28543Y-28503D02*
X28986Y-28734D01*
X28543Y-28503D02*
X28986Y-28273D01*
M02*
