G04 (created by PCBNEW (2013-09-18 BZR 4322)-product) date Wed 18 Sep 2013 02:34:03 PM CEST*
%MOIN*%
G04 Gerber Fmt 3.4, Leading zero omitted, Abs format*
%FSLAX34Y34*%
G01*
G70*
G90*
G04 APERTURE LIST*
%ADD10C,0.005906*%
%ADD11R,0.029528X0.029528*%
%ADD12C,0.029528*%
%ADD13R,0.047244X0.059055*%
%ADD14C,0.078740*%
%ADD15R,0.059055X0.047244*%
%ADD16C,0.025000*%
%ADD17C,0.035000*%
%ADD18C,0.006000*%
%ADD19C,0.024000*%
%ADD20C,0.012000*%
G04 APERTURE END LIST*
G54D10*
G54D11*
X29027Y-24659D03*
G54D12*
X29027Y-24159D03*
X29527Y-24659D03*
X29527Y-24159D03*
X30027Y-24659D03*
X30027Y-24159D03*
G54D10*
G36*
X27328Y-27026D02*
X26910Y-26608D01*
X27244Y-26274D01*
X27662Y-26692D01*
X27328Y-27026D01*
X27328Y-27026D01*
G37*
G36*
X27912Y-26441D02*
X27495Y-26024D01*
X27773Y-25745D01*
X28191Y-26163D01*
X27912Y-26441D01*
X27912Y-26441D01*
G37*
G36*
X32144Y-26608D02*
X31726Y-27026D01*
X31392Y-26692D01*
X31810Y-26274D01*
X32144Y-26608D01*
X32144Y-26608D01*
G37*
G36*
X31559Y-26024D02*
X31142Y-26441D01*
X30863Y-26163D01*
X31281Y-25745D01*
X31559Y-26024D01*
X31559Y-26024D01*
G37*
G36*
X31726Y-21792D02*
X32144Y-22210D01*
X31810Y-22544D01*
X31392Y-22126D01*
X31726Y-21792D01*
X31726Y-21792D01*
G37*
G36*
X31142Y-22377D02*
X31559Y-22794D01*
X31281Y-23073D01*
X30863Y-22655D01*
X31142Y-22377D01*
X31142Y-22377D01*
G37*
G36*
X26910Y-22210D02*
X27328Y-21792D01*
X27662Y-22126D01*
X27244Y-22544D01*
X26910Y-22210D01*
X26910Y-22210D01*
G37*
G36*
X27495Y-22794D02*
X27912Y-22377D01*
X28191Y-22655D01*
X27773Y-23073D01*
X27495Y-22794D01*
X27495Y-22794D01*
G37*
G54D13*
X26358Y-24409D03*
X27184Y-24409D03*
G54D14*
X28543Y-25393D03*
X28543Y-23425D03*
X30511Y-23425D03*
X30511Y-25393D03*
G54D10*
G36*
X30171Y-21652D02*
X30462Y-21772D01*
X30341Y-22063D01*
X30051Y-21942D01*
X30171Y-21652D01*
X30171Y-21652D01*
G37*
G36*
X30717Y-21878D02*
X31007Y-21998D01*
X30886Y-22288D01*
X30596Y-22168D01*
X30717Y-21878D01*
X30717Y-21878D01*
G37*
G54D15*
X29527Y-21240D03*
X29527Y-22066D03*
X29527Y-27578D03*
X29527Y-26752D03*
G54D13*
X32696Y-24409D03*
X31870Y-24409D03*
G54D10*
G36*
X28883Y-27166D02*
X28593Y-27045D01*
X28713Y-26755D01*
X29003Y-26875D01*
X28883Y-27166D01*
X28883Y-27166D01*
G37*
G36*
X28338Y-26940D02*
X28047Y-26820D01*
X28168Y-26530D01*
X28458Y-26650D01*
X28338Y-26940D01*
X28338Y-26940D01*
G37*
G36*
X32284Y-25053D02*
X32164Y-25343D01*
X31873Y-25223D01*
X31994Y-24933D01*
X32284Y-25053D01*
X32284Y-25053D01*
G37*
G36*
X32058Y-25598D02*
X31938Y-25889D01*
X31648Y-25768D01*
X31768Y-25478D01*
X32058Y-25598D01*
X32058Y-25598D01*
G37*
G36*
X26770Y-23765D02*
X26891Y-23474D01*
X27181Y-23595D01*
X27061Y-23885D01*
X26770Y-23765D01*
X26770Y-23765D01*
G37*
G36*
X26996Y-23219D02*
X27116Y-22929D01*
X27406Y-23050D01*
X27286Y-23340D01*
X26996Y-23219D01*
X26996Y-23219D01*
G37*
G36*
X31937Y-22928D02*
X32057Y-23218D01*
X31767Y-23338D01*
X31647Y-23048D01*
X31937Y-22928D01*
X31937Y-22928D01*
G37*
G36*
X32163Y-23473D02*
X32283Y-23763D01*
X31993Y-23883D01*
X31873Y-23593D01*
X32163Y-23473D01*
X32163Y-23473D01*
G37*
G36*
X31008Y-26819D02*
X30718Y-26939D01*
X30598Y-26649D01*
X30888Y-26529D01*
X31008Y-26819D01*
X31008Y-26819D01*
G37*
G36*
X30463Y-27045D02*
X30173Y-27165D01*
X30053Y-26875D01*
X30343Y-26755D01*
X30463Y-27045D01*
X30463Y-27045D01*
G37*
G36*
X27117Y-25890D02*
X26997Y-25600D01*
X27287Y-25480D01*
X27407Y-25770D01*
X27117Y-25890D01*
X27117Y-25890D01*
G37*
G36*
X26891Y-25345D02*
X26771Y-25055D01*
X27061Y-24935D01*
X27181Y-25225D01*
X26891Y-25345D01*
X26891Y-25345D01*
G37*
G36*
X28046Y-21999D02*
X28336Y-21879D01*
X28456Y-22169D01*
X28166Y-22289D01*
X28046Y-21999D01*
X28046Y-21999D01*
G37*
G36*
X28591Y-21773D02*
X28881Y-21653D01*
X29001Y-21943D01*
X28711Y-22063D01*
X28591Y-21773D01*
X28591Y-21773D01*
G37*
G54D16*
X27776Y-24609D03*
X27776Y-24215D03*
G54D17*
X29370Y-23779D03*
G54D16*
X30511Y-24484D03*
X29748Y-24917D03*
G54D17*
X31771Y-22165D03*
G54D18*
X27776Y-24609D02*
X27773Y-24606D01*
X27773Y-24606D02*
X27755Y-24606D01*
X27776Y-24215D02*
X27779Y-24212D01*
X27779Y-24212D02*
X27780Y-24212D01*
G54D19*
X27776Y-24409D02*
X27780Y-24406D01*
G54D18*
X27780Y-24406D02*
X27780Y-24212D01*
X27780Y-24212D02*
X27780Y-23713D01*
X27780Y-23713D02*
X27201Y-23135D01*
G54D20*
X29370Y-23779D02*
X29409Y-23818D01*
X29409Y-23818D02*
X29687Y-23818D01*
X30027Y-24159D02*
X29687Y-23818D01*
X30027Y-24159D02*
X30702Y-24159D01*
X30702Y-24159D02*
X30795Y-24251D01*
X30795Y-24251D02*
X30795Y-25110D01*
X30795Y-25110D02*
X30511Y-25393D01*
G54D18*
X29027Y-24659D02*
X29198Y-24659D01*
X30433Y-24405D02*
X30511Y-24484D01*
X29350Y-24405D02*
X30433Y-24405D01*
X29275Y-24480D02*
X29350Y-24405D01*
X29275Y-24582D02*
X29275Y-24480D01*
X29198Y-24659D02*
X29275Y-24582D01*
G54D19*
X31870Y-24409D02*
X32079Y-25138D01*
X27184Y-24409D02*
X26976Y-23680D01*
X31184Y-22752D02*
X31852Y-23133D01*
X31184Y-26066D02*
X30803Y-26734D01*
X27870Y-26066D02*
X27202Y-25685D01*
X27870Y-22752D02*
X28251Y-22084D01*
X29527Y-22066D02*
X30256Y-21857D01*
X29527Y-26752D02*
X28798Y-26960D01*
G54D18*
X30005Y-24659D02*
X30027Y-24659D01*
X29748Y-24917D02*
X30005Y-24659D01*
G54D19*
X31771Y-22165D02*
X31768Y-22168D01*
G54D20*
X29027Y-24159D02*
X29027Y-23909D01*
X29027Y-23909D02*
X28543Y-23425D01*
G54D19*
X28486Y-21415D02*
X29340Y-21259D01*
X29340Y-21259D02*
X29714Y-21259D01*
X27412Y-22030D02*
X28141Y-21558D01*
X27148Y-22294D02*
X27412Y-22030D01*
X26676Y-23023D02*
X27148Y-22294D01*
X26533Y-23368D02*
X26676Y-23023D01*
X26377Y-24222D02*
X26533Y-23368D01*
X26377Y-24596D02*
X26377Y-24222D01*
X26533Y-25450D02*
X26377Y-24596D01*
X26676Y-25795D02*
X26533Y-25450D01*
X27148Y-26524D02*
X26676Y-25795D01*
X27412Y-26788D02*
X27148Y-26524D01*
X28141Y-27260D02*
X27412Y-26788D01*
X28486Y-27403D02*
X28141Y-27260D01*
X29340Y-27559D02*
X28486Y-27403D01*
X29714Y-27559D02*
X29340Y-27559D01*
X30568Y-27403D02*
X29714Y-27559D01*
X30913Y-27260D02*
X30568Y-27403D01*
X31642Y-26788D02*
X30913Y-27260D01*
X31906Y-26524D02*
X31642Y-26788D01*
X32378Y-25795D02*
X31906Y-26524D01*
X32521Y-25450D02*
X32378Y-25795D01*
X32677Y-24596D02*
X32521Y-25450D01*
X32677Y-24222D02*
X32677Y-24409D01*
X32677Y-24409D02*
X32677Y-24596D01*
X32521Y-23368D02*
X32677Y-24222D01*
X32378Y-23023D02*
X32521Y-23368D01*
X31906Y-22294D02*
X32378Y-23023D01*
X31642Y-22030D02*
X31906Y-22294D01*
X29714Y-21259D02*
X30118Y-21333D01*
X30118Y-21338D02*
X30119Y-21337D01*
X30119Y-21337D02*
X30119Y-21333D01*
X30119Y-21333D02*
X30118Y-21334D01*
X30118Y-21334D02*
X30118Y-21338D01*
X30118Y-21338D02*
X30118Y-21333D01*
X28141Y-21558D02*
X28486Y-21415D01*
X30913Y-21558D02*
X31642Y-22030D01*
X30568Y-21415D02*
X30797Y-21510D01*
X30118Y-21333D02*
X30568Y-21415D01*
X30797Y-21510D02*
X30913Y-21558D01*
G54D10*
G36*
X32170Y-23710D02*
X32163Y-23713D01*
X32166Y-23720D01*
X32046Y-23770D01*
X32043Y-23763D01*
X31777Y-23873D01*
X31744Y-23954D01*
X31618Y-23954D01*
X31587Y-23960D01*
X31558Y-23972D01*
X31532Y-23989D01*
X31509Y-24012D01*
X31492Y-24038D01*
X31480Y-24067D01*
X31474Y-24098D01*
X31474Y-24129D01*
X31474Y-24720D01*
X31480Y-24751D01*
X31492Y-24780D01*
X31509Y-24806D01*
X31532Y-24829D01*
X31558Y-24846D01*
X31587Y-24858D01*
X31618Y-24864D01*
X31650Y-24864D01*
X31709Y-24864D01*
X31766Y-25064D01*
X31720Y-25177D01*
X31713Y-25208D01*
X31713Y-25224D01*
X31692Y-25228D01*
X31645Y-25248D01*
X31602Y-25276D01*
X31566Y-25313D01*
X31537Y-25355D01*
X31518Y-25402D01*
X31517Y-25404D01*
X31552Y-25489D01*
X31818Y-25598D01*
X31821Y-25591D01*
X31941Y-25641D01*
X31938Y-25648D01*
X31945Y-25651D01*
X31895Y-25771D01*
X31888Y-25768D01*
X31885Y-25776D01*
X31765Y-25726D01*
X31768Y-25719D01*
X31503Y-25609D01*
X31418Y-25644D01*
X31417Y-25645D01*
X31414Y-25652D01*
X31383Y-25621D01*
X31357Y-25604D01*
X31328Y-25591D01*
X31297Y-25585D01*
X31265Y-25585D01*
X31234Y-25591D01*
X31205Y-25604D01*
X31179Y-25621D01*
X31157Y-25643D01*
X31084Y-25716D01*
X31084Y-25493D01*
X31084Y-23325D01*
X31074Y-23325D01*
X31061Y-23259D01*
X31019Y-23155D01*
X30957Y-23062D01*
X30878Y-22982D01*
X30785Y-22919D01*
X30681Y-22876D01*
X30571Y-22853D01*
X30459Y-22852D01*
X30349Y-22873D01*
X30245Y-22916D01*
X30151Y-22977D01*
X30071Y-23055D01*
X30008Y-23148D01*
X29964Y-23251D01*
X29948Y-23325D01*
X29106Y-23325D01*
X29093Y-23259D01*
X29050Y-23155D01*
X28988Y-23062D01*
X28909Y-22982D01*
X28816Y-22919D01*
X28713Y-22876D01*
X28603Y-22853D01*
X28491Y-22852D01*
X28381Y-22873D01*
X28277Y-22916D01*
X28183Y-22977D01*
X28103Y-23055D01*
X28039Y-23148D01*
X27995Y-23251D01*
X27972Y-23361D01*
X27970Y-23473D01*
X27990Y-23583D01*
X28032Y-23687D01*
X28049Y-23714D01*
X28049Y-23915D01*
X27892Y-23915D01*
X27892Y-24903D01*
X28049Y-24903D01*
X28049Y-25139D01*
X28012Y-25225D01*
X27990Y-25331D01*
X27988Y-25440D01*
X28008Y-25547D01*
X28048Y-25648D01*
X28107Y-25739D01*
X28182Y-25817D01*
X28271Y-25879D01*
X28371Y-25922D01*
X28477Y-25946D01*
X28585Y-25948D01*
X28692Y-25929D01*
X28794Y-25890D01*
X28885Y-25832D01*
X28964Y-25757D01*
X29027Y-25668D01*
X29071Y-25569D01*
X29088Y-25493D01*
X29967Y-25493D01*
X29976Y-25547D01*
X30016Y-25648D01*
X30075Y-25739D01*
X30151Y-25817D01*
X30240Y-25879D01*
X30339Y-25922D01*
X30445Y-25946D01*
X30554Y-25948D01*
X30661Y-25929D01*
X30762Y-25890D01*
X30854Y-25832D01*
X30932Y-25757D01*
X30995Y-25668D01*
X31039Y-25569D01*
X31056Y-25493D01*
X31084Y-25493D01*
X31084Y-25716D01*
X30739Y-26061D01*
X30722Y-26087D01*
X30710Y-26116D01*
X30703Y-26147D01*
X30703Y-26179D01*
X30710Y-26210D01*
X30722Y-26239D01*
X30739Y-26265D01*
X30745Y-26271D01*
X30637Y-26460D01*
X30522Y-26507D01*
X30496Y-26525D01*
X30485Y-26536D01*
X30466Y-26524D01*
X30419Y-26505D01*
X30369Y-26495D01*
X30318Y-26495D01*
X30267Y-26505D01*
X30220Y-26524D01*
X30219Y-26525D01*
X30184Y-26610D01*
X30293Y-26875D01*
X30301Y-26872D01*
X30350Y-26992D01*
X30343Y-26995D01*
X30346Y-27002D01*
X30226Y-27052D01*
X30223Y-27045D01*
X30216Y-27048D01*
X30166Y-26928D01*
X30173Y-26925D01*
X30063Y-26659D01*
X29982Y-26626D01*
X29982Y-26500D01*
X29976Y-26469D01*
X29964Y-26440D01*
X29947Y-26414D01*
X29924Y-26391D01*
X29898Y-26374D01*
X29869Y-26362D01*
X29838Y-26356D01*
X29807Y-26356D01*
X29216Y-26356D01*
X29185Y-26362D01*
X29156Y-26374D01*
X29130Y-26391D01*
X29108Y-26414D01*
X29090Y-26440D01*
X29078Y-26469D01*
X29072Y-26500D01*
X29072Y-26531D01*
X29072Y-26591D01*
X28872Y-26648D01*
X28759Y-26601D01*
X28728Y-26595D01*
X28712Y-26595D01*
X28708Y-26574D01*
X28688Y-26527D01*
X28660Y-26484D01*
X28623Y-26448D01*
X28581Y-26419D01*
X28534Y-26400D01*
X28532Y-26399D01*
X28447Y-26434D01*
X28338Y-26699D01*
X28345Y-26702D01*
X28295Y-26823D01*
X28288Y-26820D01*
X28285Y-26827D01*
X28165Y-26777D01*
X28168Y-26770D01*
X28160Y-26767D01*
X28210Y-26647D01*
X28217Y-26650D01*
X28327Y-26385D01*
X28292Y-26300D01*
X28291Y-26299D01*
X28284Y-26296D01*
X28315Y-26265D01*
X28332Y-26239D01*
X28345Y-26210D01*
X28351Y-26179D01*
X28351Y-26147D01*
X28345Y-26116D01*
X28332Y-26087D01*
X28315Y-26061D01*
X28293Y-26039D01*
X27875Y-25621D01*
X27849Y-25604D01*
X27820Y-25591D01*
X27789Y-25585D01*
X27757Y-25585D01*
X27726Y-25591D01*
X27697Y-25604D01*
X27671Y-25621D01*
X27665Y-25627D01*
X27476Y-25519D01*
X27429Y-25404D01*
X27411Y-25378D01*
X27400Y-25366D01*
X27412Y-25348D01*
X27431Y-25301D01*
X27441Y-25251D01*
X27441Y-25199D01*
X27431Y-25149D01*
X27412Y-25102D01*
X27411Y-25101D01*
X27326Y-25065D01*
X27061Y-25175D01*
X27064Y-25183D01*
X26944Y-25232D01*
X26941Y-25225D01*
X26934Y-25228D01*
X26884Y-25108D01*
X26891Y-25105D01*
X26888Y-25098D01*
X27008Y-25048D01*
X27012Y-25055D01*
X27277Y-24945D01*
X27310Y-24864D01*
X27436Y-24864D01*
X27467Y-24858D01*
X27496Y-24846D01*
X27522Y-24829D01*
X27545Y-24806D01*
X27562Y-24780D01*
X27574Y-24751D01*
X27580Y-24720D01*
X27580Y-24688D01*
X27580Y-24098D01*
X27574Y-24067D01*
X27562Y-24038D01*
X27545Y-24012D01*
X27522Y-23989D01*
X27496Y-23972D01*
X27467Y-23960D01*
X27436Y-23954D01*
X27405Y-23954D01*
X27345Y-23954D01*
X27288Y-23754D01*
X27335Y-23641D01*
X27341Y-23610D01*
X27341Y-23594D01*
X27362Y-23590D01*
X27409Y-23570D01*
X27452Y-23542D01*
X27488Y-23505D01*
X27517Y-23463D01*
X27536Y-23415D01*
X27537Y-23414D01*
X27502Y-23329D01*
X27237Y-23219D01*
X27234Y-23227D01*
X27113Y-23177D01*
X27116Y-23170D01*
X27109Y-23167D01*
X27159Y-23047D01*
X27166Y-23050D01*
X27169Y-23042D01*
X27289Y-23092D01*
X27286Y-23099D01*
X27551Y-23209D01*
X27636Y-23174D01*
X27637Y-23173D01*
X27640Y-23166D01*
X27671Y-23197D01*
X27697Y-23214D01*
X27726Y-23226D01*
X27757Y-23233D01*
X27789Y-23233D01*
X27820Y-23226D01*
X27849Y-23214D01*
X27875Y-23197D01*
X27897Y-23175D01*
X28315Y-22757D01*
X28332Y-22731D01*
X28345Y-22702D01*
X28351Y-22671D01*
X28351Y-22639D01*
X28345Y-22608D01*
X28332Y-22579D01*
X28315Y-22553D01*
X28309Y-22547D01*
X28417Y-22358D01*
X28532Y-22311D01*
X28558Y-22293D01*
X28570Y-22282D01*
X28588Y-22294D01*
X28635Y-22313D01*
X28685Y-22323D01*
X28737Y-22323D01*
X28787Y-22313D01*
X28834Y-22294D01*
X28835Y-22293D01*
X28871Y-22208D01*
X28761Y-21943D01*
X28753Y-21946D01*
X28704Y-21826D01*
X28711Y-21823D01*
X28708Y-21816D01*
X28828Y-21766D01*
X28831Y-21773D01*
X28838Y-21770D01*
X28888Y-21890D01*
X28881Y-21893D01*
X28991Y-22159D01*
X29072Y-22192D01*
X29072Y-22318D01*
X29078Y-22349D01*
X29090Y-22378D01*
X29108Y-22404D01*
X29130Y-22427D01*
X29156Y-22444D01*
X29185Y-22456D01*
X29216Y-22462D01*
X29248Y-22462D01*
X29838Y-22462D01*
X29869Y-22456D01*
X29898Y-22444D01*
X29924Y-22427D01*
X29947Y-22404D01*
X29964Y-22378D01*
X29976Y-22349D01*
X29982Y-22318D01*
X29982Y-22287D01*
X29982Y-22227D01*
X30182Y-22170D01*
X30295Y-22216D01*
X30326Y-22223D01*
X30342Y-22223D01*
X30346Y-22244D01*
X30366Y-22291D01*
X30394Y-22334D01*
X30431Y-22370D01*
X30473Y-22399D01*
X30521Y-22418D01*
X30522Y-22419D01*
X30607Y-22384D01*
X30717Y-22118D01*
X30709Y-22115D01*
X30759Y-21995D01*
X30766Y-21998D01*
X30769Y-21991D01*
X30889Y-22041D01*
X30886Y-22048D01*
X30894Y-22051D01*
X30844Y-22171D01*
X30837Y-22168D01*
X30727Y-22433D01*
X30762Y-22518D01*
X30763Y-22519D01*
X30770Y-22522D01*
X30739Y-22553D01*
X30722Y-22579D01*
X30710Y-22608D01*
X30703Y-22639D01*
X30703Y-22671D01*
X30710Y-22702D01*
X30722Y-22731D01*
X30739Y-22757D01*
X30761Y-22779D01*
X31179Y-23197D01*
X31205Y-23214D01*
X31234Y-23226D01*
X31265Y-23233D01*
X31297Y-23233D01*
X31328Y-23226D01*
X31357Y-23214D01*
X31383Y-23197D01*
X31389Y-23191D01*
X31578Y-23299D01*
X31625Y-23414D01*
X31643Y-23440D01*
X31654Y-23451D01*
X31642Y-23470D01*
X31623Y-23517D01*
X31613Y-23567D01*
X31613Y-23618D01*
X31623Y-23669D01*
X31642Y-23716D01*
X31643Y-23717D01*
X31728Y-23752D01*
X31993Y-23643D01*
X31990Y-23635D01*
X32110Y-23586D01*
X32113Y-23593D01*
X32120Y-23590D01*
X32170Y-23710D01*
X32170Y-23710D01*
G37*
G54D20*
X32170Y-23710D02*
X32163Y-23713D01*
X32166Y-23720D01*
X32046Y-23770D01*
X32043Y-23763D01*
X31777Y-23873D01*
X31744Y-23954D01*
X31618Y-23954D01*
X31587Y-23960D01*
X31558Y-23972D01*
X31532Y-23989D01*
X31509Y-24012D01*
X31492Y-24038D01*
X31480Y-24067D01*
X31474Y-24098D01*
X31474Y-24129D01*
X31474Y-24720D01*
X31480Y-24751D01*
X31492Y-24780D01*
X31509Y-24806D01*
X31532Y-24829D01*
X31558Y-24846D01*
X31587Y-24858D01*
X31618Y-24864D01*
X31650Y-24864D01*
X31709Y-24864D01*
X31766Y-25064D01*
X31720Y-25177D01*
X31713Y-25208D01*
X31713Y-25224D01*
X31692Y-25228D01*
X31645Y-25248D01*
X31602Y-25276D01*
X31566Y-25313D01*
X31537Y-25355D01*
X31518Y-25402D01*
X31517Y-25404D01*
X31552Y-25489D01*
X31818Y-25598D01*
X31821Y-25591D01*
X31941Y-25641D01*
X31938Y-25648D01*
X31945Y-25651D01*
X31895Y-25771D01*
X31888Y-25768D01*
X31885Y-25776D01*
X31765Y-25726D01*
X31768Y-25719D01*
X31503Y-25609D01*
X31418Y-25644D01*
X31417Y-25645D01*
X31414Y-25652D01*
X31383Y-25621D01*
X31357Y-25604D01*
X31328Y-25591D01*
X31297Y-25585D01*
X31265Y-25585D01*
X31234Y-25591D01*
X31205Y-25604D01*
X31179Y-25621D01*
X31157Y-25643D01*
X31084Y-25716D01*
X31084Y-25493D01*
X31084Y-23325D01*
X31074Y-23325D01*
X31061Y-23259D01*
X31019Y-23155D01*
X30957Y-23062D01*
X30878Y-22982D01*
X30785Y-22919D01*
X30681Y-22876D01*
X30571Y-22853D01*
X30459Y-22852D01*
X30349Y-22873D01*
X30245Y-22916D01*
X30151Y-22977D01*
X30071Y-23055D01*
X30008Y-23148D01*
X29964Y-23251D01*
X29948Y-23325D01*
X29106Y-23325D01*
X29093Y-23259D01*
X29050Y-23155D01*
X28988Y-23062D01*
X28909Y-22982D01*
X28816Y-22919D01*
X28713Y-22876D01*
X28603Y-22853D01*
X28491Y-22852D01*
X28381Y-22873D01*
X28277Y-22916D01*
X28183Y-22977D01*
X28103Y-23055D01*
X28039Y-23148D01*
X27995Y-23251D01*
X27972Y-23361D01*
X27970Y-23473D01*
X27990Y-23583D01*
X28032Y-23687D01*
X28049Y-23714D01*
X28049Y-23915D01*
X27892Y-23915D01*
X27892Y-24903D01*
X28049Y-24903D01*
X28049Y-25139D01*
X28012Y-25225D01*
X27990Y-25331D01*
X27988Y-25440D01*
X28008Y-25547D01*
X28048Y-25648D01*
X28107Y-25739D01*
X28182Y-25817D01*
X28271Y-25879D01*
X28371Y-25922D01*
X28477Y-25946D01*
X28585Y-25948D01*
X28692Y-25929D01*
X28794Y-25890D01*
X28885Y-25832D01*
X28964Y-25757D01*
X29027Y-25668D01*
X29071Y-25569D01*
X29088Y-25493D01*
X29967Y-25493D01*
X29976Y-25547D01*
X30016Y-25648D01*
X30075Y-25739D01*
X30151Y-25817D01*
X30240Y-25879D01*
X30339Y-25922D01*
X30445Y-25946D01*
X30554Y-25948D01*
X30661Y-25929D01*
X30762Y-25890D01*
X30854Y-25832D01*
X30932Y-25757D01*
X30995Y-25668D01*
X31039Y-25569D01*
X31056Y-25493D01*
X31084Y-25493D01*
X31084Y-25716D01*
X30739Y-26061D01*
X30722Y-26087D01*
X30710Y-26116D01*
X30703Y-26147D01*
X30703Y-26179D01*
X30710Y-26210D01*
X30722Y-26239D01*
X30739Y-26265D01*
X30745Y-26271D01*
X30637Y-26460D01*
X30522Y-26507D01*
X30496Y-26525D01*
X30485Y-26536D01*
X30466Y-26524D01*
X30419Y-26505D01*
X30369Y-26495D01*
X30318Y-26495D01*
X30267Y-26505D01*
X30220Y-26524D01*
X30219Y-26525D01*
X30184Y-26610D01*
X30293Y-26875D01*
X30301Y-26872D01*
X30350Y-26992D01*
X30343Y-26995D01*
X30346Y-27002D01*
X30226Y-27052D01*
X30223Y-27045D01*
X30216Y-27048D01*
X30166Y-26928D01*
X30173Y-26925D01*
X30063Y-26659D01*
X29982Y-26626D01*
X29982Y-26500D01*
X29976Y-26469D01*
X29964Y-26440D01*
X29947Y-26414D01*
X29924Y-26391D01*
X29898Y-26374D01*
X29869Y-26362D01*
X29838Y-26356D01*
X29807Y-26356D01*
X29216Y-26356D01*
X29185Y-26362D01*
X29156Y-26374D01*
X29130Y-26391D01*
X29108Y-26414D01*
X29090Y-26440D01*
X29078Y-26469D01*
X29072Y-26500D01*
X29072Y-26531D01*
X29072Y-26591D01*
X28872Y-26648D01*
X28759Y-26601D01*
X28728Y-26595D01*
X28712Y-26595D01*
X28708Y-26574D01*
X28688Y-26527D01*
X28660Y-26484D01*
X28623Y-26448D01*
X28581Y-26419D01*
X28534Y-26400D01*
X28532Y-26399D01*
X28447Y-26434D01*
X28338Y-26699D01*
X28345Y-26702D01*
X28295Y-26823D01*
X28288Y-26820D01*
X28285Y-26827D01*
X28165Y-26777D01*
X28168Y-26770D01*
X28160Y-26767D01*
X28210Y-26647D01*
X28217Y-26650D01*
X28327Y-26385D01*
X28292Y-26300D01*
X28291Y-26299D01*
X28284Y-26296D01*
X28315Y-26265D01*
X28332Y-26239D01*
X28345Y-26210D01*
X28351Y-26179D01*
X28351Y-26147D01*
X28345Y-26116D01*
X28332Y-26087D01*
X28315Y-26061D01*
X28293Y-26039D01*
X27875Y-25621D01*
X27849Y-25604D01*
X27820Y-25591D01*
X27789Y-25585D01*
X27757Y-25585D01*
X27726Y-25591D01*
X27697Y-25604D01*
X27671Y-25621D01*
X27665Y-25627D01*
X27476Y-25519D01*
X27429Y-25404D01*
X27411Y-25378D01*
X27400Y-25366D01*
X27412Y-25348D01*
X27431Y-25301D01*
X27441Y-25251D01*
X27441Y-25199D01*
X27431Y-25149D01*
X27412Y-25102D01*
X27411Y-25101D01*
X27326Y-25065D01*
X27061Y-25175D01*
X27064Y-25183D01*
X26944Y-25232D01*
X26941Y-25225D01*
X26934Y-25228D01*
X26884Y-25108D01*
X26891Y-25105D01*
X26888Y-25098D01*
X27008Y-25048D01*
X27012Y-25055D01*
X27277Y-24945D01*
X27310Y-24864D01*
X27436Y-24864D01*
X27467Y-24858D01*
X27496Y-24846D01*
X27522Y-24829D01*
X27545Y-24806D01*
X27562Y-24780D01*
X27574Y-24751D01*
X27580Y-24720D01*
X27580Y-24688D01*
X27580Y-24098D01*
X27574Y-24067D01*
X27562Y-24038D01*
X27545Y-24012D01*
X27522Y-23989D01*
X27496Y-23972D01*
X27467Y-23960D01*
X27436Y-23954D01*
X27405Y-23954D01*
X27345Y-23954D01*
X27288Y-23754D01*
X27335Y-23641D01*
X27341Y-23610D01*
X27341Y-23594D01*
X27362Y-23590D01*
X27409Y-23570D01*
X27452Y-23542D01*
X27488Y-23505D01*
X27517Y-23463D01*
X27536Y-23415D01*
X27537Y-23414D01*
X27502Y-23329D01*
X27237Y-23219D01*
X27234Y-23227D01*
X27113Y-23177D01*
X27116Y-23170D01*
X27109Y-23167D01*
X27159Y-23047D01*
X27166Y-23050D01*
X27169Y-23042D01*
X27289Y-23092D01*
X27286Y-23099D01*
X27551Y-23209D01*
X27636Y-23174D01*
X27637Y-23173D01*
X27640Y-23166D01*
X27671Y-23197D01*
X27697Y-23214D01*
X27726Y-23226D01*
X27757Y-23233D01*
X27789Y-23233D01*
X27820Y-23226D01*
X27849Y-23214D01*
X27875Y-23197D01*
X27897Y-23175D01*
X28315Y-22757D01*
X28332Y-22731D01*
X28345Y-22702D01*
X28351Y-22671D01*
X28351Y-22639D01*
X28345Y-22608D01*
X28332Y-22579D01*
X28315Y-22553D01*
X28309Y-22547D01*
X28417Y-22358D01*
X28532Y-22311D01*
X28558Y-22293D01*
X28570Y-22282D01*
X28588Y-22294D01*
X28635Y-22313D01*
X28685Y-22323D01*
X28737Y-22323D01*
X28787Y-22313D01*
X28834Y-22294D01*
X28835Y-22293D01*
X28871Y-22208D01*
X28761Y-21943D01*
X28753Y-21946D01*
X28704Y-21826D01*
X28711Y-21823D01*
X28708Y-21816D01*
X28828Y-21766D01*
X28831Y-21773D01*
X28838Y-21770D01*
X28888Y-21890D01*
X28881Y-21893D01*
X28991Y-22159D01*
X29072Y-22192D01*
X29072Y-22318D01*
X29078Y-22349D01*
X29090Y-22378D01*
X29108Y-22404D01*
X29130Y-22427D01*
X29156Y-22444D01*
X29185Y-22456D01*
X29216Y-22462D01*
X29248Y-22462D01*
X29838Y-22462D01*
X29869Y-22456D01*
X29898Y-22444D01*
X29924Y-22427D01*
X29947Y-22404D01*
X29964Y-22378D01*
X29976Y-22349D01*
X29982Y-22318D01*
X29982Y-22287D01*
X29982Y-22227D01*
X30182Y-22170D01*
X30295Y-22216D01*
X30326Y-22223D01*
X30342Y-22223D01*
X30346Y-22244D01*
X30366Y-22291D01*
X30394Y-22334D01*
X30431Y-22370D01*
X30473Y-22399D01*
X30521Y-22418D01*
X30522Y-22419D01*
X30607Y-22384D01*
X30717Y-22118D01*
X30709Y-22115D01*
X30759Y-21995D01*
X30766Y-21998D01*
X30769Y-21991D01*
X30889Y-22041D01*
X30886Y-22048D01*
X30894Y-22051D01*
X30844Y-22171D01*
X30837Y-22168D01*
X30727Y-22433D01*
X30762Y-22518D01*
X30763Y-22519D01*
X30770Y-22522D01*
X30739Y-22553D01*
X30722Y-22579D01*
X30710Y-22608D01*
X30703Y-22639D01*
X30703Y-22671D01*
X30710Y-22702D01*
X30722Y-22731D01*
X30739Y-22757D01*
X30761Y-22779D01*
X31179Y-23197D01*
X31205Y-23214D01*
X31234Y-23226D01*
X31265Y-23233D01*
X31297Y-23233D01*
X31328Y-23226D01*
X31357Y-23214D01*
X31383Y-23197D01*
X31389Y-23191D01*
X31578Y-23299D01*
X31625Y-23414D01*
X31643Y-23440D01*
X31654Y-23451D01*
X31642Y-23470D01*
X31623Y-23517D01*
X31613Y-23567D01*
X31613Y-23618D01*
X31623Y-23669D01*
X31642Y-23716D01*
X31643Y-23717D01*
X31728Y-23752D01*
X31993Y-23643D01*
X31990Y-23635D01*
X32110Y-23586D01*
X32113Y-23593D01*
X32120Y-23590D01*
X32170Y-23710D01*
M02*
