G04 (created by PCBNEW (2013-09-18 BZR 4323)-product) date Thu 19 Sep 2013 05:32:02 PM CEST*
%MOIN*%
G04 Gerber Fmt 3.4, Leading zero omitted, Abs format*
%FSLAX34Y34*%
G01*
G70*
G90*
G04 APERTURE LIST*
%ADD10C,0.005906*%
%ADD11C,0.007874*%
%ADD12C,0.000100*%
%ADD13O,0.039370X0.009843*%
%ADD14R,0.039370X0.009843*%
%ADD15C,0.078740*%
%ADD16R,0.051100X0.059000*%
%ADD17R,0.031400X0.031400*%
%ADD18C,0.010000*%
G04 APERTURE END LIST*
G54D10*
G54D11*
X27519Y-25157D02*
X28031Y-25157D01*
X27519Y-23661D02*
X28031Y-23661D01*
X28031Y-25157D02*
X28031Y-24901D01*
X27519Y-24901D02*
X27519Y-25157D01*
X28031Y-23661D02*
X28031Y-23877D01*
X27519Y-23897D02*
X27519Y-23661D01*
X27775Y-23562D02*
X27618Y-23366D01*
X27933Y-23366D02*
X27775Y-23562D01*
X27618Y-23366D02*
X27933Y-23366D01*
X27947Y-23189D02*
X27947Y-22796D01*
X27815Y-23077D01*
X27684Y-22796D01*
X27684Y-23189D01*
X27272Y-23152D02*
X27290Y-23171D01*
X27347Y-23189D01*
X27384Y-23189D01*
X27440Y-23171D01*
X27478Y-23133D01*
X27497Y-23096D01*
X27515Y-23021D01*
X27515Y-22964D01*
X27497Y-22889D01*
X27478Y-22852D01*
X27440Y-22814D01*
X27384Y-22796D01*
X27347Y-22796D01*
X27290Y-22814D01*
X27272Y-22833D01*
X27103Y-22796D02*
X27103Y-23114D01*
X27084Y-23152D01*
X27065Y-23171D01*
X27028Y-23189D01*
X26953Y-23189D01*
X26916Y-23171D01*
X26897Y-23152D01*
X26878Y-23114D01*
X26878Y-22796D01*
X26634Y-23152D02*
X26616Y-23171D01*
X26634Y-23189D01*
X26653Y-23171D01*
X26634Y-23152D01*
X26634Y-23189D01*
X26709Y-22814D02*
X26672Y-22796D01*
X26578Y-22796D01*
X26541Y-22814D01*
X26522Y-22852D01*
X26522Y-22889D01*
X26541Y-22927D01*
X26559Y-22946D01*
X26597Y-22964D01*
X26616Y-22983D01*
X26634Y-23021D01*
X26634Y-23039D01*
X30101Y-21398D02*
X30101Y-21004D01*
X30101Y-21154D02*
X30067Y-21136D01*
X30000Y-21136D01*
X29966Y-21154D01*
X29949Y-21173D01*
X29932Y-21211D01*
X29932Y-21323D01*
X29949Y-21361D01*
X29966Y-21379D01*
X30000Y-21398D01*
X30067Y-21398D01*
X30101Y-21379D01*
X29730Y-21398D02*
X29763Y-21379D01*
X29780Y-21342D01*
X29780Y-21004D01*
X29544Y-21398D02*
X29578Y-21379D01*
X29595Y-21361D01*
X29611Y-21323D01*
X29611Y-21211D01*
X29595Y-21173D01*
X29578Y-21154D01*
X29544Y-21136D01*
X29493Y-21136D01*
X29460Y-21154D01*
X29443Y-21173D01*
X29426Y-21211D01*
X29426Y-21323D01*
X29443Y-21361D01*
X29460Y-21379D01*
X29493Y-21398D01*
X29544Y-21398D01*
X29122Y-21136D02*
X29122Y-21454D01*
X29139Y-21492D01*
X29156Y-21511D01*
X29190Y-21529D01*
X29240Y-21529D01*
X29274Y-21511D01*
X29122Y-21379D02*
X29156Y-21398D01*
X29223Y-21398D01*
X29257Y-21379D01*
X29274Y-21361D01*
X29291Y-21323D01*
X29291Y-21211D01*
X29274Y-21173D01*
X29257Y-21154D01*
X29223Y-21136D01*
X29156Y-21136D01*
X29122Y-21154D01*
X28953Y-21361D02*
X28937Y-21379D01*
X28953Y-21398D01*
X28970Y-21379D01*
X28953Y-21361D01*
X28953Y-21398D01*
X31510Y-22009D02*
X31476Y-22028D01*
X31408Y-22028D01*
X31375Y-22009D01*
X31358Y-21972D01*
X31358Y-21953D01*
X31375Y-21916D01*
X31408Y-21897D01*
X31459Y-21897D01*
X31493Y-21878D01*
X31510Y-21841D01*
X31510Y-21822D01*
X31493Y-21784D01*
X31459Y-21766D01*
X31408Y-21766D01*
X31375Y-21784D01*
X31206Y-21766D02*
X31206Y-22159D01*
X31206Y-21784D02*
X31172Y-21766D01*
X31105Y-21766D01*
X31071Y-21784D01*
X31054Y-21803D01*
X31037Y-21841D01*
X31037Y-21953D01*
X31054Y-21991D01*
X31071Y-22009D01*
X31105Y-22028D01*
X31172Y-22028D01*
X31206Y-22009D01*
X30885Y-22028D02*
X30885Y-21766D01*
X30885Y-21634D02*
X30902Y-21653D01*
X30885Y-21672D01*
X30868Y-21653D01*
X30885Y-21634D01*
X30885Y-21672D01*
X30767Y-21766D02*
X30632Y-21766D01*
X30717Y-21634D02*
X30717Y-21972D01*
X30700Y-22009D01*
X30666Y-22028D01*
X30632Y-22028D01*
X30548Y-21766D02*
X30362Y-21766D01*
X30548Y-22028D01*
X30362Y-22028D01*
X30092Y-22009D02*
X30126Y-22028D01*
X30194Y-22028D01*
X30227Y-22009D01*
X30244Y-21972D01*
X30244Y-21822D01*
X30227Y-21784D01*
X30194Y-21766D01*
X30126Y-21766D01*
X30092Y-21784D01*
X30075Y-21822D01*
X30075Y-21859D01*
X30244Y-21897D01*
X29924Y-21766D02*
X29924Y-22028D01*
X29924Y-21803D02*
X29907Y-21784D01*
X29873Y-21766D01*
X29822Y-21766D01*
X29789Y-21784D01*
X29772Y-21822D01*
X29772Y-22028D01*
X29603Y-21766D02*
X29603Y-22159D01*
X29603Y-21784D02*
X29569Y-21766D01*
X29502Y-21766D01*
X29468Y-21784D01*
X29451Y-21803D01*
X29434Y-21841D01*
X29434Y-21953D01*
X29451Y-21991D01*
X29468Y-22009D01*
X29502Y-22028D01*
X29569Y-22028D01*
X29603Y-22009D01*
X29333Y-21766D02*
X29198Y-21766D01*
X29282Y-22028D02*
X29282Y-21691D01*
X29266Y-21653D01*
X29232Y-21634D01*
X29198Y-21634D01*
X28945Y-22009D02*
X28979Y-22028D01*
X29046Y-22028D01*
X29080Y-22009D01*
X29097Y-21972D01*
X29097Y-21822D01*
X29080Y-21784D01*
X29046Y-21766D01*
X28979Y-21766D01*
X28945Y-21784D01*
X28928Y-21822D01*
X28928Y-21859D01*
X29097Y-21897D01*
X28776Y-22028D02*
X28776Y-21766D01*
X28776Y-21634D02*
X28793Y-21653D01*
X28776Y-21672D01*
X28759Y-21653D01*
X28776Y-21634D01*
X28776Y-21672D01*
X28557Y-22028D02*
X28591Y-22009D01*
X28607Y-21972D01*
X28607Y-21634D01*
X28422Y-21991D02*
X28405Y-22009D01*
X28422Y-22028D01*
X28439Y-22009D01*
X28422Y-21991D01*
X28422Y-22028D01*
X28203Y-22028D02*
X28236Y-22009D01*
X28253Y-21991D01*
X28270Y-21953D01*
X28270Y-21841D01*
X28253Y-21803D01*
X28236Y-21784D01*
X28203Y-21766D01*
X28152Y-21766D01*
X28118Y-21784D01*
X28101Y-21803D01*
X28084Y-21841D01*
X28084Y-21953D01*
X28101Y-21991D01*
X28118Y-22009D01*
X28152Y-22028D01*
X28203Y-22028D01*
X27933Y-22028D02*
X27933Y-21766D01*
X27933Y-21841D02*
X27916Y-21803D01*
X27899Y-21784D01*
X27865Y-21766D01*
X27831Y-21766D01*
X27561Y-21766D02*
X27561Y-22084D01*
X27578Y-22122D01*
X27595Y-22140D01*
X27629Y-22159D01*
X27679Y-22159D01*
X27713Y-22140D01*
X27561Y-22009D02*
X27595Y-22028D01*
X27663Y-22028D01*
X27696Y-22009D01*
X27713Y-21991D01*
X27730Y-21953D01*
X27730Y-21841D01*
X27713Y-21803D01*
X27696Y-21784D01*
X27663Y-21766D01*
X27595Y-21766D01*
X27561Y-21784D01*
X30202Y-26160D02*
X30183Y-26141D01*
X30146Y-26122D01*
X30052Y-26122D01*
X30014Y-26141D01*
X29996Y-26160D01*
X29977Y-26197D01*
X29977Y-26235D01*
X29996Y-26291D01*
X30221Y-26516D01*
X29977Y-26516D01*
X29733Y-26122D02*
X29696Y-26122D01*
X29658Y-26141D01*
X29640Y-26160D01*
X29621Y-26197D01*
X29602Y-26272D01*
X29602Y-26366D01*
X29621Y-26441D01*
X29640Y-26479D01*
X29658Y-26497D01*
X29696Y-26516D01*
X29733Y-26516D01*
X29771Y-26497D01*
X29790Y-26479D01*
X29808Y-26441D01*
X29827Y-26366D01*
X29827Y-26272D01*
X29808Y-26197D01*
X29790Y-26160D01*
X29771Y-26141D01*
X29733Y-26122D01*
X29227Y-26516D02*
X29452Y-26516D01*
X29340Y-26516D02*
X29340Y-26122D01*
X29377Y-26179D01*
X29415Y-26216D01*
X29452Y-26235D01*
X29096Y-26122D02*
X28852Y-26122D01*
X28983Y-26272D01*
X28927Y-26272D01*
X28890Y-26291D01*
X28871Y-26310D01*
X28852Y-26347D01*
X28852Y-26441D01*
X28871Y-26479D01*
X28890Y-26497D01*
X28927Y-26516D01*
X29040Y-26516D01*
X29077Y-26497D01*
X29096Y-26479D01*
X30586Y-26752D02*
X30455Y-27146D01*
X30324Y-26752D01*
X30118Y-26752D02*
X30080Y-26752D01*
X30043Y-26771D01*
X30024Y-26790D01*
X30005Y-26827D01*
X29986Y-26902D01*
X29986Y-26996D01*
X30005Y-27071D01*
X30024Y-27109D01*
X30043Y-27127D01*
X30080Y-27146D01*
X30118Y-27146D01*
X30155Y-27127D01*
X30174Y-27109D01*
X30193Y-27071D01*
X30211Y-26996D01*
X30211Y-26902D01*
X30193Y-26827D01*
X30174Y-26790D01*
X30155Y-26771D01*
X30118Y-26752D01*
X29818Y-27109D02*
X29799Y-27127D01*
X29818Y-27146D01*
X29836Y-27127D01*
X29818Y-27109D01*
X29818Y-27146D01*
X29424Y-27146D02*
X29649Y-27146D01*
X29536Y-27146D02*
X29536Y-26752D01*
X29574Y-26809D01*
X29611Y-26846D01*
X29649Y-26865D01*
X29049Y-27146D02*
X29274Y-27146D01*
X29161Y-27146D02*
X29161Y-26752D01*
X29199Y-26809D01*
X29236Y-26846D01*
X29274Y-26865D01*
X28880Y-27109D02*
X28862Y-27127D01*
X28880Y-27146D01*
X28899Y-27127D01*
X28880Y-27109D01*
X28880Y-27146D01*
X28693Y-27146D02*
X28693Y-26752D01*
X28693Y-26902D02*
X28655Y-26884D01*
X28580Y-26884D01*
X28543Y-26902D01*
X28524Y-26921D01*
X28505Y-26959D01*
X28505Y-27071D01*
X28524Y-27109D01*
X28543Y-27127D01*
X28580Y-27146D01*
X28655Y-27146D01*
X28693Y-27127D01*
X31518Y-23419D02*
X31158Y-23419D01*
X31338Y-23599D02*
X31338Y-23239D01*
X31119Y-25359D02*
X31479Y-25359D01*
X28937Y-25000D02*
X30118Y-25000D01*
X30118Y-25000D02*
X30118Y-23818D01*
X30118Y-23818D02*
X28937Y-23818D01*
X28937Y-23818D02*
X28937Y-25000D01*
X28740Y-22322D02*
X30314Y-22322D01*
X28740Y-22322D02*
X28740Y-23188D01*
X28740Y-23188D02*
X30314Y-23188D01*
X30314Y-23188D02*
X30314Y-22322D01*
X27771Y-24365D02*
X28371Y-24365D01*
X28371Y-24365D02*
X28371Y-24065D01*
X28371Y-24065D02*
X27771Y-24065D01*
X27771Y-24065D02*
X27771Y-24365D01*
X27771Y-24759D02*
X28371Y-24759D01*
X28371Y-24759D02*
X28371Y-24459D01*
X28371Y-24459D02*
X27771Y-24459D01*
X27771Y-24459D02*
X27771Y-24759D01*
G54D12*
G36*
X26413Y-24939D02*
X26420Y-24936D01*
X26433Y-24927D01*
X26453Y-24914D01*
X26476Y-24899D01*
X26500Y-24883D01*
X26519Y-24870D01*
X26533Y-24861D01*
X26538Y-24858D01*
X26541Y-24859D01*
X26552Y-24865D01*
X26568Y-24873D01*
X26578Y-24878D01*
X26593Y-24884D01*
X26600Y-24886D01*
X26601Y-24884D01*
X26607Y-24872D01*
X26615Y-24853D01*
X26626Y-24827D01*
X26639Y-24797D01*
X26653Y-24765D01*
X26666Y-24732D01*
X26679Y-24701D01*
X26691Y-24672D01*
X26700Y-24649D01*
X26706Y-24633D01*
X26709Y-24626D01*
X26708Y-24625D01*
X26701Y-24618D01*
X26688Y-24608D01*
X26660Y-24585D01*
X26632Y-24551D01*
X26615Y-24512D01*
X26610Y-24468D01*
X26614Y-24428D01*
X26630Y-24390D01*
X26657Y-24355D01*
X26690Y-24329D01*
X26728Y-24313D01*
X26771Y-24308D01*
X26812Y-24312D01*
X26851Y-24328D01*
X26886Y-24354D01*
X26901Y-24371D01*
X26921Y-24407D01*
X26933Y-24444D01*
X26934Y-24453D01*
X26932Y-24495D01*
X26920Y-24535D01*
X26898Y-24570D01*
X26868Y-24599D01*
X26864Y-24602D01*
X26850Y-24613D01*
X26840Y-24620D01*
X26833Y-24626D01*
X26886Y-24753D01*
X26894Y-24773D01*
X26909Y-24808D01*
X26921Y-24838D01*
X26932Y-24862D01*
X26939Y-24878D01*
X26942Y-24884D01*
X26942Y-24884D01*
X26947Y-24885D01*
X26956Y-24882D01*
X26974Y-24873D01*
X26986Y-24867D01*
X26999Y-24861D01*
X27005Y-24858D01*
X27011Y-24861D01*
X27024Y-24869D01*
X27042Y-24882D01*
X27065Y-24897D01*
X27087Y-24912D01*
X27107Y-24925D01*
X27121Y-24935D01*
X27128Y-24938D01*
X27129Y-24938D01*
X27136Y-24935D01*
X27147Y-24925D01*
X27164Y-24909D01*
X27189Y-24885D01*
X27193Y-24881D01*
X27213Y-24861D01*
X27229Y-24843D01*
X27240Y-24831D01*
X27244Y-24826D01*
X27244Y-24826D01*
X27240Y-24819D01*
X27231Y-24804D01*
X27218Y-24784D01*
X27202Y-24760D01*
X27160Y-24699D01*
X27183Y-24642D01*
X27190Y-24624D01*
X27199Y-24602D01*
X27206Y-24587D01*
X27209Y-24580D01*
X27216Y-24578D01*
X27231Y-24574D01*
X27254Y-24570D01*
X27282Y-24565D01*
X27308Y-24560D01*
X27331Y-24555D01*
X27348Y-24552D01*
X27356Y-24551D01*
X27358Y-24549D01*
X27359Y-24546D01*
X27360Y-24538D01*
X27361Y-24523D01*
X27361Y-24501D01*
X27361Y-24468D01*
X27361Y-24465D01*
X27361Y-24434D01*
X27360Y-24409D01*
X27359Y-24394D01*
X27358Y-24387D01*
X27358Y-24387D01*
X27351Y-24385D01*
X27334Y-24382D01*
X27311Y-24377D01*
X27283Y-24372D01*
X27281Y-24372D01*
X27253Y-24366D01*
X27230Y-24361D01*
X27213Y-24358D01*
X27206Y-24355D01*
X27205Y-24353D01*
X27199Y-24342D01*
X27191Y-24325D01*
X27182Y-24304D01*
X27173Y-24282D01*
X27165Y-24262D01*
X27160Y-24248D01*
X27158Y-24241D01*
X27158Y-24241D01*
X27162Y-24234D01*
X27172Y-24220D01*
X27186Y-24200D01*
X27202Y-24176D01*
X27203Y-24174D01*
X27219Y-24150D01*
X27232Y-24130D01*
X27241Y-24116D01*
X27244Y-24110D01*
X27244Y-24109D01*
X27239Y-24102D01*
X27227Y-24089D01*
X27209Y-24071D01*
X27189Y-24050D01*
X27182Y-24044D01*
X27159Y-24021D01*
X27143Y-24007D01*
X27133Y-23999D01*
X27129Y-23997D01*
X27128Y-23997D01*
X27121Y-24001D01*
X27106Y-24011D01*
X27086Y-24025D01*
X27062Y-24041D01*
X27061Y-24042D01*
X27037Y-24058D01*
X27017Y-24072D01*
X27003Y-24081D01*
X26997Y-24084D01*
X26996Y-24084D01*
X26987Y-24082D01*
X26970Y-24076D01*
X26949Y-24068D01*
X26927Y-24059D01*
X26907Y-24051D01*
X26893Y-24044D01*
X26886Y-24040D01*
X26885Y-24040D01*
X26883Y-24031D01*
X26879Y-24013D01*
X26874Y-23989D01*
X26868Y-23960D01*
X26867Y-23956D01*
X26862Y-23927D01*
X26858Y-23904D01*
X26854Y-23888D01*
X26853Y-23881D01*
X26849Y-23881D01*
X26835Y-23880D01*
X26814Y-23879D01*
X26788Y-23879D01*
X26762Y-23879D01*
X26736Y-23879D01*
X26714Y-23880D01*
X26698Y-23881D01*
X26691Y-23883D01*
X26691Y-23883D01*
X26689Y-23892D01*
X26685Y-23909D01*
X26680Y-23934D01*
X26674Y-23963D01*
X26673Y-23968D01*
X26668Y-23996D01*
X26663Y-24019D01*
X26660Y-24035D01*
X26658Y-24041D01*
X26656Y-24042D01*
X26644Y-24048D01*
X26625Y-24055D01*
X26602Y-24065D01*
X26548Y-24087D01*
X26482Y-24041D01*
X26476Y-24037D01*
X26452Y-24021D01*
X26432Y-24008D01*
X26418Y-23999D01*
X26413Y-23996D01*
X26412Y-23996D01*
X26406Y-24002D01*
X26393Y-24014D01*
X26375Y-24032D01*
X26354Y-24052D01*
X26338Y-24068D01*
X26320Y-24086D01*
X26309Y-24099D01*
X26302Y-24107D01*
X26300Y-24112D01*
X26301Y-24115D01*
X26305Y-24122D01*
X26315Y-24136D01*
X26328Y-24157D01*
X26344Y-24180D01*
X26358Y-24200D01*
X26372Y-24222D01*
X26381Y-24238D01*
X26385Y-24245D01*
X26384Y-24249D01*
X26379Y-24262D01*
X26371Y-24281D01*
X26361Y-24305D01*
X26338Y-24357D01*
X26304Y-24364D01*
X26283Y-24368D01*
X26254Y-24373D01*
X26226Y-24379D01*
X26182Y-24387D01*
X26181Y-24546D01*
X26188Y-24549D01*
X26194Y-24551D01*
X26210Y-24555D01*
X26233Y-24559D01*
X26260Y-24564D01*
X26284Y-24569D01*
X26307Y-24573D01*
X26324Y-24576D01*
X26331Y-24578D01*
X26333Y-24580D01*
X26339Y-24592D01*
X26347Y-24610D01*
X26356Y-24631D01*
X26366Y-24654D01*
X26374Y-24674D01*
X26380Y-24690D01*
X26382Y-24698D01*
X26379Y-24704D01*
X26370Y-24718D01*
X26357Y-24738D01*
X26341Y-24761D01*
X26325Y-24784D01*
X26312Y-24804D01*
X26302Y-24818D01*
X26299Y-24825D01*
X26301Y-24829D01*
X26310Y-24840D01*
X26327Y-24858D01*
X26353Y-24884D01*
X26358Y-24888D01*
X26378Y-24908D01*
X26396Y-24924D01*
X26408Y-24935D01*
X26413Y-24939D01*
X26413Y-24939D01*
G37*
G36*
X32309Y-24925D02*
X32324Y-24923D01*
X32337Y-24919D01*
X32343Y-24916D01*
X32356Y-24907D01*
X32366Y-24896D01*
X32373Y-24884D01*
X32378Y-24870D01*
X32381Y-24856D01*
X32380Y-24841D01*
X32377Y-24827D01*
X32370Y-24813D01*
X32366Y-24807D01*
X32360Y-24800D01*
X32353Y-24794D01*
X32347Y-24789D01*
X32345Y-24788D01*
X32332Y-24782D01*
X32319Y-24779D01*
X32304Y-24778D01*
X32299Y-24778D01*
X32291Y-24779D01*
X32284Y-24781D01*
X32276Y-24785D01*
X32267Y-24789D01*
X32255Y-24799D01*
X32246Y-24811D01*
X32238Y-24824D01*
X32236Y-24830D01*
X32234Y-24838D01*
X32233Y-24843D01*
X32233Y-24844D01*
X32233Y-24844D01*
X32233Y-24841D01*
X32233Y-24841D01*
X32230Y-24831D01*
X32227Y-24822D01*
X32222Y-24813D01*
X32214Y-24802D01*
X32203Y-24792D01*
X32190Y-24784D01*
X32175Y-24779D01*
X32160Y-24778D01*
X32156Y-24778D01*
X32144Y-24779D01*
X32133Y-24782D01*
X32131Y-24783D01*
X32118Y-24790D01*
X32107Y-24799D01*
X32098Y-24811D01*
X32091Y-24823D01*
X32087Y-24836D01*
X32087Y-24837D01*
X32086Y-24840D01*
X32086Y-24842D01*
X32086Y-24842D01*
X32086Y-24840D01*
X32085Y-24836D01*
X32085Y-24835D01*
X32080Y-24822D01*
X32073Y-24809D01*
X32064Y-24798D01*
X32055Y-24791D01*
X32042Y-24784D01*
X32028Y-24779D01*
X32012Y-24778D01*
X32001Y-24779D01*
X31987Y-24782D01*
X31973Y-24789D01*
X31961Y-24798D01*
X31952Y-24810D01*
X31950Y-24812D01*
X31947Y-24817D01*
X31945Y-24822D01*
X31944Y-24825D01*
X31941Y-24832D01*
X31940Y-24838D01*
X31939Y-24843D01*
X31939Y-24844D01*
X31939Y-24844D01*
X31938Y-24841D01*
X31937Y-24833D01*
X31933Y-24823D01*
X31929Y-24814D01*
X31920Y-24802D01*
X31908Y-24792D01*
X31895Y-24784D01*
X31881Y-24779D01*
X31866Y-24778D01*
X31852Y-24779D01*
X31837Y-24783D01*
X31824Y-24790D01*
X31812Y-24800D01*
X31806Y-24807D01*
X31801Y-24815D01*
X31796Y-24824D01*
X31794Y-24832D01*
X31791Y-24847D01*
X31792Y-24861D01*
X31795Y-24875D01*
X31801Y-24888D01*
X31809Y-24899D01*
X31819Y-24909D01*
X31831Y-24917D01*
X31844Y-24922D01*
X31859Y-24925D01*
X31861Y-24925D01*
X31876Y-24925D01*
X31890Y-24921D01*
X31903Y-24915D01*
X31908Y-24911D01*
X31918Y-24903D01*
X31927Y-24892D01*
X31933Y-24881D01*
X31934Y-24877D01*
X31936Y-24871D01*
X31938Y-24864D01*
X31939Y-24859D01*
X31939Y-24856D01*
X31939Y-24859D01*
X31939Y-24862D01*
X31941Y-24868D01*
X31943Y-24876D01*
X31945Y-24882D01*
X31949Y-24889D01*
X31958Y-24901D01*
X31969Y-24911D01*
X31982Y-24919D01*
X31997Y-24924D01*
X31999Y-24924D01*
X32009Y-24925D01*
X32020Y-24925D01*
X32030Y-24923D01*
X32040Y-24920D01*
X32053Y-24913D01*
X32066Y-24903D01*
X32066Y-24902D01*
X32075Y-24892D01*
X32081Y-24879D01*
X32085Y-24867D01*
X32085Y-24866D01*
X32086Y-24863D01*
X32086Y-24861D01*
X32086Y-24862D01*
X32087Y-24865D01*
X32087Y-24866D01*
X32089Y-24874D01*
X32092Y-24882D01*
X32097Y-24890D01*
X32103Y-24899D01*
X32114Y-24910D01*
X32127Y-24918D01*
X32142Y-24923D01*
X32144Y-24924D01*
X32154Y-24925D01*
X32165Y-24925D01*
X32175Y-24924D01*
X32183Y-24921D01*
X32197Y-24915D01*
X32209Y-24906D01*
X32219Y-24895D01*
X32227Y-24882D01*
X32228Y-24878D01*
X32231Y-24871D01*
X32232Y-24864D01*
X32233Y-24859D01*
X32233Y-24859D01*
X32233Y-24859D01*
X32234Y-24862D01*
X32234Y-24862D01*
X32236Y-24871D01*
X32240Y-24881D01*
X32244Y-24890D01*
X32246Y-24893D01*
X32255Y-24904D01*
X32267Y-24913D01*
X32280Y-24920D01*
X32294Y-24924D01*
X32309Y-24925D01*
X32309Y-24925D01*
G37*
G36*
X31713Y-24778D02*
X31722Y-24777D01*
X31730Y-24777D01*
X31740Y-24774D01*
X31754Y-24768D01*
X31766Y-24759D01*
X31776Y-24748D01*
X31784Y-24735D01*
X31789Y-24721D01*
X31791Y-24706D01*
X31790Y-24691D01*
X31786Y-24677D01*
X31780Y-24664D01*
X31770Y-24652D01*
X31758Y-24642D01*
X31755Y-24640D01*
X31740Y-24634D01*
X31726Y-24630D01*
X31710Y-24630D01*
X31695Y-24633D01*
X31683Y-24638D01*
X31670Y-24647D01*
X31660Y-24658D01*
X31651Y-24671D01*
X31646Y-24686D01*
X31644Y-24693D01*
X31644Y-24703D01*
X31644Y-24712D01*
X31645Y-24720D01*
X31646Y-24723D01*
X31652Y-24738D01*
X31660Y-24751D01*
X31672Y-24762D01*
X31685Y-24770D01*
X31691Y-24773D01*
X31700Y-24776D01*
X31708Y-24777D01*
X31713Y-24778D01*
X31713Y-24778D01*
G37*
G36*
X32456Y-24778D02*
X32471Y-24776D01*
X32486Y-24771D01*
X32500Y-24762D01*
X32503Y-24760D01*
X32513Y-24749D01*
X32521Y-24736D01*
X32526Y-24722D01*
X32528Y-24714D01*
X32528Y-24705D01*
X32528Y-24695D01*
X32527Y-24688D01*
X32526Y-24684D01*
X32520Y-24669D01*
X32512Y-24657D01*
X32501Y-24646D01*
X32488Y-24638D01*
X32474Y-24633D01*
X32459Y-24630D01*
X32453Y-24630D01*
X32438Y-24632D01*
X32424Y-24636D01*
X32412Y-24644D01*
X32401Y-24653D01*
X32392Y-24665D01*
X32386Y-24678D01*
X32382Y-24692D01*
X32381Y-24707D01*
X32382Y-24716D01*
X32384Y-24724D01*
X32387Y-24733D01*
X32393Y-24744D01*
X32402Y-24756D01*
X32414Y-24765D01*
X32427Y-24772D01*
X32441Y-24776D01*
X32456Y-24778D01*
X32456Y-24778D01*
G37*
G36*
X31566Y-24630D02*
X31576Y-24630D01*
X31585Y-24628D01*
X31596Y-24625D01*
X31609Y-24618D01*
X31622Y-24608D01*
X31630Y-24599D01*
X31637Y-24586D01*
X31642Y-24572D01*
X31643Y-24566D01*
X31643Y-24557D01*
X31643Y-24548D01*
X31642Y-24541D01*
X31641Y-24536D01*
X31635Y-24522D01*
X31627Y-24509D01*
X31616Y-24498D01*
X31602Y-24490D01*
X31597Y-24488D01*
X31588Y-24484D01*
X31578Y-24483D01*
X31567Y-24483D01*
X31560Y-24483D01*
X31552Y-24484D01*
X31545Y-24486D01*
X31537Y-24490D01*
X31532Y-24493D01*
X31520Y-24502D01*
X31510Y-24513D01*
X31502Y-24527D01*
X31497Y-24542D01*
X31497Y-24545D01*
X31496Y-24554D01*
X31496Y-24563D01*
X31497Y-24571D01*
X31498Y-24576D01*
X31504Y-24590D01*
X31513Y-24603D01*
X31523Y-24614D01*
X31537Y-24622D01*
X31551Y-24628D01*
X31556Y-24629D01*
X31566Y-24630D01*
X31566Y-24630D01*
G37*
G36*
X32158Y-24630D02*
X32172Y-24629D01*
X32186Y-24625D01*
X32195Y-24621D01*
X32207Y-24612D01*
X32218Y-24601D01*
X32226Y-24588D01*
X32231Y-24574D01*
X32232Y-24571D01*
X32233Y-24559D01*
X32233Y-24548D01*
X32230Y-24535D01*
X32224Y-24520D01*
X32215Y-24508D01*
X32204Y-24498D01*
X32191Y-24490D01*
X32176Y-24484D01*
X32167Y-24482D01*
X32172Y-24481D01*
X32173Y-24481D01*
X32183Y-24478D01*
X32194Y-24473D01*
X32205Y-24467D01*
X32206Y-24465D01*
X32217Y-24455D01*
X32225Y-24442D01*
X32230Y-24428D01*
X32233Y-24414D01*
X32233Y-24400D01*
X32229Y-24386D01*
X32223Y-24372D01*
X32223Y-24371D01*
X32213Y-24359D01*
X32202Y-24349D01*
X32190Y-24342D01*
X32176Y-24338D01*
X32162Y-24336D01*
X32148Y-24337D01*
X32134Y-24340D01*
X32121Y-24347D01*
X32108Y-24356D01*
X32102Y-24363D01*
X32095Y-24374D01*
X32089Y-24385D01*
X32087Y-24396D01*
X32086Y-24399D01*
X32086Y-24400D01*
X32086Y-24399D01*
X32085Y-24396D01*
X32083Y-24386D01*
X32078Y-24376D01*
X32072Y-24366D01*
X32068Y-24361D01*
X32057Y-24351D01*
X32044Y-24343D01*
X32030Y-24338D01*
X32015Y-24336D01*
X32000Y-24337D01*
X31991Y-24339D01*
X31977Y-24345D01*
X31965Y-24353D01*
X31954Y-24364D01*
X31946Y-24377D01*
X31941Y-24392D01*
X31940Y-24399D01*
X31939Y-24414D01*
X31942Y-24428D01*
X31947Y-24442D01*
X31955Y-24455D01*
X31966Y-24465D01*
X31979Y-24474D01*
X31985Y-24477D01*
X31992Y-24479D01*
X31998Y-24481D01*
X32003Y-24482D01*
X32003Y-24482D01*
X32003Y-24482D01*
X32000Y-24483D01*
X31993Y-24485D01*
X31983Y-24489D01*
X31974Y-24493D01*
X31970Y-24496D01*
X31960Y-24505D01*
X31951Y-24515D01*
X31945Y-24526D01*
X31941Y-24539D01*
X31939Y-24552D01*
X31939Y-24565D01*
X31940Y-24567D01*
X31944Y-24583D01*
X31951Y-24596D01*
X31961Y-24608D01*
X31969Y-24616D01*
X31982Y-24624D01*
X31997Y-24628D01*
X32002Y-24629D01*
X32010Y-24630D01*
X32019Y-24629D01*
X32027Y-24629D01*
X32033Y-24627D01*
X32038Y-24626D01*
X32052Y-24619D01*
X32064Y-24609D01*
X32074Y-24597D01*
X32078Y-24591D01*
X32082Y-24581D01*
X32085Y-24571D01*
X32085Y-24571D01*
X32086Y-24567D01*
X32086Y-24566D01*
X32086Y-24566D01*
X32086Y-24546D01*
X32086Y-24546D01*
X32086Y-24545D01*
X32085Y-24541D01*
X32085Y-24540D01*
X32080Y-24527D01*
X32073Y-24514D01*
X32064Y-24503D01*
X32053Y-24494D01*
X32040Y-24488D01*
X32039Y-24487D01*
X32033Y-24485D01*
X32027Y-24484D01*
X32020Y-24482D01*
X32026Y-24481D01*
X32035Y-24479D01*
X32048Y-24473D01*
X32060Y-24465D01*
X32071Y-24454D01*
X32079Y-24442D01*
X32081Y-24436D01*
X32084Y-24428D01*
X32085Y-24422D01*
X32086Y-24419D01*
X32086Y-24418D01*
X32086Y-24419D01*
X32087Y-24422D01*
X32088Y-24427D01*
X32090Y-24435D01*
X32093Y-24442D01*
X32098Y-24450D01*
X32108Y-24461D01*
X32119Y-24470D01*
X32132Y-24477D01*
X32146Y-24481D01*
X32152Y-24482D01*
X32146Y-24484D01*
X32145Y-24484D01*
X32138Y-24485D01*
X32132Y-24488D01*
X32131Y-24488D01*
X32118Y-24495D01*
X32107Y-24504D01*
X32098Y-24515D01*
X32091Y-24528D01*
X32087Y-24541D01*
X32087Y-24541D01*
X32086Y-24545D01*
X32086Y-24546D01*
X32086Y-24566D01*
X32086Y-24566D01*
X32086Y-24568D01*
X32087Y-24571D01*
X32090Y-24581D01*
X32096Y-24594D01*
X32105Y-24606D01*
X32116Y-24616D01*
X32129Y-24623D01*
X32129Y-24623D01*
X32143Y-24628D01*
X32158Y-24630D01*
X32158Y-24630D01*
G37*
G36*
X32597Y-24630D02*
X32609Y-24630D01*
X32620Y-24628D01*
X32627Y-24626D01*
X32641Y-24619D01*
X32653Y-24610D01*
X32663Y-24599D01*
X32670Y-24586D01*
X32674Y-24572D01*
X32676Y-24556D01*
X32676Y-24550D01*
X32673Y-24535D01*
X32667Y-24521D01*
X32658Y-24507D01*
X32655Y-24505D01*
X32645Y-24496D01*
X32633Y-24489D01*
X32620Y-24484D01*
X32619Y-24484D01*
X32608Y-24483D01*
X32596Y-24483D01*
X32585Y-24484D01*
X32581Y-24485D01*
X32567Y-24491D01*
X32555Y-24500D01*
X32545Y-24510D01*
X32537Y-24522D01*
X32531Y-24535D01*
X32529Y-24550D01*
X32529Y-24565D01*
X32532Y-24580D01*
X32537Y-24591D01*
X32546Y-24603D01*
X32557Y-24614D01*
X32569Y-24622D01*
X32584Y-24628D01*
X32585Y-24628D01*
X32597Y-24630D01*
X32597Y-24630D01*
G37*
G36*
X31867Y-24188D02*
X31882Y-24186D01*
X31896Y-24181D01*
X31903Y-24178D01*
X31909Y-24173D01*
X31916Y-24167D01*
X31924Y-24159D01*
X31932Y-24146D01*
X31937Y-24132D01*
X31938Y-24128D01*
X31939Y-24118D01*
X31939Y-24108D01*
X31937Y-24099D01*
X31933Y-24086D01*
X31927Y-24073D01*
X31918Y-24062D01*
X31916Y-24061D01*
X31909Y-24055D01*
X31901Y-24050D01*
X31894Y-24046D01*
X31891Y-24045D01*
X31885Y-24043D01*
X31879Y-24042D01*
X31875Y-24041D01*
X31872Y-24041D01*
X31875Y-24040D01*
X31879Y-24039D01*
X31883Y-24038D01*
X31889Y-24037D01*
X31900Y-24031D01*
X31911Y-24025D01*
X31919Y-24017D01*
X31921Y-24015D01*
X31930Y-24002D01*
X31936Y-23988D01*
X31939Y-23974D01*
X31939Y-23959D01*
X31938Y-23955D01*
X31934Y-23940D01*
X31927Y-23927D01*
X31917Y-23914D01*
X31908Y-23907D01*
X31895Y-23899D01*
X31881Y-23894D01*
X31878Y-23894D01*
X31868Y-23893D01*
X31858Y-23893D01*
X31848Y-23895D01*
X31840Y-23897D01*
X31826Y-23904D01*
X31814Y-23913D01*
X31805Y-23924D01*
X31797Y-23937D01*
X31793Y-23951D01*
X31792Y-23953D01*
X31791Y-23956D01*
X31791Y-23958D01*
X31790Y-23956D01*
X31790Y-23953D01*
X31789Y-23947D01*
X31786Y-23940D01*
X31784Y-23934D01*
X31781Y-23930D01*
X31772Y-23917D01*
X31761Y-23907D01*
X31748Y-23899D01*
X31734Y-23895D01*
X31718Y-23893D01*
X31706Y-23894D01*
X31692Y-23897D01*
X31679Y-23904D01*
X31671Y-23909D01*
X31660Y-23920D01*
X31652Y-23932D01*
X31646Y-23946D01*
X31644Y-23960D01*
X31644Y-23975D01*
X31647Y-23989D01*
X31653Y-24003D01*
X31662Y-24015D01*
X31673Y-24026D01*
X31687Y-24034D01*
X31702Y-24039D01*
X31710Y-24041D01*
X31705Y-24041D01*
X31702Y-24042D01*
X31690Y-24045D01*
X31679Y-24051D01*
X31668Y-24059D01*
X31659Y-24068D01*
X31654Y-24076D01*
X31649Y-24086D01*
X31646Y-24096D01*
X31644Y-24104D01*
X31644Y-24113D01*
X31644Y-24123D01*
X31645Y-24130D01*
X31648Y-24139D01*
X31655Y-24153D01*
X31664Y-24165D01*
X31676Y-24175D01*
X31689Y-24183D01*
X31705Y-24187D01*
X31709Y-24188D01*
X31718Y-24188D01*
X31727Y-24187D01*
X31736Y-24186D01*
X31742Y-24184D01*
X31756Y-24177D01*
X31768Y-24168D01*
X31778Y-24157D01*
X31785Y-24144D01*
X31790Y-24129D01*
X31790Y-24128D01*
X31791Y-24124D01*
X31791Y-24125D01*
X31791Y-24104D01*
X31791Y-24104D01*
X31790Y-24101D01*
X31790Y-24100D01*
X31787Y-24090D01*
X31783Y-24080D01*
X31777Y-24070D01*
X31772Y-24065D01*
X31761Y-24054D01*
X31747Y-24047D01*
X31732Y-24042D01*
X31725Y-24040D01*
X31730Y-24039D01*
X31735Y-24038D01*
X31739Y-24037D01*
X31742Y-24036D01*
X31756Y-24030D01*
X31768Y-24020D01*
X31778Y-24009D01*
X31785Y-23996D01*
X31790Y-23982D01*
X31790Y-23979D01*
X31791Y-23977D01*
X31792Y-23978D01*
X31793Y-23982D01*
X31793Y-23983D01*
X31795Y-23991D01*
X31799Y-23999D01*
X31803Y-24007D01*
X31807Y-24012D01*
X31814Y-24019D01*
X31821Y-24026D01*
X31828Y-24031D01*
X31829Y-24031D01*
X31840Y-24036D01*
X31852Y-24039D01*
X31857Y-24040D01*
X31851Y-24042D01*
X31838Y-24045D01*
X31825Y-24052D01*
X31813Y-24061D01*
X31804Y-24072D01*
X31802Y-24076D01*
X31798Y-24083D01*
X31795Y-24091D01*
X31793Y-24098D01*
X31792Y-24103D01*
X31792Y-24103D01*
X31791Y-24104D01*
X31791Y-24125D01*
X31792Y-24125D01*
X31792Y-24128D01*
X31793Y-24132D01*
X31795Y-24137D01*
X31798Y-24144D01*
X31805Y-24157D01*
X31815Y-24168D01*
X31826Y-24177D01*
X31839Y-24183D01*
X31853Y-24187D01*
X31867Y-24188D01*
X31867Y-24188D01*
G37*
G36*
X32311Y-24188D02*
X32325Y-24186D01*
X32339Y-24181D01*
X32352Y-24173D01*
X32362Y-24163D01*
X32371Y-24151D01*
X32377Y-24137D01*
X32379Y-24132D01*
X32380Y-24128D01*
X32380Y-24127D01*
X32381Y-24124D01*
X32381Y-24124D01*
X32381Y-24104D01*
X32380Y-24102D01*
X32379Y-24097D01*
X32376Y-24088D01*
X32370Y-24075D01*
X32361Y-24063D01*
X32349Y-24054D01*
X32336Y-24046D01*
X32322Y-24042D01*
X32315Y-24040D01*
X32320Y-24039D01*
X32320Y-24039D01*
X32332Y-24036D01*
X32344Y-24031D01*
X32348Y-24028D01*
X32356Y-24021D01*
X32363Y-24014D01*
X32369Y-24007D01*
X32372Y-24001D01*
X32377Y-23991D01*
X32379Y-23983D01*
X32380Y-23979D01*
X32381Y-23977D01*
X32381Y-23978D01*
X32382Y-23982D01*
X32385Y-23992D01*
X32392Y-24006D01*
X32402Y-24018D01*
X32413Y-24027D01*
X32426Y-24035D01*
X32442Y-24039D01*
X32447Y-24040D01*
X32440Y-24042D01*
X32433Y-24044D01*
X32419Y-24050D01*
X32406Y-24059D01*
X32396Y-24070D01*
X32392Y-24074D01*
X32389Y-24081D01*
X32385Y-24089D01*
X32383Y-24094D01*
X32382Y-24100D01*
X32382Y-24100D01*
X32381Y-24103D01*
X32381Y-24104D01*
X32381Y-24124D01*
X32381Y-24125D01*
X32382Y-24129D01*
X32383Y-24134D01*
X32388Y-24145D01*
X32393Y-24155D01*
X32398Y-24161D01*
X32409Y-24172D01*
X32422Y-24180D01*
X32437Y-24186D01*
X32443Y-24187D01*
X32453Y-24188D01*
X32464Y-24187D01*
X32473Y-24186D01*
X32474Y-24186D01*
X32489Y-24180D01*
X32502Y-24171D01*
X32512Y-24160D01*
X32521Y-24147D01*
X32526Y-24132D01*
X32528Y-24126D01*
X32528Y-24115D01*
X32528Y-24105D01*
X32526Y-24096D01*
X32524Y-24088D01*
X32519Y-24078D01*
X32513Y-24068D01*
X32506Y-24061D01*
X32497Y-24054D01*
X32487Y-24048D01*
X32484Y-24046D01*
X32477Y-24044D01*
X32470Y-24042D01*
X32465Y-24041D01*
X32464Y-24041D01*
X32466Y-24040D01*
X32470Y-24039D01*
X32479Y-24036D01*
X32488Y-24032D01*
X32496Y-24028D01*
X32498Y-24026D01*
X32508Y-24018D01*
X32516Y-24007D01*
X32522Y-23996D01*
X32525Y-23991D01*
X32528Y-23976D01*
X32528Y-23961D01*
X32526Y-23946D01*
X32525Y-23943D01*
X32518Y-23929D01*
X32509Y-23917D01*
X32498Y-23907D01*
X32485Y-23899D01*
X32470Y-23894D01*
X32468Y-23894D01*
X32458Y-23893D01*
X32447Y-23893D01*
X32438Y-23895D01*
X32435Y-23895D01*
X32421Y-23901D01*
X32408Y-23909D01*
X32397Y-23921D01*
X32388Y-23934D01*
X32386Y-23938D01*
X32384Y-23945D01*
X32382Y-23951D01*
X32382Y-23956D01*
X32382Y-23957D01*
X32381Y-23957D01*
X32380Y-23955D01*
X32379Y-23951D01*
X32377Y-23941D01*
X32370Y-23928D01*
X32361Y-23917D01*
X32350Y-23907D01*
X32337Y-23899D01*
X32337Y-23899D01*
X32324Y-23895D01*
X32309Y-23893D01*
X32294Y-23894D01*
X32280Y-23898D01*
X32272Y-23902D01*
X32259Y-23910D01*
X32249Y-23921D01*
X32241Y-23934D01*
X32235Y-23949D01*
X32235Y-23952D01*
X32233Y-23964D01*
X32234Y-23975D01*
X32237Y-23989D01*
X32243Y-24003D01*
X32252Y-24015D01*
X32263Y-24026D01*
X32276Y-24034D01*
X32291Y-24039D01*
X32294Y-24040D01*
X32297Y-24041D01*
X32297Y-24041D01*
X32293Y-24041D01*
X32284Y-24044D01*
X32275Y-24048D01*
X32266Y-24053D01*
X32258Y-24059D01*
X32248Y-24070D01*
X32240Y-24084D01*
X32239Y-24086D01*
X32234Y-24100D01*
X32233Y-24115D01*
X32235Y-24131D01*
X32240Y-24145D01*
X32243Y-24152D01*
X32248Y-24158D01*
X32254Y-24165D01*
X32254Y-24166D01*
X32266Y-24176D01*
X32280Y-24183D01*
X32294Y-24187D01*
X32296Y-24187D01*
X32311Y-24188D01*
X32311Y-24188D01*
G37*
%LPC*%
G54D13*
X28937Y-24803D03*
G54D14*
X28937Y-24606D03*
X28937Y-24409D03*
X28937Y-24212D03*
X28937Y-24015D03*
X30118Y-24015D03*
X30118Y-24212D03*
X30118Y-24409D03*
X30118Y-24606D03*
X30118Y-24803D03*
G54D15*
X28543Y-25393D03*
X28543Y-23425D03*
X30511Y-23425D03*
X30511Y-25393D03*
G54D16*
X29901Y-22755D03*
X29153Y-22755D03*
G54D17*
X28366Y-24215D03*
X27776Y-24215D03*
X28366Y-24609D03*
X27776Y-24609D03*
G54D10*
G36*
X27883Y-25028D02*
X27668Y-25028D01*
X27668Y-23790D01*
X27883Y-23790D01*
X27883Y-25028D01*
X27883Y-25028D01*
G37*
G54D18*
X27883Y-25028D02*
X27668Y-25028D01*
X27668Y-23790D01*
X27883Y-23790D01*
X27883Y-25028D01*
M02*
