M48
METRIC,TZ
T1C0.330
T2C0.350
T3C0.406
T4C1.200
%
G90
G05
T1
X068130Y-064280
X068550Y-058780
X068750Y-061500
X070130Y-066200
X070450Y-061070
X070500Y-064440
X070910Y-057280
X071720Y-068430
X072620Y-057460
X072630Y-061570
X072760Y-055190
X073400Y-066790
X074520Y-068410
X075460Y-055710
X075560Y-063290
X076360Y-057170
X077200Y-068850
X077500Y-062190
X077500Y-066580
X078290Y-055600
X079160Y-066880
X079610Y-063290
X079620Y-059500
X079870Y-057830
X081340Y-065330
X081360Y-062470
X081850Y-059770
T2
X075000Y-061365
X075000Y-062635
T3
X074600Y-060400
X083000Y-062000
T4
X072500Y-059500
X072500Y-064500
X077500Y-059500
X077500Y-064500
T0
M30
