%FSLAX34Y34*%
G04 Gerber Fmt 3.4, Leading zero omitted, Abs format*
G04 (created by PCBNEW (2013-10-14 BZR 4386)-product) date Tue 15 Oct 2013 01:07:32 AM CEST*
%MOIN*%
G01*
G70*
G90*
G04 APERTURE LIST*
%ADD10C,0.005906*%
%ADD11C,0.007874*%
%ADD12C,0.000100*%
%ADD13R,0.059000X0.051100*%
%ADD14R,0.021654X0.025591*%
%ADD15O,0.039370X0.009843*%
%ADD16R,0.039370X0.009843*%
%ADD17C,0.078740*%
%ADD18C,0.003937*%
G04 APERTURE END LIST*
G54D10*
G54D11*
X27751Y-24586D02*
X27751Y-24803D01*
X27751Y-24015D02*
X27751Y-24232D01*
X30286Y-21119D02*
X30249Y-21119D01*
X30211Y-21137D01*
X30193Y-21156D01*
X30174Y-21194D01*
X30155Y-21269D01*
X30155Y-21362D01*
X30174Y-21437D01*
X30193Y-21475D01*
X30211Y-21494D01*
X30249Y-21512D01*
X30286Y-21512D01*
X30324Y-21494D01*
X30343Y-21475D01*
X30361Y-21437D01*
X30380Y-21362D01*
X30380Y-21269D01*
X30361Y-21194D01*
X30343Y-21156D01*
X30324Y-21137D01*
X30286Y-21119D01*
X29986Y-21475D02*
X29968Y-21494D01*
X29986Y-21512D01*
X30005Y-21494D01*
X29986Y-21475D01*
X29986Y-21512D01*
X29818Y-21156D02*
X29799Y-21137D01*
X29761Y-21119D01*
X29668Y-21119D01*
X29630Y-21137D01*
X29611Y-21156D01*
X29593Y-21194D01*
X29593Y-21231D01*
X29611Y-21287D01*
X29836Y-21512D01*
X29593Y-21512D01*
X29461Y-21119D02*
X29218Y-21119D01*
X29349Y-21269D01*
X29293Y-21269D01*
X29255Y-21287D01*
X29236Y-21306D01*
X29218Y-21344D01*
X29218Y-21437D01*
X29236Y-21475D01*
X29255Y-21494D01*
X29293Y-21512D01*
X29405Y-21512D01*
X29443Y-21494D01*
X29461Y-21475D01*
X29049Y-21475D02*
X29030Y-21494D01*
X29049Y-21512D01*
X29068Y-21494D01*
X29049Y-21475D01*
X29049Y-21512D01*
X28862Y-21512D02*
X28862Y-21119D01*
X28862Y-21269D02*
X28824Y-21250D01*
X28749Y-21250D01*
X28712Y-21269D01*
X28693Y-21287D01*
X28674Y-21325D01*
X28674Y-21437D01*
X28693Y-21475D01*
X28712Y-21494D01*
X28749Y-21512D01*
X28824Y-21512D01*
X28862Y-21494D01*
X31805Y-22844D02*
X31767Y-22863D01*
X31692Y-22863D01*
X31655Y-22844D01*
X31636Y-22806D01*
X31636Y-22788D01*
X31655Y-22750D01*
X31692Y-22731D01*
X31748Y-22731D01*
X31786Y-22713D01*
X31805Y-22675D01*
X31805Y-22656D01*
X31786Y-22619D01*
X31748Y-22600D01*
X31692Y-22600D01*
X31655Y-22619D01*
X31467Y-22600D02*
X31467Y-22994D01*
X31467Y-22619D02*
X31430Y-22600D01*
X31355Y-22600D01*
X31317Y-22619D01*
X31299Y-22638D01*
X31280Y-22675D01*
X31280Y-22788D01*
X31299Y-22825D01*
X31317Y-22844D01*
X31355Y-22863D01*
X31430Y-22863D01*
X31467Y-22844D01*
X31111Y-22863D02*
X31111Y-22600D01*
X31111Y-22469D02*
X31130Y-22488D01*
X31111Y-22506D01*
X31092Y-22488D01*
X31111Y-22469D01*
X31111Y-22506D01*
X30980Y-22600D02*
X30830Y-22600D01*
X30924Y-22469D02*
X30924Y-22806D01*
X30905Y-22844D01*
X30867Y-22863D01*
X30830Y-22863D01*
X30736Y-22600D02*
X30530Y-22600D01*
X30736Y-22863D01*
X30530Y-22863D01*
X30230Y-22844D02*
X30267Y-22863D01*
X30342Y-22863D01*
X30380Y-22844D01*
X30399Y-22806D01*
X30399Y-22656D01*
X30380Y-22619D01*
X30342Y-22600D01*
X30267Y-22600D01*
X30230Y-22619D01*
X30211Y-22656D01*
X30211Y-22694D01*
X30399Y-22731D01*
X30042Y-22600D02*
X30042Y-22863D01*
X30042Y-22638D02*
X30024Y-22619D01*
X29986Y-22600D01*
X29930Y-22600D01*
X29892Y-22619D01*
X29874Y-22656D01*
X29874Y-22863D01*
X29686Y-22600D02*
X29686Y-22994D01*
X29686Y-22619D02*
X29649Y-22600D01*
X29574Y-22600D01*
X29536Y-22619D01*
X29517Y-22638D01*
X29499Y-22675D01*
X29499Y-22788D01*
X29517Y-22825D01*
X29536Y-22844D01*
X29574Y-22863D01*
X29649Y-22863D01*
X29686Y-22844D01*
X29386Y-22600D02*
X29236Y-22600D01*
X29330Y-22863D02*
X29330Y-22525D01*
X29311Y-22488D01*
X29274Y-22469D01*
X29236Y-22469D01*
X28955Y-22844D02*
X28993Y-22863D01*
X29068Y-22863D01*
X29105Y-22844D01*
X29124Y-22806D01*
X29124Y-22656D01*
X29105Y-22619D01*
X29068Y-22600D01*
X28993Y-22600D01*
X28955Y-22619D01*
X28936Y-22656D01*
X28936Y-22694D01*
X29124Y-22731D01*
X28768Y-22863D02*
X28768Y-22600D01*
X28768Y-22469D02*
X28786Y-22488D01*
X28768Y-22506D01*
X28749Y-22488D01*
X28768Y-22469D01*
X28768Y-22506D01*
X28524Y-22863D02*
X28561Y-22844D01*
X28580Y-22806D01*
X28580Y-22469D01*
X28374Y-22825D02*
X28355Y-22844D01*
X28374Y-22863D01*
X28393Y-22844D01*
X28374Y-22825D01*
X28374Y-22863D01*
X28130Y-22863D02*
X28168Y-22844D01*
X28186Y-22825D01*
X28205Y-22788D01*
X28205Y-22675D01*
X28186Y-22638D01*
X28168Y-22619D01*
X28130Y-22600D01*
X28074Y-22600D01*
X28036Y-22619D01*
X28018Y-22638D01*
X27999Y-22675D01*
X27999Y-22788D01*
X28018Y-22825D01*
X28036Y-22844D01*
X28074Y-22863D01*
X28130Y-22863D01*
X27830Y-22863D02*
X27830Y-22600D01*
X27830Y-22675D02*
X27811Y-22638D01*
X27793Y-22619D01*
X27755Y-22600D01*
X27718Y-22600D01*
X27418Y-22600D02*
X27418Y-22919D01*
X27437Y-22956D01*
X27455Y-22975D01*
X27493Y-22994D01*
X27549Y-22994D01*
X27586Y-22975D01*
X27418Y-22844D02*
X27455Y-22863D01*
X27530Y-22863D01*
X27568Y-22844D01*
X27586Y-22825D01*
X27605Y-22788D01*
X27605Y-22675D01*
X27586Y-22638D01*
X27568Y-22619D01*
X27530Y-22600D01*
X27455Y-22600D01*
X27418Y-22619D01*
X30202Y-27314D02*
X30183Y-27295D01*
X30146Y-27276D01*
X30052Y-27276D01*
X30014Y-27295D01*
X29996Y-27314D01*
X29977Y-27351D01*
X29977Y-27389D01*
X29996Y-27445D01*
X30221Y-27670D01*
X29977Y-27670D01*
X29733Y-27276D02*
X29696Y-27276D01*
X29658Y-27295D01*
X29640Y-27314D01*
X29621Y-27351D01*
X29602Y-27426D01*
X29602Y-27520D01*
X29621Y-27595D01*
X29640Y-27632D01*
X29658Y-27651D01*
X29696Y-27670D01*
X29733Y-27670D01*
X29771Y-27651D01*
X29790Y-27632D01*
X29808Y-27595D01*
X29827Y-27520D01*
X29827Y-27426D01*
X29808Y-27351D01*
X29790Y-27314D01*
X29771Y-27295D01*
X29733Y-27276D01*
X29227Y-27670D02*
X29452Y-27670D01*
X29340Y-27670D02*
X29340Y-27276D01*
X29377Y-27332D01*
X29415Y-27370D01*
X29452Y-27389D01*
X29096Y-27276D02*
X28852Y-27276D01*
X28983Y-27426D01*
X28927Y-27426D01*
X28890Y-27445D01*
X28871Y-27464D01*
X28852Y-27501D01*
X28852Y-27595D01*
X28871Y-27632D01*
X28890Y-27651D01*
X28927Y-27670D01*
X29040Y-27670D01*
X29077Y-27651D01*
X29096Y-27632D01*
X29695Y-23423D02*
X29335Y-23423D01*
X29515Y-23603D02*
X29515Y-23243D01*
X29343Y-25387D02*
X29703Y-25387D01*
X28937Y-25000D02*
X30118Y-25000D01*
X30118Y-25000D02*
X30118Y-23818D01*
X30118Y-23818D02*
X28937Y-23818D01*
X28937Y-23818D02*
X28937Y-25000D01*
G54D12*
G36*
X26267Y-24888D02*
X26274Y-24885D01*
X26287Y-24876D01*
X26307Y-24863D01*
X26330Y-24848D01*
X26354Y-24832D01*
X26373Y-24819D01*
X26387Y-24810D01*
X26392Y-24807D01*
X26395Y-24808D01*
X26406Y-24814D01*
X26422Y-24822D01*
X26432Y-24827D01*
X26447Y-24833D01*
X26454Y-24835D01*
X26455Y-24833D01*
X26461Y-24821D01*
X26469Y-24802D01*
X26480Y-24776D01*
X26493Y-24746D01*
X26507Y-24714D01*
X26520Y-24681D01*
X26533Y-24650D01*
X26545Y-24621D01*
X26554Y-24598D01*
X26560Y-24582D01*
X26563Y-24575D01*
X26562Y-24574D01*
X26555Y-24567D01*
X26542Y-24557D01*
X26514Y-24534D01*
X26486Y-24500D01*
X26469Y-24461D01*
X26464Y-24417D01*
X26468Y-24377D01*
X26484Y-24339D01*
X26511Y-24304D01*
X26544Y-24278D01*
X26582Y-24262D01*
X26625Y-24257D01*
X26666Y-24261D01*
X26705Y-24277D01*
X26740Y-24303D01*
X26755Y-24320D01*
X26775Y-24356D01*
X26787Y-24393D01*
X26788Y-24402D01*
X26786Y-24444D01*
X26774Y-24484D01*
X26752Y-24519D01*
X26722Y-24548D01*
X26718Y-24551D01*
X26704Y-24562D01*
X26694Y-24569D01*
X26687Y-24575D01*
X26740Y-24702D01*
X26748Y-24722D01*
X26763Y-24757D01*
X26775Y-24787D01*
X26786Y-24811D01*
X26793Y-24827D01*
X26796Y-24833D01*
X26796Y-24833D01*
X26801Y-24834D01*
X26810Y-24831D01*
X26828Y-24822D01*
X26840Y-24816D01*
X26853Y-24810D01*
X26859Y-24807D01*
X26865Y-24810D01*
X26878Y-24818D01*
X26896Y-24831D01*
X26919Y-24846D01*
X26941Y-24861D01*
X26961Y-24874D01*
X26975Y-24884D01*
X26982Y-24887D01*
X26983Y-24887D01*
X26990Y-24884D01*
X27001Y-24874D01*
X27018Y-24858D01*
X27043Y-24834D01*
X27047Y-24830D01*
X27067Y-24810D01*
X27083Y-24792D01*
X27094Y-24780D01*
X27098Y-24775D01*
X27098Y-24775D01*
X27094Y-24768D01*
X27085Y-24753D01*
X27072Y-24733D01*
X27056Y-24709D01*
X27014Y-24648D01*
X27037Y-24591D01*
X27044Y-24573D01*
X27053Y-24551D01*
X27060Y-24536D01*
X27063Y-24529D01*
X27070Y-24527D01*
X27085Y-24523D01*
X27108Y-24519D01*
X27136Y-24514D01*
X27162Y-24509D01*
X27185Y-24504D01*
X27202Y-24501D01*
X27210Y-24500D01*
X27212Y-24498D01*
X27213Y-24495D01*
X27214Y-24487D01*
X27215Y-24472D01*
X27215Y-24450D01*
X27215Y-24417D01*
X27215Y-24414D01*
X27215Y-24383D01*
X27214Y-24358D01*
X27213Y-24343D01*
X27212Y-24336D01*
X27212Y-24336D01*
X27205Y-24334D01*
X27188Y-24331D01*
X27165Y-24326D01*
X27137Y-24321D01*
X27135Y-24321D01*
X27107Y-24315D01*
X27084Y-24310D01*
X27067Y-24307D01*
X27060Y-24304D01*
X27059Y-24302D01*
X27053Y-24291D01*
X27045Y-24274D01*
X27036Y-24253D01*
X27027Y-24231D01*
X27019Y-24211D01*
X27014Y-24197D01*
X27012Y-24190D01*
X27012Y-24190D01*
X27016Y-24183D01*
X27026Y-24169D01*
X27040Y-24149D01*
X27056Y-24125D01*
X27057Y-24123D01*
X27073Y-24099D01*
X27086Y-24079D01*
X27095Y-24065D01*
X27098Y-24059D01*
X27098Y-24058D01*
X27093Y-24051D01*
X27081Y-24038D01*
X27063Y-24020D01*
X27043Y-23999D01*
X27036Y-23993D01*
X27013Y-23970D01*
X26997Y-23956D01*
X26987Y-23948D01*
X26983Y-23946D01*
X26982Y-23946D01*
X26975Y-23950D01*
X26960Y-23960D01*
X26940Y-23974D01*
X26916Y-23990D01*
X26915Y-23991D01*
X26891Y-24007D01*
X26871Y-24021D01*
X26857Y-24030D01*
X26851Y-24033D01*
X26850Y-24033D01*
X26841Y-24031D01*
X26824Y-24025D01*
X26803Y-24017D01*
X26781Y-24008D01*
X26761Y-24000D01*
X26747Y-23993D01*
X26740Y-23989D01*
X26739Y-23989D01*
X26737Y-23980D01*
X26733Y-23962D01*
X26728Y-23938D01*
X26722Y-23909D01*
X26721Y-23905D01*
X26716Y-23876D01*
X26712Y-23853D01*
X26708Y-23837D01*
X26707Y-23830D01*
X26703Y-23830D01*
X26689Y-23829D01*
X26668Y-23828D01*
X26642Y-23828D01*
X26616Y-23828D01*
X26590Y-23828D01*
X26568Y-23829D01*
X26552Y-23830D01*
X26545Y-23832D01*
X26545Y-23832D01*
X26543Y-23841D01*
X26539Y-23858D01*
X26534Y-23883D01*
X26528Y-23912D01*
X26527Y-23917D01*
X26522Y-23945D01*
X26517Y-23968D01*
X26514Y-23984D01*
X26512Y-23990D01*
X26510Y-23991D01*
X26498Y-23997D01*
X26479Y-24004D01*
X26456Y-24014D01*
X26402Y-24036D01*
X26336Y-23990D01*
X26330Y-23986D01*
X26306Y-23970D01*
X26286Y-23957D01*
X26272Y-23948D01*
X26267Y-23945D01*
X26266Y-23945D01*
X26260Y-23951D01*
X26247Y-23963D01*
X26229Y-23981D01*
X26208Y-24001D01*
X26192Y-24017D01*
X26174Y-24035D01*
X26163Y-24048D01*
X26156Y-24056D01*
X26154Y-24061D01*
X26155Y-24064D01*
X26159Y-24071D01*
X26169Y-24085D01*
X26182Y-24106D01*
X26198Y-24129D01*
X26212Y-24149D01*
X26226Y-24171D01*
X26235Y-24187D01*
X26239Y-24194D01*
X26238Y-24198D01*
X26233Y-24211D01*
X26225Y-24230D01*
X26215Y-24254D01*
X26192Y-24306D01*
X26158Y-24313D01*
X26137Y-24317D01*
X26108Y-24322D01*
X26080Y-24328D01*
X26036Y-24336D01*
X26035Y-24495D01*
X26042Y-24498D01*
X26048Y-24500D01*
X26064Y-24504D01*
X26087Y-24508D01*
X26114Y-24513D01*
X26138Y-24518D01*
X26161Y-24522D01*
X26178Y-24525D01*
X26185Y-24527D01*
X26187Y-24529D01*
X26193Y-24541D01*
X26201Y-24559D01*
X26210Y-24580D01*
X26220Y-24603D01*
X26228Y-24623D01*
X26234Y-24639D01*
X26236Y-24647D01*
X26233Y-24653D01*
X26224Y-24667D01*
X26211Y-24687D01*
X26195Y-24710D01*
X26179Y-24733D01*
X26166Y-24753D01*
X26156Y-24767D01*
X26153Y-24774D01*
X26155Y-24778D01*
X26164Y-24789D01*
X26181Y-24807D01*
X26207Y-24833D01*
X26212Y-24837D01*
X26232Y-24857D01*
X26250Y-24873D01*
X26262Y-24884D01*
X26267Y-24888D01*
X26267Y-24888D01*
G37*
G36*
X32545Y-24968D02*
X32560Y-24966D01*
X32573Y-24962D01*
X32579Y-24959D01*
X32592Y-24950D01*
X32602Y-24939D01*
X32609Y-24927D01*
X32614Y-24913D01*
X32617Y-24899D01*
X32616Y-24884D01*
X32613Y-24870D01*
X32606Y-24856D01*
X32602Y-24850D01*
X32596Y-24843D01*
X32589Y-24837D01*
X32583Y-24832D01*
X32581Y-24831D01*
X32568Y-24825D01*
X32555Y-24822D01*
X32540Y-24821D01*
X32535Y-24821D01*
X32527Y-24822D01*
X32520Y-24824D01*
X32512Y-24828D01*
X32503Y-24832D01*
X32491Y-24842D01*
X32482Y-24854D01*
X32474Y-24867D01*
X32472Y-24873D01*
X32470Y-24881D01*
X32469Y-24886D01*
X32469Y-24887D01*
X32469Y-24887D01*
X32469Y-24884D01*
X32469Y-24884D01*
X32466Y-24874D01*
X32463Y-24865D01*
X32458Y-24856D01*
X32450Y-24845D01*
X32439Y-24835D01*
X32426Y-24827D01*
X32411Y-24822D01*
X32396Y-24821D01*
X32392Y-24821D01*
X32380Y-24822D01*
X32369Y-24825D01*
X32367Y-24826D01*
X32354Y-24833D01*
X32343Y-24842D01*
X32334Y-24854D01*
X32327Y-24866D01*
X32323Y-24879D01*
X32323Y-24880D01*
X32322Y-24883D01*
X32322Y-24885D01*
X32322Y-24885D01*
X32322Y-24883D01*
X32321Y-24879D01*
X32321Y-24878D01*
X32316Y-24865D01*
X32309Y-24852D01*
X32300Y-24841D01*
X32291Y-24834D01*
X32278Y-24827D01*
X32264Y-24822D01*
X32248Y-24821D01*
X32237Y-24822D01*
X32223Y-24825D01*
X32209Y-24832D01*
X32197Y-24841D01*
X32188Y-24853D01*
X32186Y-24855D01*
X32183Y-24860D01*
X32181Y-24865D01*
X32180Y-24868D01*
X32177Y-24875D01*
X32176Y-24881D01*
X32175Y-24886D01*
X32175Y-24887D01*
X32175Y-24887D01*
X32174Y-24884D01*
X32173Y-24876D01*
X32169Y-24866D01*
X32165Y-24857D01*
X32156Y-24845D01*
X32144Y-24835D01*
X32131Y-24827D01*
X32117Y-24822D01*
X32102Y-24821D01*
X32088Y-24822D01*
X32073Y-24826D01*
X32060Y-24833D01*
X32048Y-24843D01*
X32042Y-24850D01*
X32037Y-24858D01*
X32032Y-24867D01*
X32030Y-24875D01*
X32027Y-24890D01*
X32028Y-24904D01*
X32031Y-24918D01*
X32037Y-24931D01*
X32045Y-24942D01*
X32055Y-24952D01*
X32067Y-24960D01*
X32080Y-24965D01*
X32095Y-24968D01*
X32097Y-24968D01*
X32112Y-24968D01*
X32126Y-24964D01*
X32139Y-24958D01*
X32144Y-24954D01*
X32154Y-24946D01*
X32163Y-24935D01*
X32169Y-24924D01*
X32170Y-24920D01*
X32172Y-24914D01*
X32174Y-24907D01*
X32175Y-24902D01*
X32175Y-24899D01*
X32175Y-24902D01*
X32175Y-24905D01*
X32177Y-24911D01*
X32179Y-24919D01*
X32181Y-24925D01*
X32185Y-24932D01*
X32194Y-24944D01*
X32205Y-24954D01*
X32218Y-24962D01*
X32233Y-24967D01*
X32235Y-24967D01*
X32245Y-24968D01*
X32256Y-24968D01*
X32266Y-24966D01*
X32276Y-24963D01*
X32289Y-24956D01*
X32302Y-24946D01*
X32302Y-24945D01*
X32311Y-24935D01*
X32317Y-24922D01*
X32321Y-24910D01*
X32321Y-24909D01*
X32322Y-24906D01*
X32322Y-24904D01*
X32322Y-24905D01*
X32323Y-24908D01*
X32323Y-24909D01*
X32325Y-24917D01*
X32328Y-24925D01*
X32333Y-24933D01*
X32339Y-24942D01*
X32350Y-24953D01*
X32363Y-24961D01*
X32378Y-24966D01*
X32380Y-24967D01*
X32390Y-24968D01*
X32401Y-24968D01*
X32411Y-24967D01*
X32419Y-24964D01*
X32433Y-24958D01*
X32445Y-24949D01*
X32455Y-24938D01*
X32463Y-24925D01*
X32464Y-24921D01*
X32467Y-24914D01*
X32468Y-24907D01*
X32469Y-24902D01*
X32469Y-24902D01*
X32469Y-24902D01*
X32470Y-24905D01*
X32470Y-24905D01*
X32472Y-24914D01*
X32476Y-24924D01*
X32480Y-24933D01*
X32482Y-24936D01*
X32491Y-24947D01*
X32503Y-24956D01*
X32516Y-24963D01*
X32530Y-24967D01*
X32545Y-24968D01*
X32545Y-24968D01*
G37*
G36*
X31949Y-24821D02*
X31958Y-24820D01*
X31966Y-24820D01*
X31976Y-24817D01*
X31990Y-24811D01*
X32002Y-24802D01*
X32012Y-24791D01*
X32020Y-24778D01*
X32025Y-24764D01*
X32027Y-24749D01*
X32026Y-24734D01*
X32022Y-24720D01*
X32016Y-24707D01*
X32006Y-24695D01*
X31994Y-24685D01*
X31991Y-24683D01*
X31976Y-24677D01*
X31962Y-24673D01*
X31946Y-24673D01*
X31931Y-24676D01*
X31919Y-24681D01*
X31906Y-24690D01*
X31896Y-24701D01*
X31887Y-24714D01*
X31882Y-24729D01*
X31880Y-24736D01*
X31880Y-24746D01*
X31880Y-24755D01*
X31881Y-24763D01*
X31882Y-24766D01*
X31888Y-24781D01*
X31896Y-24794D01*
X31908Y-24805D01*
X31921Y-24813D01*
X31927Y-24816D01*
X31936Y-24819D01*
X31944Y-24820D01*
X31949Y-24821D01*
X31949Y-24821D01*
G37*
G36*
X32692Y-24821D02*
X32707Y-24819D01*
X32722Y-24814D01*
X32736Y-24805D01*
X32739Y-24803D01*
X32749Y-24792D01*
X32757Y-24779D01*
X32762Y-24765D01*
X32764Y-24757D01*
X32764Y-24748D01*
X32764Y-24738D01*
X32763Y-24731D01*
X32762Y-24727D01*
X32756Y-24712D01*
X32748Y-24700D01*
X32737Y-24689D01*
X32724Y-24681D01*
X32710Y-24676D01*
X32695Y-24673D01*
X32689Y-24673D01*
X32674Y-24675D01*
X32660Y-24679D01*
X32648Y-24687D01*
X32637Y-24696D01*
X32628Y-24708D01*
X32622Y-24721D01*
X32618Y-24735D01*
X32617Y-24750D01*
X32618Y-24759D01*
X32620Y-24767D01*
X32623Y-24776D01*
X32629Y-24787D01*
X32638Y-24799D01*
X32650Y-24808D01*
X32663Y-24815D01*
X32677Y-24819D01*
X32692Y-24821D01*
X32692Y-24821D01*
G37*
G36*
X31802Y-24673D02*
X31812Y-24673D01*
X31821Y-24671D01*
X31832Y-24668D01*
X31845Y-24661D01*
X31858Y-24651D01*
X31866Y-24642D01*
X31873Y-24629D01*
X31878Y-24615D01*
X31879Y-24609D01*
X31879Y-24600D01*
X31879Y-24591D01*
X31878Y-24584D01*
X31877Y-24579D01*
X31871Y-24565D01*
X31863Y-24552D01*
X31852Y-24541D01*
X31838Y-24533D01*
X31833Y-24531D01*
X31824Y-24527D01*
X31814Y-24526D01*
X31803Y-24526D01*
X31796Y-24526D01*
X31788Y-24527D01*
X31781Y-24529D01*
X31773Y-24533D01*
X31768Y-24536D01*
X31756Y-24545D01*
X31746Y-24556D01*
X31738Y-24570D01*
X31733Y-24585D01*
X31733Y-24588D01*
X31732Y-24597D01*
X31732Y-24606D01*
X31733Y-24614D01*
X31734Y-24619D01*
X31740Y-24633D01*
X31749Y-24646D01*
X31759Y-24657D01*
X31773Y-24665D01*
X31787Y-24671D01*
X31792Y-24672D01*
X31802Y-24673D01*
X31802Y-24673D01*
G37*
G36*
X32394Y-24673D02*
X32408Y-24672D01*
X32422Y-24668D01*
X32431Y-24664D01*
X32443Y-24655D01*
X32454Y-24644D01*
X32462Y-24631D01*
X32467Y-24617D01*
X32468Y-24614D01*
X32469Y-24602D01*
X32469Y-24591D01*
X32466Y-24578D01*
X32460Y-24563D01*
X32451Y-24551D01*
X32440Y-24541D01*
X32427Y-24533D01*
X32412Y-24527D01*
X32403Y-24525D01*
X32408Y-24524D01*
X32409Y-24524D01*
X32419Y-24521D01*
X32430Y-24516D01*
X32441Y-24510D01*
X32442Y-24508D01*
X32453Y-24498D01*
X32461Y-24485D01*
X32466Y-24471D01*
X32469Y-24457D01*
X32469Y-24443D01*
X32465Y-24429D01*
X32459Y-24415D01*
X32459Y-24414D01*
X32449Y-24402D01*
X32438Y-24392D01*
X32426Y-24385D01*
X32412Y-24381D01*
X32398Y-24379D01*
X32384Y-24380D01*
X32370Y-24383D01*
X32357Y-24390D01*
X32344Y-24399D01*
X32338Y-24406D01*
X32331Y-24417D01*
X32325Y-24428D01*
X32323Y-24439D01*
X32322Y-24442D01*
X32322Y-24443D01*
X32322Y-24442D01*
X32321Y-24439D01*
X32319Y-24429D01*
X32314Y-24419D01*
X32308Y-24409D01*
X32304Y-24404D01*
X32293Y-24394D01*
X32280Y-24386D01*
X32266Y-24381D01*
X32251Y-24379D01*
X32236Y-24380D01*
X32227Y-24382D01*
X32213Y-24388D01*
X32201Y-24396D01*
X32190Y-24407D01*
X32182Y-24420D01*
X32177Y-24435D01*
X32176Y-24442D01*
X32175Y-24457D01*
X32178Y-24471D01*
X32183Y-24485D01*
X32191Y-24498D01*
X32202Y-24508D01*
X32215Y-24517D01*
X32221Y-24520D01*
X32228Y-24522D01*
X32234Y-24524D01*
X32239Y-24525D01*
X32239Y-24525D01*
X32239Y-24525D01*
X32236Y-24526D01*
X32229Y-24528D01*
X32219Y-24532D01*
X32210Y-24536D01*
X32206Y-24539D01*
X32196Y-24548D01*
X32187Y-24558D01*
X32181Y-24569D01*
X32177Y-24582D01*
X32175Y-24595D01*
X32175Y-24608D01*
X32176Y-24610D01*
X32180Y-24626D01*
X32187Y-24639D01*
X32197Y-24651D01*
X32205Y-24659D01*
X32218Y-24667D01*
X32233Y-24671D01*
X32238Y-24672D01*
X32246Y-24673D01*
X32255Y-24672D01*
X32263Y-24672D01*
X32269Y-24670D01*
X32274Y-24669D01*
X32288Y-24662D01*
X32300Y-24652D01*
X32310Y-24640D01*
X32314Y-24634D01*
X32318Y-24624D01*
X32321Y-24614D01*
X32321Y-24614D01*
X32322Y-24610D01*
X32322Y-24609D01*
X32322Y-24609D01*
X32322Y-24589D01*
X32322Y-24589D01*
X32322Y-24588D01*
X32321Y-24584D01*
X32321Y-24583D01*
X32316Y-24570D01*
X32309Y-24557D01*
X32300Y-24546D01*
X32289Y-24537D01*
X32276Y-24531D01*
X32275Y-24530D01*
X32269Y-24528D01*
X32263Y-24527D01*
X32256Y-24525D01*
X32262Y-24524D01*
X32271Y-24522D01*
X32284Y-24516D01*
X32296Y-24508D01*
X32307Y-24497D01*
X32315Y-24485D01*
X32317Y-24479D01*
X32320Y-24471D01*
X32321Y-24465D01*
X32322Y-24462D01*
X32322Y-24461D01*
X32322Y-24462D01*
X32323Y-24465D01*
X32324Y-24470D01*
X32326Y-24478D01*
X32329Y-24485D01*
X32334Y-24493D01*
X32344Y-24504D01*
X32355Y-24513D01*
X32368Y-24520D01*
X32382Y-24524D01*
X32388Y-24525D01*
X32382Y-24527D01*
X32381Y-24527D01*
X32374Y-24528D01*
X32368Y-24531D01*
X32367Y-24531D01*
X32354Y-24538D01*
X32343Y-24547D01*
X32334Y-24558D01*
X32327Y-24571D01*
X32323Y-24584D01*
X32323Y-24584D01*
X32322Y-24588D01*
X32322Y-24589D01*
X32322Y-24609D01*
X32322Y-24609D01*
X32322Y-24611D01*
X32323Y-24614D01*
X32326Y-24624D01*
X32332Y-24637D01*
X32341Y-24649D01*
X32352Y-24659D01*
X32365Y-24666D01*
X32365Y-24666D01*
X32379Y-24671D01*
X32394Y-24673D01*
X32394Y-24673D01*
G37*
G36*
X32833Y-24673D02*
X32845Y-24673D01*
X32856Y-24671D01*
X32863Y-24669D01*
X32877Y-24662D01*
X32889Y-24653D01*
X32899Y-24642D01*
X32906Y-24629D01*
X32910Y-24615D01*
X32912Y-24599D01*
X32912Y-24593D01*
X32909Y-24578D01*
X32903Y-24564D01*
X32894Y-24550D01*
X32891Y-24548D01*
X32881Y-24539D01*
X32869Y-24532D01*
X32856Y-24527D01*
X32855Y-24527D01*
X32844Y-24526D01*
X32832Y-24526D01*
X32821Y-24527D01*
X32817Y-24528D01*
X32803Y-24534D01*
X32791Y-24543D01*
X32781Y-24553D01*
X32773Y-24565D01*
X32767Y-24578D01*
X32765Y-24593D01*
X32765Y-24608D01*
X32768Y-24623D01*
X32773Y-24634D01*
X32782Y-24646D01*
X32793Y-24657D01*
X32805Y-24665D01*
X32820Y-24671D01*
X32821Y-24671D01*
X32833Y-24673D01*
X32833Y-24673D01*
G37*
G36*
X32103Y-24231D02*
X32118Y-24229D01*
X32132Y-24224D01*
X32139Y-24221D01*
X32145Y-24216D01*
X32152Y-24210D01*
X32160Y-24202D01*
X32168Y-24189D01*
X32173Y-24175D01*
X32174Y-24171D01*
X32175Y-24161D01*
X32175Y-24151D01*
X32173Y-24142D01*
X32169Y-24129D01*
X32163Y-24116D01*
X32154Y-24105D01*
X32152Y-24104D01*
X32145Y-24098D01*
X32137Y-24093D01*
X32130Y-24089D01*
X32127Y-24088D01*
X32121Y-24086D01*
X32115Y-24085D01*
X32111Y-24084D01*
X32108Y-24084D01*
X32111Y-24083D01*
X32115Y-24082D01*
X32119Y-24081D01*
X32125Y-24080D01*
X32136Y-24074D01*
X32147Y-24068D01*
X32155Y-24060D01*
X32157Y-24058D01*
X32166Y-24045D01*
X32172Y-24031D01*
X32175Y-24017D01*
X32175Y-24002D01*
X32174Y-23998D01*
X32170Y-23983D01*
X32163Y-23970D01*
X32153Y-23957D01*
X32144Y-23950D01*
X32131Y-23942D01*
X32117Y-23937D01*
X32114Y-23937D01*
X32104Y-23936D01*
X32094Y-23936D01*
X32084Y-23938D01*
X32076Y-23940D01*
X32062Y-23947D01*
X32050Y-23956D01*
X32041Y-23967D01*
X32033Y-23980D01*
X32029Y-23994D01*
X32028Y-23996D01*
X32027Y-23999D01*
X32027Y-24001D01*
X32026Y-23999D01*
X32026Y-23996D01*
X32025Y-23990D01*
X32022Y-23983D01*
X32020Y-23977D01*
X32017Y-23973D01*
X32008Y-23960D01*
X31997Y-23950D01*
X31984Y-23942D01*
X31970Y-23938D01*
X31954Y-23936D01*
X31942Y-23937D01*
X31928Y-23940D01*
X31915Y-23947D01*
X31907Y-23952D01*
X31896Y-23963D01*
X31888Y-23975D01*
X31882Y-23989D01*
X31880Y-24003D01*
X31880Y-24018D01*
X31883Y-24032D01*
X31889Y-24046D01*
X31898Y-24058D01*
X31909Y-24069D01*
X31923Y-24077D01*
X31938Y-24082D01*
X31946Y-24084D01*
X31941Y-24084D01*
X31938Y-24085D01*
X31926Y-24088D01*
X31915Y-24094D01*
X31904Y-24102D01*
X31895Y-24111D01*
X31890Y-24119D01*
X31885Y-24129D01*
X31882Y-24139D01*
X31880Y-24147D01*
X31880Y-24156D01*
X31880Y-24166D01*
X31881Y-24173D01*
X31884Y-24182D01*
X31891Y-24196D01*
X31900Y-24208D01*
X31912Y-24218D01*
X31925Y-24226D01*
X31941Y-24230D01*
X31945Y-24231D01*
X31954Y-24231D01*
X31963Y-24230D01*
X31972Y-24229D01*
X31978Y-24227D01*
X31992Y-24220D01*
X32004Y-24211D01*
X32014Y-24200D01*
X32021Y-24187D01*
X32026Y-24172D01*
X32026Y-24171D01*
X32027Y-24167D01*
X32027Y-24168D01*
X32027Y-24147D01*
X32027Y-24147D01*
X32026Y-24144D01*
X32026Y-24143D01*
X32023Y-24133D01*
X32019Y-24123D01*
X32013Y-24113D01*
X32008Y-24108D01*
X31997Y-24097D01*
X31983Y-24090D01*
X31968Y-24085D01*
X31961Y-24083D01*
X31966Y-24082D01*
X31971Y-24081D01*
X31975Y-24080D01*
X31978Y-24079D01*
X31992Y-24073D01*
X32004Y-24063D01*
X32014Y-24052D01*
X32021Y-24039D01*
X32026Y-24025D01*
X32026Y-24022D01*
X32027Y-24020D01*
X32028Y-24021D01*
X32029Y-24025D01*
X32029Y-24026D01*
X32031Y-24034D01*
X32035Y-24042D01*
X32039Y-24050D01*
X32043Y-24055D01*
X32050Y-24062D01*
X32057Y-24069D01*
X32064Y-24074D01*
X32065Y-24074D01*
X32076Y-24079D01*
X32088Y-24082D01*
X32093Y-24083D01*
X32087Y-24085D01*
X32074Y-24088D01*
X32061Y-24095D01*
X32049Y-24104D01*
X32040Y-24115D01*
X32038Y-24119D01*
X32034Y-24126D01*
X32031Y-24134D01*
X32029Y-24141D01*
X32028Y-24146D01*
X32028Y-24146D01*
X32027Y-24147D01*
X32027Y-24168D01*
X32028Y-24168D01*
X32028Y-24171D01*
X32029Y-24175D01*
X32031Y-24180D01*
X32034Y-24187D01*
X32041Y-24200D01*
X32051Y-24211D01*
X32062Y-24220D01*
X32075Y-24226D01*
X32089Y-24230D01*
X32103Y-24231D01*
X32103Y-24231D01*
G37*
G36*
X32547Y-24231D02*
X32561Y-24229D01*
X32575Y-24224D01*
X32588Y-24216D01*
X32598Y-24206D01*
X32607Y-24194D01*
X32613Y-24180D01*
X32615Y-24175D01*
X32616Y-24171D01*
X32616Y-24170D01*
X32617Y-24167D01*
X32617Y-24167D01*
X32617Y-24147D01*
X32616Y-24145D01*
X32615Y-24140D01*
X32612Y-24131D01*
X32606Y-24118D01*
X32597Y-24106D01*
X32585Y-24097D01*
X32572Y-24089D01*
X32558Y-24085D01*
X32551Y-24083D01*
X32556Y-24082D01*
X32556Y-24082D01*
X32568Y-24079D01*
X32580Y-24074D01*
X32584Y-24071D01*
X32592Y-24064D01*
X32599Y-24057D01*
X32605Y-24050D01*
X32608Y-24044D01*
X32613Y-24034D01*
X32615Y-24026D01*
X32616Y-24022D01*
X32617Y-24020D01*
X32617Y-24021D01*
X32618Y-24025D01*
X32621Y-24035D01*
X32628Y-24049D01*
X32638Y-24061D01*
X32649Y-24070D01*
X32662Y-24078D01*
X32678Y-24082D01*
X32683Y-24083D01*
X32676Y-24085D01*
X32669Y-24087D01*
X32655Y-24093D01*
X32642Y-24102D01*
X32632Y-24113D01*
X32628Y-24117D01*
X32625Y-24124D01*
X32621Y-24132D01*
X32619Y-24137D01*
X32618Y-24143D01*
X32618Y-24143D01*
X32617Y-24146D01*
X32617Y-24147D01*
X32617Y-24167D01*
X32617Y-24168D01*
X32618Y-24172D01*
X32619Y-24177D01*
X32624Y-24188D01*
X32629Y-24198D01*
X32634Y-24204D01*
X32645Y-24215D01*
X32658Y-24223D01*
X32673Y-24229D01*
X32679Y-24230D01*
X32689Y-24231D01*
X32700Y-24230D01*
X32709Y-24229D01*
X32710Y-24229D01*
X32725Y-24223D01*
X32738Y-24214D01*
X32748Y-24203D01*
X32757Y-24190D01*
X32762Y-24175D01*
X32764Y-24169D01*
X32764Y-24158D01*
X32764Y-24148D01*
X32762Y-24139D01*
X32760Y-24131D01*
X32755Y-24121D01*
X32749Y-24111D01*
X32742Y-24104D01*
X32733Y-24097D01*
X32723Y-24091D01*
X32720Y-24089D01*
X32713Y-24087D01*
X32706Y-24085D01*
X32701Y-24084D01*
X32700Y-24084D01*
X32702Y-24083D01*
X32706Y-24082D01*
X32715Y-24079D01*
X32724Y-24075D01*
X32732Y-24071D01*
X32734Y-24069D01*
X32744Y-24061D01*
X32752Y-24050D01*
X32758Y-24039D01*
X32761Y-24034D01*
X32764Y-24019D01*
X32764Y-24004D01*
X32762Y-23989D01*
X32761Y-23986D01*
X32754Y-23972D01*
X32745Y-23960D01*
X32734Y-23950D01*
X32721Y-23942D01*
X32706Y-23937D01*
X32704Y-23937D01*
X32694Y-23936D01*
X32683Y-23936D01*
X32674Y-23938D01*
X32671Y-23938D01*
X32657Y-23944D01*
X32644Y-23952D01*
X32633Y-23964D01*
X32624Y-23977D01*
X32622Y-23981D01*
X32620Y-23988D01*
X32618Y-23994D01*
X32618Y-23999D01*
X32618Y-24000D01*
X32617Y-24000D01*
X32616Y-23998D01*
X32615Y-23994D01*
X32613Y-23984D01*
X32606Y-23971D01*
X32597Y-23960D01*
X32586Y-23950D01*
X32573Y-23942D01*
X32573Y-23942D01*
X32560Y-23938D01*
X32545Y-23936D01*
X32530Y-23937D01*
X32516Y-23941D01*
X32508Y-23945D01*
X32495Y-23953D01*
X32485Y-23964D01*
X32477Y-23977D01*
X32471Y-23992D01*
X32471Y-23995D01*
X32469Y-24007D01*
X32470Y-24018D01*
X32473Y-24032D01*
X32479Y-24046D01*
X32488Y-24058D01*
X32499Y-24069D01*
X32512Y-24077D01*
X32527Y-24082D01*
X32530Y-24083D01*
X32533Y-24084D01*
X32533Y-24084D01*
X32529Y-24084D01*
X32520Y-24087D01*
X32511Y-24091D01*
X32502Y-24096D01*
X32494Y-24102D01*
X32484Y-24113D01*
X32476Y-24127D01*
X32475Y-24129D01*
X32470Y-24143D01*
X32469Y-24158D01*
X32471Y-24174D01*
X32476Y-24188D01*
X32479Y-24195D01*
X32484Y-24201D01*
X32490Y-24208D01*
X32490Y-24209D01*
X32502Y-24219D01*
X32516Y-24226D01*
X32530Y-24230D01*
X32532Y-24230D01*
X32547Y-24231D01*
X32547Y-24231D01*
G37*
G54D11*
X30125Y-22211D02*
X30680Y-22441D01*
X30680Y-22441D02*
X30794Y-22164D01*
X30794Y-22164D02*
X30240Y-21934D01*
X30240Y-21934D02*
X30125Y-22211D01*
X31523Y-23270D02*
X31753Y-23824D01*
X31753Y-23824D02*
X32030Y-23709D01*
X32030Y-23709D02*
X31800Y-23155D01*
X31800Y-23155D02*
X31523Y-23270D01*
X31717Y-24999D02*
X31487Y-25554D01*
X31487Y-25554D02*
X31764Y-25668D01*
X31764Y-25668D02*
X31994Y-25114D01*
X31994Y-25114D02*
X31717Y-24999D01*
X30670Y-26382D02*
X30116Y-26611D01*
X30116Y-26611D02*
X30230Y-26888D01*
X30230Y-26888D02*
X30785Y-26659D01*
X30785Y-26659D02*
X30670Y-26382D01*
X28941Y-26626D02*
X28386Y-26397D01*
X28386Y-26397D02*
X28271Y-26674D01*
X28271Y-26674D02*
X28826Y-26903D01*
X28826Y-26903D02*
X28941Y-26626D01*
X27547Y-25560D02*
X27317Y-25005D01*
X27317Y-25005D02*
X27040Y-25120D01*
X27040Y-25120D02*
X27269Y-25675D01*
X27269Y-25675D02*
X27547Y-25560D01*
X27322Y-23830D02*
X27551Y-23276D01*
X27551Y-23276D02*
X27274Y-23161D01*
X27274Y-23161D02*
X27044Y-23716D01*
X27044Y-23716D02*
X27322Y-23830D01*
X28364Y-22432D02*
X28919Y-22203D01*
X28919Y-22203D02*
X28804Y-21926D01*
X28804Y-21926D02*
X28250Y-22155D01*
X28250Y-22155D02*
X28364Y-22432D01*
%LPC*%
G54D13*
X31173Y-24015D03*
X31173Y-24763D03*
G54D14*
X28425Y-24716D03*
X28031Y-24716D03*
X28228Y-24125D03*
G54D15*
X28937Y-24803D03*
G54D16*
X28937Y-24606D03*
X28937Y-24409D03*
X28937Y-24212D03*
X28937Y-24015D03*
X30118Y-24015D03*
X30118Y-24212D03*
X30118Y-24409D03*
X30118Y-24606D03*
X30118Y-24803D03*
G54D17*
X28543Y-25393D03*
X28543Y-23425D03*
X30511Y-23425D03*
X30511Y-25393D03*
G54D10*
G36*
X30647Y-22095D02*
X30938Y-22216D01*
X30817Y-22506D01*
X30527Y-22386D01*
X30647Y-22095D01*
X30647Y-22095D01*
G37*
G36*
X30102Y-21870D02*
X30392Y-21990D01*
X30272Y-22280D01*
X29982Y-22160D01*
X30102Y-21870D01*
X30102Y-21870D01*
G37*
G36*
X31975Y-23557D02*
X32095Y-23847D01*
X31805Y-23967D01*
X31684Y-23677D01*
X31975Y-23557D01*
X31975Y-23557D01*
G37*
G36*
X31749Y-23012D02*
X31869Y-23302D01*
X31579Y-23422D01*
X31459Y-23132D01*
X31749Y-23012D01*
X31749Y-23012D01*
G37*
G36*
X31833Y-25522D02*
X31713Y-25812D01*
X31422Y-25691D01*
X31543Y-25401D01*
X31833Y-25522D01*
X31833Y-25522D01*
G37*
G36*
X32059Y-24976D02*
X31938Y-25267D01*
X31648Y-25146D01*
X31768Y-24856D01*
X32059Y-24976D01*
X32059Y-24976D01*
G37*
G36*
X30383Y-26833D02*
X30093Y-26953D01*
X29973Y-26663D01*
X30263Y-26543D01*
X30383Y-26833D01*
X30383Y-26833D01*
G37*
G36*
X30928Y-26607D02*
X30638Y-26727D01*
X30518Y-26437D01*
X30808Y-26317D01*
X30928Y-26607D01*
X30928Y-26607D01*
G37*
G36*
X28418Y-26742D02*
X28128Y-26622D01*
X28249Y-26332D01*
X28539Y-26452D01*
X28418Y-26742D01*
X28418Y-26742D01*
G37*
G36*
X28964Y-26968D02*
X28673Y-26848D01*
X28794Y-26558D01*
X29084Y-26678D01*
X28964Y-26968D01*
X28964Y-26968D01*
G37*
G36*
X27095Y-25273D02*
X26975Y-24982D01*
X27265Y-24862D01*
X27385Y-25152D01*
X27095Y-25273D01*
X27095Y-25273D01*
G37*
G36*
X27321Y-25818D02*
X27201Y-25528D01*
X27491Y-25407D01*
X27611Y-25697D01*
X27321Y-25818D01*
X27321Y-25818D01*
G37*
G36*
X27206Y-23308D02*
X27326Y-23018D01*
X27616Y-23138D01*
X27496Y-23428D01*
X27206Y-23308D01*
X27206Y-23308D01*
G37*
G36*
X26980Y-23853D02*
X27100Y-23563D01*
X27390Y-23683D01*
X27270Y-23973D01*
X26980Y-23853D01*
X26980Y-23853D01*
G37*
G36*
X28652Y-21981D02*
X28942Y-21861D01*
X29062Y-22151D01*
X28772Y-22271D01*
X28652Y-21981D01*
X28652Y-21981D01*
G37*
G36*
X28107Y-22207D02*
X28397Y-22087D01*
X28517Y-22377D01*
X28227Y-22497D01*
X28107Y-22207D01*
X28107Y-22207D01*
G37*
G36*
X27834Y-24527D02*
X27677Y-24527D01*
X27677Y-24291D01*
X27834Y-24291D01*
X27834Y-24527D01*
X27834Y-24527D01*
G37*
G54D18*
X27834Y-24527D02*
X27677Y-24527D01*
X27677Y-24291D01*
X27834Y-24291D01*
X27834Y-24527D01*
M02*
