G04 #@! TF.FileFunction,Copper,L1,Top,Signal*
%FSLAX46Y46*%
G04 Gerber Fmt 4.6, Leading zero omitted, Abs format (unit mm)*
G04 Created by KiCad (PCBNEW (2016-04-14 BZR 6691, Git 829fa97)-product) date Fri 15 Apr 2016 10:51:36 AM CEST*
%MOMM*%
%LPD*%
G01*
G04 APERTURE LIST*
%ADD10C,0.150000*%
%ADD11C,2.000000*%
%ADD12C,0.850000*%
%ADD13R,0.400000X0.600000*%
%ADD14R,0.600000X0.400000*%
%ADD15C,0.762000*%
%ADD16C,0.203200*%
G04 APERTURE END LIST*
D10*
G36*
X77341581Y-55634673D02*
X77895909Y-55864283D01*
X77742835Y-56233835D01*
X77188507Y-56004225D01*
X77341581Y-55634673D01*
X77341581Y-55634673D01*
G37*
G36*
X76997165Y-56466165D02*
X77551493Y-56695775D01*
X77398419Y-57065327D01*
X76844091Y-56835717D01*
X76997165Y-56466165D01*
X76997165Y-56466165D01*
G37*
G36*
X81205717Y-59134091D02*
X81435327Y-59688419D01*
X81065775Y-59841493D01*
X80836165Y-59287165D01*
X81205717Y-59134091D01*
X81205717Y-59134091D01*
G37*
G36*
X80374225Y-59478507D02*
X80603835Y-60032835D01*
X80234283Y-60185909D01*
X80004673Y-59631581D01*
X80374225Y-59478507D01*
X80374225Y-59478507D01*
G37*
G36*
X81345327Y-64321581D02*
X81115717Y-64875909D01*
X80746165Y-64722835D01*
X80975775Y-64168507D01*
X81345327Y-64321581D01*
X81345327Y-64321581D01*
G37*
G36*
X80513835Y-63977165D02*
X80284225Y-64531493D01*
X79914673Y-64378419D01*
X80144283Y-63824091D01*
X80513835Y-63977165D01*
X80513835Y-63977165D01*
G37*
G36*
X77875909Y-68145717D02*
X77321581Y-68375327D01*
X77168507Y-68005775D01*
X77722835Y-67776165D01*
X77875909Y-68145717D01*
X77875909Y-68145717D01*
G37*
G36*
X77531493Y-67314225D02*
X76977165Y-67543835D01*
X76824091Y-67174283D01*
X77378419Y-66944673D01*
X77531493Y-67314225D01*
X77531493Y-67314225D01*
G37*
G36*
X72688419Y-68415327D02*
X72134091Y-68185717D01*
X72287165Y-67816165D01*
X72841493Y-68045775D01*
X72688419Y-68415327D01*
X72688419Y-68415327D01*
G37*
G36*
X73032835Y-67583835D02*
X72478507Y-67354225D01*
X72631581Y-66984673D01*
X73185909Y-67214283D01*
X73032835Y-67583835D01*
X73032835Y-67583835D01*
G37*
G36*
X68834283Y-64895909D02*
X68604673Y-64341581D01*
X68974225Y-64188507D01*
X69203835Y-64742835D01*
X68834283Y-64895909D01*
X68834283Y-64895909D01*
G37*
G36*
X69665775Y-64551493D02*
X69436165Y-63997165D01*
X69805717Y-63844091D01*
X70035327Y-64398419D01*
X69665775Y-64551493D01*
X69665775Y-64551493D01*
G37*
G36*
X68614673Y-59708419D02*
X68844283Y-59154091D01*
X69213835Y-59307165D01*
X68984225Y-59861493D01*
X68614673Y-59708419D01*
X68614673Y-59708419D01*
G37*
G36*
X69446165Y-60052835D02*
X69675775Y-59498507D01*
X70045327Y-59651581D01*
X69815717Y-60205909D01*
X69446165Y-60052835D01*
X69446165Y-60052835D01*
G37*
G36*
X72074091Y-55844283D02*
X72628419Y-55614673D01*
X72781493Y-55984225D01*
X72227165Y-56213835D01*
X72074091Y-55844283D01*
X72074091Y-55844283D01*
G37*
G36*
X72418507Y-56675775D02*
X72972835Y-56446165D01*
X73125909Y-56815717D01*
X72571581Y-57045327D01*
X72418507Y-56675775D01*
X72418507Y-56675775D01*
G37*
D11*
X77500000Y-64500000D03*
X77500000Y-59500000D03*
X72500000Y-59500000D03*
X72500000Y-64500000D03*
D12*
X73730000Y-62635000D03*
X73730000Y-61365000D03*
X75000000Y-62635000D03*
X75000000Y-61365000D03*
X76270000Y-62635000D03*
D10*
G36*
X76579997Y-60940614D02*
X76592374Y-60942450D01*
X76604511Y-60945490D01*
X76616292Y-60949705D01*
X76627603Y-60955055D01*
X76638335Y-60961488D01*
X76648385Y-60968941D01*
X76657656Y-60977344D01*
X76666059Y-60986615D01*
X76673512Y-60996665D01*
X76679945Y-61007397D01*
X76685295Y-61018708D01*
X76689510Y-61030489D01*
X76692550Y-61042626D01*
X76694386Y-61055003D01*
X76695000Y-61067500D01*
X76695000Y-61662500D01*
X76694386Y-61674997D01*
X76692550Y-61687374D01*
X76689510Y-61699511D01*
X76685295Y-61711292D01*
X76679945Y-61722603D01*
X76673512Y-61733335D01*
X76666059Y-61743385D01*
X76657656Y-61752656D01*
X76648385Y-61761059D01*
X76638335Y-61768512D01*
X76627603Y-61774945D01*
X76616292Y-61780295D01*
X76604511Y-61784510D01*
X76592374Y-61787550D01*
X76579997Y-61789386D01*
X76567500Y-61790000D01*
X75972500Y-61790000D01*
X75960003Y-61789386D01*
X75947626Y-61787550D01*
X75935489Y-61784510D01*
X75923708Y-61780295D01*
X75912397Y-61774945D01*
X75901665Y-61768512D01*
X75891615Y-61761059D01*
X75882344Y-61752656D01*
X75873941Y-61743385D01*
X75866488Y-61733335D01*
X75860055Y-61722603D01*
X75854705Y-61711292D01*
X75850490Y-61699511D01*
X75847450Y-61687374D01*
X75845614Y-61674997D01*
X75845000Y-61662500D01*
X75845000Y-61067500D01*
X75845614Y-61055003D01*
X75847450Y-61042626D01*
X75850490Y-61030489D01*
X75854705Y-61018708D01*
X75860055Y-61007397D01*
X75866488Y-60996665D01*
X75873941Y-60986615D01*
X75882344Y-60977344D01*
X75891615Y-60968941D01*
X75901665Y-60961488D01*
X75912397Y-60955055D01*
X75923708Y-60949705D01*
X75935489Y-60945490D01*
X75947626Y-60942450D01*
X75960003Y-60940614D01*
X75972500Y-60940000D01*
X76567500Y-60940000D01*
X76579997Y-60940614D01*
X76579997Y-60940614D01*
G37*
G36*
X71321751Y-57897487D02*
X70897487Y-58321751D01*
X70614645Y-58038909D01*
X71038909Y-57614645D01*
X71321751Y-57897487D01*
X71321751Y-57897487D01*
G37*
G36*
X70685355Y-57261091D02*
X70261091Y-57685355D01*
X69978249Y-57402513D01*
X70402513Y-56978249D01*
X70685355Y-57261091D01*
X70685355Y-57261091D01*
G37*
D13*
X69300000Y-62000000D03*
X68400000Y-62000000D03*
D10*
G36*
X70897487Y-65678249D02*
X71321751Y-66102513D01*
X71038909Y-66385355D01*
X70614645Y-65961091D01*
X70897487Y-65678249D01*
X70897487Y-65678249D01*
G37*
G36*
X70261091Y-66314645D02*
X70685355Y-66738909D01*
X70402513Y-67021751D01*
X69978249Y-66597487D01*
X70261091Y-66314645D01*
X70261091Y-66314645D01*
G37*
D14*
X75000000Y-67700000D03*
X75000000Y-68600000D03*
D10*
G36*
X78678249Y-66102513D02*
X79102513Y-65678249D01*
X79385355Y-65961091D01*
X78961091Y-66385355D01*
X78678249Y-66102513D01*
X78678249Y-66102513D01*
G37*
G36*
X79314645Y-66738909D02*
X79738909Y-66314645D01*
X80021751Y-66597487D01*
X79597487Y-67021751D01*
X79314645Y-66738909D01*
X79314645Y-66738909D01*
G37*
D13*
X80700000Y-62000000D03*
X81600000Y-62000000D03*
D10*
G36*
X79102513Y-58321751D02*
X78678249Y-57897487D01*
X78961091Y-57614645D01*
X79385355Y-58038909D01*
X79102513Y-58321751D01*
X79102513Y-58321751D01*
G37*
G36*
X79738909Y-57685355D02*
X79314645Y-57261091D01*
X79597487Y-56978249D01*
X80021751Y-57402513D01*
X79738909Y-57685355D01*
X79738909Y-57685355D01*
G37*
D14*
X75000000Y-56300000D03*
X75000000Y-55400000D03*
D15*
X78600000Y-56800000D03*
X76050000Y-56678388D03*
X69550000Y-63100000D03*
X73950000Y-56100000D03*
X69950000Y-58500000D03*
X77914069Y-61921766D03*
X79729395Y-58558005D03*
X81285810Y-60799998D03*
X77950000Y-57800000D03*
X80600000Y-62950000D03*
X80000000Y-65450000D03*
X76000000Y-58350000D03*
X74950000Y-66650000D03*
X71700000Y-67100000D03*
X69900000Y-65750000D03*
X74100000Y-60200000D03*
D16*
X73730000Y-62635000D02*
X73730000Y-63270000D01*
X73730000Y-63270000D02*
X72500000Y-64500000D01*
X76270000Y-62635000D02*
X77015000Y-62635000D01*
X77015000Y-62635000D02*
X77150000Y-62500000D01*
X77150000Y-62500000D02*
X77150000Y-59850000D01*
X77150000Y-59850000D02*
X77500000Y-59500000D01*
X80435802Y-58099406D02*
X79951040Y-57614644D01*
X77914069Y-61291117D02*
X80031489Y-59173697D01*
X80435802Y-58929188D02*
X80435802Y-58099406D01*
X77914069Y-61921766D02*
X77914069Y-61291117D01*
X80191293Y-59173697D02*
X80435802Y-58929188D01*
X80031489Y-59173697D02*
X80191293Y-59173697D01*
X79951040Y-57614644D02*
X79668198Y-57331802D01*
X79136396Y-56800000D02*
X78600000Y-56800000D01*
X79668198Y-57331802D02*
X79136396Y-56800000D01*
X75671612Y-56300000D02*
X76050000Y-56678388D01*
X75000000Y-56300000D02*
X75671612Y-56300000D01*
X69550000Y-63100000D02*
X69550000Y-62250000D01*
X69550000Y-62250000D02*
X69300000Y-62000000D01*
X73950000Y-56100000D02*
X74800000Y-56100000D01*
X74800000Y-56100000D02*
X75000000Y-56300000D01*
X70331802Y-57331802D02*
X69950000Y-57713604D01*
X69950000Y-57713604D02*
X69950000Y-58500000D01*
X75000000Y-55400000D02*
X75900000Y-55400000D01*
X75900000Y-55400000D02*
X76434254Y-55934254D01*
X76434254Y-55934254D02*
X77542208Y-55934254D01*
X79031802Y-57968198D02*
X79621609Y-58558005D01*
X79621609Y-58558005D02*
X79729395Y-58558005D01*
X81135746Y-59487792D02*
X81135746Y-60649934D01*
X81135746Y-60649934D02*
X81285810Y-60799998D01*
X80304254Y-59832208D02*
X80600000Y-60127954D01*
X80600000Y-60127954D02*
X80600000Y-61900000D01*
X80600000Y-61900000D02*
X80700000Y-62000000D01*
X77197792Y-56765746D02*
X77197792Y-57047792D01*
X77197792Y-57047792D02*
X77950000Y-57800000D01*
X77197792Y-56765746D02*
X76599340Y-57364198D01*
X75000000Y-60763960D02*
X75000000Y-61365000D01*
X76599340Y-57364198D02*
X75820814Y-57364198D01*
X75000000Y-58185012D02*
X75000000Y-60763960D01*
X75820814Y-57364198D02*
X75000000Y-58185012D01*
X80600000Y-62950000D02*
X80600000Y-62100000D01*
X80600000Y-62100000D02*
X80700000Y-62000000D01*
X79668198Y-66668198D02*
X80000000Y-66336396D01*
X80000000Y-66336396D02*
X80000000Y-65450000D01*
X81045746Y-63604254D02*
X81600000Y-63050000D01*
X81600000Y-63050000D02*
X81600000Y-62000000D01*
X81045746Y-64522208D02*
X81045746Y-63604254D01*
X78450000Y-67147954D02*
X78450000Y-66613604D01*
X78450000Y-66613604D02*
X79031802Y-66031802D01*
X77522208Y-68075746D02*
X78450000Y-67147954D01*
X76000000Y-58888815D02*
X76000000Y-58350000D01*
X76000000Y-60570000D02*
X76000000Y-58888815D01*
X76270000Y-61365000D02*
X76270000Y-60840000D01*
X76270000Y-60840000D02*
X76000000Y-60570000D01*
X80214254Y-64177792D02*
X79753314Y-64177792D01*
X79753314Y-64177792D02*
X77177792Y-66753314D01*
X77177792Y-66753314D02*
X77177792Y-66927776D01*
X77177792Y-66927776D02*
X77177792Y-67244254D01*
X75000000Y-67700000D02*
X76722046Y-67700000D01*
X76722046Y-67700000D02*
X77177792Y-67244254D01*
X74950000Y-66650000D02*
X74950000Y-67650000D01*
X74950000Y-67650000D02*
X75000000Y-67700000D01*
X70331802Y-66668198D02*
X70763604Y-67100000D01*
X70763604Y-67100000D02*
X71700000Y-67100000D01*
X69900000Y-65750000D02*
X69900000Y-66236396D01*
X69900000Y-66236396D02*
X70331802Y-66668198D01*
X73465746Y-68115746D02*
X73950000Y-68600000D01*
X73950000Y-68600000D02*
X75000000Y-68600000D01*
X72487792Y-68115746D02*
X73465746Y-68115746D01*
X69945479Y-64904521D02*
X70105157Y-65064199D01*
X70105157Y-65064199D02*
X70229185Y-65064199D01*
X70229185Y-65064199D02*
X70685356Y-65520370D01*
X70685356Y-65748960D02*
X70968198Y-66031802D01*
X70685356Y-65520370D02*
X70685356Y-65748960D01*
X68904254Y-64542208D02*
X69266567Y-64904521D01*
X69266567Y-64904521D02*
X69945479Y-64904521D01*
X68914254Y-60485746D02*
X68400000Y-61000000D01*
X68400000Y-61000000D02*
X68400000Y-62000000D01*
X68914254Y-59507792D02*
X68914254Y-60485746D01*
X71251040Y-57048960D02*
X71293086Y-57048960D01*
X71293086Y-57048960D02*
X72427792Y-55914254D01*
X70968198Y-57968198D02*
X71251040Y-57685356D01*
X71251040Y-57685356D02*
X71251040Y-57048960D01*
X74100000Y-60200000D02*
X74100000Y-60995000D01*
X74100000Y-60995000D02*
X73730000Y-61365000D01*
X69745746Y-59852208D02*
X70300000Y-60406462D01*
X70300000Y-60406462D02*
X70300000Y-63633538D01*
X70300000Y-63633538D02*
X69959529Y-63974009D01*
X69959529Y-63974009D02*
X69735746Y-64197792D01*
X69745746Y-59852208D02*
X70062224Y-59852208D01*
X70062224Y-59852208D02*
X72772208Y-57142224D01*
X72772208Y-57142224D02*
X72772208Y-57062224D01*
X72772208Y-57062224D02*
X72772208Y-56745746D01*
X69735746Y-64197792D02*
X70036066Y-64498112D01*
X70036066Y-64498112D02*
X70362544Y-64498112D01*
X70362544Y-64498112D02*
X72832208Y-66967776D01*
X72832208Y-66967776D02*
X72832208Y-67284254D01*
X75000000Y-62635000D02*
X75000000Y-65116462D01*
X75000000Y-65116462D02*
X72832208Y-67284254D01*
M02*
