G04 #@! TF.FileFunction,Soldermask,Top*
%FSLAX46Y46*%
G04 Gerber Fmt 4.6, Leading zero omitted, Abs format (unit mm)*
G04 Created by KiCad (PCBNEW (2016-04-14 BZR 6691, Git 829fa97)-product) date Fri 15 Apr 2016 10:51:36 AM CEST*
%MOMM*%
%LPD*%
G01*
G04 APERTURE LIST*
%ADD10C,0.150000*%
%ADD11C,2.000000*%
%ADD12C,0.850000*%
%ADD13R,0.400000X0.600000*%
%ADD14R,0.600000X0.400000*%
G04 APERTURE END LIST*
D10*
G36*
X77341581Y-55634673D02*
X77895909Y-55864283D01*
X77742835Y-56233835D01*
X77188507Y-56004225D01*
X77341581Y-55634673D01*
X77341581Y-55634673D01*
G37*
G36*
X76997165Y-56466165D02*
X77551493Y-56695775D01*
X77398419Y-57065327D01*
X76844091Y-56835717D01*
X76997165Y-56466165D01*
X76997165Y-56466165D01*
G37*
G36*
X81205717Y-59134091D02*
X81435327Y-59688419D01*
X81065775Y-59841493D01*
X80836165Y-59287165D01*
X81205717Y-59134091D01*
X81205717Y-59134091D01*
G37*
G36*
X80374225Y-59478507D02*
X80603835Y-60032835D01*
X80234283Y-60185909D01*
X80004673Y-59631581D01*
X80374225Y-59478507D01*
X80374225Y-59478507D01*
G37*
G36*
X81345327Y-64321581D02*
X81115717Y-64875909D01*
X80746165Y-64722835D01*
X80975775Y-64168507D01*
X81345327Y-64321581D01*
X81345327Y-64321581D01*
G37*
G36*
X80513835Y-63977165D02*
X80284225Y-64531493D01*
X79914673Y-64378419D01*
X80144283Y-63824091D01*
X80513835Y-63977165D01*
X80513835Y-63977165D01*
G37*
G36*
X77875909Y-68145717D02*
X77321581Y-68375327D01*
X77168507Y-68005775D01*
X77722835Y-67776165D01*
X77875909Y-68145717D01*
X77875909Y-68145717D01*
G37*
G36*
X77531493Y-67314225D02*
X76977165Y-67543835D01*
X76824091Y-67174283D01*
X77378419Y-66944673D01*
X77531493Y-67314225D01*
X77531493Y-67314225D01*
G37*
G36*
X72688419Y-68415327D02*
X72134091Y-68185717D01*
X72287165Y-67816165D01*
X72841493Y-68045775D01*
X72688419Y-68415327D01*
X72688419Y-68415327D01*
G37*
G36*
X73032835Y-67583835D02*
X72478507Y-67354225D01*
X72631581Y-66984673D01*
X73185909Y-67214283D01*
X73032835Y-67583835D01*
X73032835Y-67583835D01*
G37*
G36*
X68834283Y-64895909D02*
X68604673Y-64341581D01*
X68974225Y-64188507D01*
X69203835Y-64742835D01*
X68834283Y-64895909D01*
X68834283Y-64895909D01*
G37*
G36*
X69665775Y-64551493D02*
X69436165Y-63997165D01*
X69805717Y-63844091D01*
X70035327Y-64398419D01*
X69665775Y-64551493D01*
X69665775Y-64551493D01*
G37*
G36*
X68614673Y-59708419D02*
X68844283Y-59154091D01*
X69213835Y-59307165D01*
X68984225Y-59861493D01*
X68614673Y-59708419D01*
X68614673Y-59708419D01*
G37*
G36*
X69446165Y-60052835D02*
X69675775Y-59498507D01*
X70045327Y-59651581D01*
X69815717Y-60205909D01*
X69446165Y-60052835D01*
X69446165Y-60052835D01*
G37*
G36*
X72074091Y-55844283D02*
X72628419Y-55614673D01*
X72781493Y-55984225D01*
X72227165Y-56213835D01*
X72074091Y-55844283D01*
X72074091Y-55844283D01*
G37*
G36*
X72418507Y-56675775D02*
X72972835Y-56446165D01*
X73125909Y-56815717D01*
X72571581Y-57045327D01*
X72418507Y-56675775D01*
X72418507Y-56675775D01*
G37*
D11*
X77500000Y-64500000D03*
X77500000Y-59500000D03*
X72500000Y-59500000D03*
X72500000Y-64500000D03*
D12*
X73730000Y-62635000D03*
X73730000Y-61365000D03*
X75000000Y-62635000D03*
X75000000Y-61365000D03*
X76270000Y-62635000D03*
D10*
G36*
X76579997Y-60940614D02*
X76592374Y-60942450D01*
X76604511Y-60945490D01*
X76616292Y-60949705D01*
X76627603Y-60955055D01*
X76638335Y-60961488D01*
X76648385Y-60968941D01*
X76657656Y-60977344D01*
X76666059Y-60986615D01*
X76673512Y-60996665D01*
X76679945Y-61007397D01*
X76685295Y-61018708D01*
X76689510Y-61030489D01*
X76692550Y-61042626D01*
X76694386Y-61055003D01*
X76695000Y-61067500D01*
X76695000Y-61662500D01*
X76694386Y-61674997D01*
X76692550Y-61687374D01*
X76689510Y-61699511D01*
X76685295Y-61711292D01*
X76679945Y-61722603D01*
X76673512Y-61733335D01*
X76666059Y-61743385D01*
X76657656Y-61752656D01*
X76648385Y-61761059D01*
X76638335Y-61768512D01*
X76627603Y-61774945D01*
X76616292Y-61780295D01*
X76604511Y-61784510D01*
X76592374Y-61787550D01*
X76579997Y-61789386D01*
X76567500Y-61790000D01*
X75972500Y-61790000D01*
X75960003Y-61789386D01*
X75947626Y-61787550D01*
X75935489Y-61784510D01*
X75923708Y-61780295D01*
X75912397Y-61774945D01*
X75901665Y-61768512D01*
X75891615Y-61761059D01*
X75882344Y-61752656D01*
X75873941Y-61743385D01*
X75866488Y-61733335D01*
X75860055Y-61722603D01*
X75854705Y-61711292D01*
X75850490Y-61699511D01*
X75847450Y-61687374D01*
X75845614Y-61674997D01*
X75845000Y-61662500D01*
X75845000Y-61067500D01*
X75845614Y-61055003D01*
X75847450Y-61042626D01*
X75850490Y-61030489D01*
X75854705Y-61018708D01*
X75860055Y-61007397D01*
X75866488Y-60996665D01*
X75873941Y-60986615D01*
X75882344Y-60977344D01*
X75891615Y-60968941D01*
X75901665Y-60961488D01*
X75912397Y-60955055D01*
X75923708Y-60949705D01*
X75935489Y-60945490D01*
X75947626Y-60942450D01*
X75960003Y-60940614D01*
X75972500Y-60940000D01*
X76567500Y-60940000D01*
X76579997Y-60940614D01*
X76579997Y-60940614D01*
G37*
G36*
X71321751Y-57897487D02*
X70897487Y-58321751D01*
X70614645Y-58038909D01*
X71038909Y-57614645D01*
X71321751Y-57897487D01*
X71321751Y-57897487D01*
G37*
G36*
X70685355Y-57261091D02*
X70261091Y-57685355D01*
X69978249Y-57402513D01*
X70402513Y-56978249D01*
X70685355Y-57261091D01*
X70685355Y-57261091D01*
G37*
D13*
X69300000Y-62000000D03*
X68400000Y-62000000D03*
D10*
G36*
X70897487Y-65678249D02*
X71321751Y-66102513D01*
X71038909Y-66385355D01*
X70614645Y-65961091D01*
X70897487Y-65678249D01*
X70897487Y-65678249D01*
G37*
G36*
X70261091Y-66314645D02*
X70685355Y-66738909D01*
X70402513Y-67021751D01*
X69978249Y-66597487D01*
X70261091Y-66314645D01*
X70261091Y-66314645D01*
G37*
D14*
X75000000Y-67700000D03*
X75000000Y-68600000D03*
D10*
G36*
X78678249Y-66102513D02*
X79102513Y-65678249D01*
X79385355Y-65961091D01*
X78961091Y-66385355D01*
X78678249Y-66102513D01*
X78678249Y-66102513D01*
G37*
G36*
X79314645Y-66738909D02*
X79738909Y-66314645D01*
X80021751Y-66597487D01*
X79597487Y-67021751D01*
X79314645Y-66738909D01*
X79314645Y-66738909D01*
G37*
D13*
X80700000Y-62000000D03*
X81600000Y-62000000D03*
D10*
G36*
X79102513Y-58321751D02*
X78678249Y-57897487D01*
X78961091Y-57614645D01*
X79385355Y-58038909D01*
X79102513Y-58321751D01*
X79102513Y-58321751D01*
G37*
G36*
X79738909Y-57685355D02*
X79314645Y-57261091D01*
X79597487Y-56978249D01*
X80021751Y-57402513D01*
X79738909Y-57685355D01*
X79738909Y-57685355D01*
G37*
D14*
X75000000Y-56300000D03*
X75000000Y-55400000D03*
M02*
