M48
METRIC,TZ
T1C0.350
T2C0.381
T3C1.200
%
G90
G05
T1
X75.Y-61.365
X75.Y-62.635
T2
X69.55Y-63.1
X69.9Y-65.75
X69.95Y-58.5
X71.7Y-67.1
X73.95Y-56.1
X74.1Y-60.2
X74.95Y-66.65
X76.Y-58.35
X76.05Y-56.678
X77.914Y-61.922
X77.95Y-57.8
X78.6Y-56.8
X79.729Y-58.558
X80.Y-65.45
X80.6Y-62.95
X81.286Y-60.8
T3
X72.5Y-59.5
X72.5Y-64.5
X77.5Y-59.5
X77.5Y-64.5
T0
M30
