G04 #@! TF.FileFunction,Copper,L2,Bot,Signal*
%FSLAX46Y46*%
G04 Gerber Fmt 4.6, Leading zero omitted, Abs format (unit mm)*
G04 Created by KiCad (PCBNEW (2016-04-14 BZR 6691, Git 829fa97)-product) date Fri 15 Apr 2016 10:51:36 AM CEST*
%MOMM*%
%LPD*%
G01*
G04 APERTURE LIST*
%ADD10C,0.150000*%
%ADD11R,1.000000X0.250000*%
%ADD12C,2.000000*%
%ADD13C,0.850000*%
%ADD14R,1.498600X1.297940*%
%ADD15C,0.762000*%
%ADD16C,0.203200*%
G04 APERTURE END LIST*
D10*
D11*
X76500000Y-61000000D03*
X76500000Y-61500000D03*
X76500000Y-62000000D03*
X76500000Y-62500000D03*
X76500000Y-63000000D03*
X73500000Y-63000000D03*
X73500000Y-62500000D03*
X73500000Y-62000000D03*
X73500000Y-61500000D03*
X73500000Y-61000000D03*
D12*
X77500000Y-64500000D03*
X77500000Y-59500000D03*
X72500000Y-59500000D03*
X72500000Y-64500000D03*
D13*
X75000000Y-62635000D03*
X75000000Y-61365000D03*
D14*
X79180000Y-61000040D03*
X79180000Y-62899960D03*
D15*
X78600000Y-56800000D03*
X76050000Y-56678388D03*
X69550000Y-63100000D03*
X73950000Y-56100000D03*
X69950000Y-58500000D03*
X77914069Y-61921766D03*
X79729395Y-58558005D03*
X81285810Y-60799998D03*
X77950000Y-57800000D03*
X80600000Y-62950000D03*
X80000000Y-65450000D03*
X76000000Y-58350000D03*
X74950000Y-66650000D03*
X71700000Y-67100000D03*
X69900000Y-65750000D03*
X74100000Y-60200000D03*
D16*
X76500000Y-63000000D02*
X79079960Y-63000000D01*
X79079960Y-63000000D02*
X79180000Y-62899960D01*
X77500000Y-64500000D02*
X78499999Y-63500001D01*
X78499999Y-63500001D02*
X78579959Y-63500001D01*
X78579959Y-63500001D02*
X79180000Y-62899960D01*
X72500000Y-64500000D02*
X77500000Y-64500000D01*
X73500000Y-61000000D02*
X72585787Y-61000000D01*
X72585787Y-61000000D02*
X72500000Y-60914213D01*
X72500000Y-60914213D02*
X72500000Y-59500000D01*
X77500000Y-59500000D02*
X79000040Y-61000040D01*
X79000040Y-61000040D02*
X79180000Y-61000040D01*
X72500000Y-59500000D02*
X77500000Y-59500000D01*
X78478388Y-56678388D02*
X78600000Y-56800000D01*
X76050000Y-56678388D02*
X78478388Y-56678388D01*
X69950000Y-58500000D02*
X69950000Y-62700000D01*
X69950000Y-62700000D02*
X69550000Y-63100000D01*
X69950000Y-58500000D02*
X72350000Y-56100000D01*
X72350000Y-56100000D02*
X73950000Y-56100000D01*
X77492303Y-61500000D02*
X77533070Y-61540767D01*
X76500000Y-61500000D02*
X77492303Y-61500000D01*
X77533070Y-61540767D02*
X77914069Y-61921766D01*
X81285810Y-60114420D02*
X80110394Y-58939004D01*
X80110394Y-58939004D02*
X79729395Y-58558005D01*
X81285810Y-60799998D02*
X81285810Y-60114420D01*
X80600000Y-62950000D02*
X80600000Y-60450000D01*
X80600000Y-60450000D02*
X77950000Y-57800000D01*
X80000000Y-65450000D02*
X80600000Y-64850000D01*
X80600000Y-64850000D02*
X80600000Y-62950000D01*
X73500000Y-61500000D02*
X74865000Y-61500000D01*
X74865000Y-61500000D02*
X75000000Y-61365000D01*
X75619001Y-57969001D02*
X76000000Y-58350000D01*
X71780999Y-57969001D02*
X75619001Y-57969001D01*
X70950000Y-62250000D02*
X70950000Y-58800000D01*
X71650000Y-62950000D02*
X70950000Y-62250000D01*
X70950000Y-58800000D02*
X71780999Y-57969001D01*
X71700000Y-67100000D02*
X74500000Y-67100000D01*
X74500000Y-67100000D02*
X74950000Y-66650000D01*
X72100000Y-62500000D02*
X71650000Y-62950000D01*
X71650000Y-62950000D02*
X69900000Y-64700000D01*
X73500000Y-62500000D02*
X72100000Y-62500000D01*
X69900000Y-64700000D02*
X69900000Y-65750000D01*
X76500000Y-61000000D02*
X75796800Y-61000000D01*
X75796800Y-61000000D02*
X74996800Y-60200000D01*
X74996800Y-60200000D02*
X74100000Y-60200000D01*
X73500000Y-63000000D02*
X74635000Y-63000000D01*
X74635000Y-63000000D02*
X75000000Y-62635000D01*
M02*
